G04*
G04 #@! TF.GenerationSoftware,Altium Limited,Altium Designer,22.2.1 (43)*
G04*
G04 Layer_Physical_Order=1*
G04 Layer_Color=255*
%FSLAX24Y24*%
%MOIN*%
G70*
G04*
G04 #@! TF.SameCoordinates,4A8B9231-651C-4E42-A33C-5E076E2A374B*
G04*
G04*
G04 #@! TF.FilePolarity,Positive*
G04*
G01*
G75*
%ADD10C,0.0591*%
%ADD11C,0.1260*%
G04:AMPARAMS|DCode=12|XSize=157.5mil|YSize=118.1mil|CornerRadius=29.5mil|HoleSize=0mil|Usage=FLASHONLY|Rotation=270.000|XOffset=0mil|YOffset=0mil|HoleType=Round|Shape=RoundedRectangle|*
%AMROUNDEDRECTD12*
21,1,0.1575,0.0591,0,0,270.0*
21,1,0.0984,0.1181,0,0,270.0*
1,1,0.0591,-0.0295,-0.0492*
1,1,0.0591,-0.0295,0.0492*
1,1,0.0591,0.0295,0.0492*
1,1,0.0591,0.0295,-0.0492*
%
%ADD12ROUNDEDRECTD12*%
%ADD13C,0.0600*%
G04:AMPARAMS|DCode=14|XSize=80mil|YSize=118.1mil|CornerRadius=20mil|HoleSize=0mil|Usage=FLASHONLY|Rotation=0.000|XOffset=0mil|YOffset=0mil|HoleType=Round|Shape=RoundedRectangle|*
%AMROUNDEDRECTD14*
21,1,0.0800,0.0781,0,0,0.0*
21,1,0.0400,0.1181,0,0,0.0*
1,1,0.0400,0.0200,-0.0391*
1,1,0.0400,-0.0200,-0.0391*
1,1,0.0400,-0.0200,0.0391*
1,1,0.0400,0.0200,0.0391*
%
%ADD14ROUNDEDRECTD14*%
%ADD15O,0.0906X0.0669*%
G04:AMPARAMS|DCode=16|XSize=66.9mil|YSize=90.6mil|CornerRadius=16.7mil|HoleSize=0mil|Usage=FLASHONLY|Rotation=90.000|XOffset=0mil|YOffset=0mil|HoleType=Round|Shape=RoundedRectangle|*
%AMROUNDEDRECTD16*
21,1,0.0669,0.0571,0,0,90.0*
21,1,0.0335,0.0906,0,0,90.0*
1,1,0.0335,0.0285,0.0167*
1,1,0.0335,0.0285,-0.0167*
1,1,0.0335,-0.0285,-0.0167*
1,1,0.0335,-0.0285,0.0167*
%
%ADD16ROUNDEDRECTD16*%
D10*
X37008Y787D02*
X37657Y1437D01*
X7480Y787D02*
X37008D01*
X32524Y11024D02*
X38189D01*
X3937Y11992D02*
X31555D01*
X32524Y11024D01*
X35801Y14636D02*
X35870Y14567D01*
X35801Y14636D02*
Y15774D01*
X35039Y16535D02*
X35801Y15774D01*
X7480Y16535D02*
X35039D01*
X4937Y13992D02*
X7480Y16535D01*
X3937Y13992D02*
X4937D01*
X7327Y13386D02*
Y14567D01*
X6933Y12992D02*
X7327Y13386D01*
X3937Y12992D02*
X6933D01*
X5118Y3543D02*
Y9811D01*
X4070Y10859D02*
X5118Y9811D01*
X37657Y1437D02*
Y7480D01*
X38189Y8012D02*
Y10024D01*
X37657Y7480D02*
X38189Y8012D01*
X5118Y1181D02*
Y3543D01*
X3937Y3480D02*
X5055D01*
X5118Y3543D01*
Y1181D02*
X5512Y787D01*
X6480D01*
X3937Y10992D02*
X4034D01*
X4070Y10956D01*
Y10859D02*
Y10956D01*
X3102Y15992D02*
X3937D01*
X2756Y15646D02*
X3102Y15992D01*
X2756Y9543D02*
X3819Y8480D01*
X2756Y9543D02*
Y15646D01*
X3819Y8480D02*
X3937D01*
D11*
X10630Y14567D02*
D03*
X32524D02*
D03*
Y5906D02*
D03*
X10630D02*
D03*
D12*
X35870Y14567D02*
D03*
X7327D02*
D03*
Y5906D02*
D03*
X35870D02*
D03*
D13*
X38976Y17717D02*
D03*
X1969D02*
D03*
Y1969D02*
D03*
X38976D02*
D03*
D14*
X7480Y787D02*
D03*
X6480D02*
D03*
D15*
X3937Y15992D02*
D03*
Y13992D02*
D03*
Y12992D02*
D03*
Y10992D02*
D03*
Y14992D02*
D03*
Y11992D02*
D03*
Y8480D02*
D03*
Y6480D02*
D03*
Y5480D02*
D03*
Y3480D02*
D03*
Y7480D02*
D03*
Y4480D02*
D03*
X38189Y11024D02*
D03*
D16*
Y10024D02*
D03*
M02*
