M48
;Layer_Color=9474304
;FILE_FORMAT=2:4
INCH,LZ
;TYPE=PLATED
T1F00S00C0.0394
T2F00S00C0.0512
T4F00S00C0.1102
%
T01
X00648Y000787
X00748
T02
X038189Y010024
Y011024
X003937Y010992
Y011992
Y012992
Y013992
Y014992
Y015992
Y00848
Y00748
Y00648
Y00548
Y00448
Y00348
T04
X038976Y001969
X001969
Y017717
X038976
M30
