G04*
G04 #@! TF.GenerationSoftware,Altium Limited,Altium Designer,22.2.1 (43)*
G04*
G04 Layer_Color=128*
%FSLAX24Y24*%
%MOIN*%
G70*
G04*
G04 #@! TF.SameCoordinates,4A8B9231-651C-4E42-A33C-5E076E2A374B*
G04*
G04*
G04 #@! TF.FilePolarity,Positive*
G04*
G01*
G75*
%ADD24C,0.0020*%
D24*
X10000Y14567D02*
X11260D01*
X10630Y13937D02*
Y15197D01*
X31894Y14567D02*
X33154D01*
X32524Y13937D02*
Y15197D01*
X35594Y14567D02*
X36146D01*
X35870Y14291D02*
Y14843D01*
X7051Y14567D02*
X7602D01*
X7327Y14291D02*
Y14843D01*
X38425Y17717D02*
X39528D01*
X38976Y17165D02*
Y18268D01*
X7283Y787D02*
X7677D01*
X7480Y591D02*
Y984D01*
X6283Y787D02*
X6677D01*
X6480Y591D02*
Y984D01*
X7051Y5906D02*
X7602D01*
X7327Y5630D02*
Y6181D01*
X35594Y5906D02*
X36146D01*
X35870Y5630D02*
Y6181D01*
X31894Y5906D02*
X33154D01*
X32524Y5276D02*
Y6535D01*
X10000Y5906D02*
X11260D01*
X10630Y5276D02*
Y6535D01*
X3681Y15992D02*
X4193D01*
X3937Y15736D02*
Y16248D01*
X3681Y13992D02*
X4193D01*
X3937Y13736D02*
Y14248D01*
X3681Y12992D02*
X4193D01*
X3937Y12736D02*
Y13248D01*
X3681Y10992D02*
X4193D01*
X3937Y10736D02*
Y11248D01*
X3681Y14992D02*
X4193D01*
X3937Y14736D02*
Y15248D01*
X3681Y11992D02*
X4193D01*
X3937Y11736D02*
Y12248D01*
X3681Y8480D02*
X4193D01*
X3937Y8224D02*
Y8736D01*
X3681Y6480D02*
X4193D01*
X3937Y6224D02*
Y6736D01*
X3681Y5480D02*
X4193D01*
X3937Y5224D02*
Y5736D01*
X3681Y3480D02*
X4193D01*
X3937Y3224D02*
Y3736D01*
X3681Y7480D02*
X4193D01*
X3937Y7224D02*
Y7736D01*
X3681Y4480D02*
X4193D01*
X3937Y4224D02*
Y4736D01*
X37933Y10024D02*
X38445D01*
X38189Y9768D02*
Y10280D01*
X37933Y11024D02*
X38445D01*
X38189Y10768D02*
Y11280D01*
X1417Y17717D02*
X2520D01*
X1969Y17165D02*
Y18268D01*
X1417Y1969D02*
X2520D01*
X1969Y1417D02*
Y2520D01*
X38425Y1969D02*
X39528D01*
X38976Y1417D02*
Y2520D01*
M02*
