G04*
G04 #@! TF.GenerationSoftware,Altium Limited,Altium Designer,22.2.1 (43)*
G04*
G04 Layer_Physical_Order=2*
G04 Layer_Color=16711680*
%FSLAX24Y24*%
%MOIN*%
G70*
G04*
G04 #@! TF.SameCoordinates,4A8B9231-651C-4E42-A33C-5E076E2A374B*
G04*
G04*
G04 #@! TF.FilePolarity,Positive*
G04*
G01*
G75*
%ADD10C,0.0591*%
%ADD11C,0.1260*%
G04:AMPARAMS|DCode=12|XSize=157.5mil|YSize=118.1mil|CornerRadius=29.5mil|HoleSize=0mil|Usage=FLASHONLY|Rotation=270.000|XOffset=0mil|YOffset=0mil|HoleType=Round|Shape=RoundedRectangle|*
%AMROUNDEDRECTD12*
21,1,0.1575,0.0591,0,0,270.0*
21,1,0.0984,0.1181,0,0,270.0*
1,1,0.0591,-0.0295,-0.0492*
1,1,0.0591,-0.0295,0.0492*
1,1,0.0591,0.0295,0.0492*
1,1,0.0591,0.0295,-0.0492*
%
%ADD12ROUNDEDRECTD12*%
%ADD13C,0.0600*%
G04:AMPARAMS|DCode=14|XSize=80mil|YSize=118.1mil|CornerRadius=20mil|HoleSize=0mil|Usage=FLASHONLY|Rotation=0.000|XOffset=0mil|YOffset=0mil|HoleType=Round|Shape=RoundedRectangle|*
%AMROUNDEDRECTD14*
21,1,0.0800,0.0781,0,0,0.0*
21,1,0.0400,0.1181,0,0,0.0*
1,1,0.0400,0.0200,-0.0391*
1,1,0.0400,-0.0200,-0.0391*
1,1,0.0400,-0.0200,0.0391*
1,1,0.0400,0.0200,0.0391*
%
%ADD14ROUNDEDRECTD14*%
%ADD15O,0.0906X0.0669*%
G04:AMPARAMS|DCode=16|XSize=66.9mil|YSize=90.6mil|CornerRadius=16.7mil|HoleSize=0mil|Usage=FLASHONLY|Rotation=90.000|XOffset=0mil|YOffset=0mil|HoleType=Round|Shape=RoundedRectangle|*
%AMROUNDEDRECTD16*
21,1,0.0669,0.0571,0,0,90.0*
21,1,0.0335,0.0906,0,0,90.0*
1,1,0.0335,0.0285,0.0167*
1,1,0.0335,0.0285,-0.0167*
1,1,0.0335,-0.0285,-0.0167*
1,1,0.0335,-0.0285,0.0167*
%
%ADD16ROUNDEDRECTD16*%
G04:AMPARAMS|DCode=17|XSize=15.7mil|YSize=53.1mil|CornerRadius=3.9mil|HoleSize=0mil|Usage=FLASHONLY|Rotation=90.000|XOffset=0mil|YOffset=0mil|HoleType=Round|Shape=RoundedRectangle|*
%AMROUNDEDRECTD17*
21,1,0.0157,0.0453,0,0,90.0*
21,1,0.0079,0.0531,0,0,90.0*
1,1,0.0079,0.0226,0.0039*
1,1,0.0079,0.0226,-0.0039*
1,1,0.0079,-0.0226,-0.0039*
1,1,0.0079,-0.0226,0.0039*
%
%ADD17ROUNDEDRECTD17*%
G04:AMPARAMS|DCode=18|XSize=39.4mil|YSize=53.1mil|CornerRadius=9.8mil|HoleSize=0mil|Usage=FLASHONLY|Rotation=90.000|XOffset=0mil|YOffset=0mil|HoleType=Round|Shape=RoundedRectangle|*
%AMROUNDEDRECTD18*
21,1,0.0394,0.0335,0,0,90.0*
21,1,0.0197,0.0531,0,0,90.0*
1,1,0.0197,0.0167,0.0098*
1,1,0.0197,0.0167,-0.0098*
1,1,0.0197,-0.0167,-0.0098*
1,1,0.0197,-0.0167,0.0098*
%
%ADD18ROUNDEDRECTD18*%
G04:AMPARAMS|DCode=19|XSize=63mil|YSize=63mil|CornerRadius=15.7mil|HoleSize=0mil|Usage=FLASHONLY|Rotation=90.000|XOffset=0mil|YOffset=0mil|HoleType=Round|Shape=RoundedRectangle|*
%AMROUNDEDRECTD19*
21,1,0.0630,0.0315,0,0,90.0*
21,1,0.0315,0.0630,0,0,90.0*
1,1,0.0315,0.0157,0.0157*
1,1,0.0315,0.0157,-0.0157*
1,1,0.0315,-0.0157,-0.0157*
1,1,0.0315,-0.0157,0.0157*
%
%ADD19ROUNDEDRECTD19*%
G04:AMPARAMS|DCode=20|XSize=70.9mil|YSize=74.8mil|CornerRadius=17.7mil|HoleSize=0mil|Usage=FLASHONLY|Rotation=270.000|XOffset=0mil|YOffset=0mil|HoleType=Round|Shape=RoundedRectangle|*
%AMROUNDEDRECTD20*
21,1,0.0709,0.0394,0,0,270.0*
21,1,0.0354,0.0748,0,0,270.0*
1,1,0.0354,-0.0197,-0.0177*
1,1,0.0354,-0.0197,0.0177*
1,1,0.0354,0.0197,0.0177*
1,1,0.0354,0.0197,-0.0177*
%
%ADD20ROUNDEDRECTD20*%
G04:AMPARAMS|DCode=21|XSize=74.8mil|YSize=74.8mil|CornerRadius=18.7mil|HoleSize=0mil|Usage=FLASHONLY|Rotation=90.000|XOffset=0mil|YOffset=0mil|HoleType=Round|Shape=RoundedRectangle|*
%AMROUNDEDRECTD21*
21,1,0.0748,0.0374,0,0,90.0*
21,1,0.0374,0.0748,0,0,90.0*
1,1,0.0374,0.0187,0.0187*
1,1,0.0374,0.0187,-0.0187*
1,1,0.0374,-0.0187,-0.0187*
1,1,0.0374,-0.0187,0.0187*
%
%ADD21ROUNDEDRECTD21*%
%ADD22C,0.0197*%
D10*
X2159Y9188D02*
X2867Y8480D01*
X3937D01*
X2159Y9188D02*
X2159D01*
X37402Y11024D02*
X38189D01*
X37008Y5309D02*
Y10630D01*
X37402Y11024D01*
X36179Y4480D02*
X37008Y5309D01*
X3937Y4480D02*
X36179D01*
X6693Y7874D02*
X35039D01*
X5299Y6480D02*
X6693Y7874D01*
X35039D02*
X35827Y7087D01*
Y5949D02*
Y7087D01*
Y5949D02*
X35870Y5906D01*
X3937Y6480D02*
X5299D01*
X7031Y5480D02*
X7327Y5776D01*
Y5906D01*
X3937Y5480D02*
X7031D01*
X2176Y10481D02*
X2558Y10098D01*
X5118D01*
Y14567D01*
Y7874D02*
Y10098D01*
X3937Y14992D02*
X4693D01*
X5118Y14567D01*
X4724Y7480D02*
X5118Y7874D01*
X3937Y7480D02*
X4724D01*
D11*
X10630Y14567D02*
D03*
X32524D02*
D03*
Y5906D02*
D03*
X10630D02*
D03*
D12*
X35870Y14567D02*
D03*
X7327D02*
D03*
Y5906D02*
D03*
X35870D02*
D03*
D13*
X38976Y17717D02*
D03*
X1969D02*
D03*
Y1969D02*
D03*
X38976D02*
D03*
D14*
X7480Y787D02*
D03*
X6480D02*
D03*
D15*
X3937Y15992D02*
D03*
Y13992D02*
D03*
Y12992D02*
D03*
Y10992D02*
D03*
Y14992D02*
D03*
Y11992D02*
D03*
Y8480D02*
D03*
Y6480D02*
D03*
Y5480D02*
D03*
Y3480D02*
D03*
Y7480D02*
D03*
Y4480D02*
D03*
X38189Y11024D02*
D03*
D16*
Y10024D02*
D03*
D17*
X1708Y9843D02*
D03*
Y9587D02*
D03*
Y10098D02*
D03*
D18*
Y9225D02*
D03*
Y10465D02*
D03*
D19*
X1658Y8622D02*
D03*
Y11063D02*
D03*
D20*
X655Y8346D02*
D03*
Y11339D02*
D03*
D21*
Y9370D02*
D03*
Y10315D02*
D03*
D22*
X1708Y10465D02*
X2159D01*
X2176Y10481D01*
M02*
