G04*
G04 #@! TF.GenerationSoftware,Altium Limited,Altium Designer,21.2.0 (30)*
G04*
G04 Layer_Physical_Order=1*
G04 Layer_Color=255*
%FSLAX24Y24*%
%MOIN*%
G70*
G04*
G04 #@! TF.SameCoordinates,1032982D-78CD-45FA-BA90-42E7A7D025FA*
G04*
G04*
G04 #@! TF.FilePolarity,Positive*
G04*
G01*
G75*
%ADD10C,0.0197*%
%ADD11C,0.0100*%
G04:AMPARAMS|DCode=12|XSize=78.7mil|YSize=78.7mil|CornerRadius=19.7mil|HoleSize=0mil|Usage=FLASHONLY|Rotation=0.000|XOffset=0mil|YOffset=0mil|HoleType=Round|Shape=RoundedRectangle|*
%AMROUNDEDRECTD12*
21,1,0.0787,0.0394,0,0,0.0*
21,1,0.0394,0.0787,0,0,0.0*
1,1,0.0394,0.0197,-0.0197*
1,1,0.0394,-0.0197,-0.0197*
1,1,0.0394,-0.0197,0.0197*
1,1,0.0394,0.0197,0.0197*
%
%ADD12ROUNDEDRECTD12*%
%ADD13C,0.0787*%
%ADD14O,0.0906X0.0768*%
G04:AMPARAMS|DCode=15|XSize=76.8mil|YSize=90.6mil|CornerRadius=19.2mil|HoleSize=0mil|Usage=FLASHONLY|Rotation=90.000|XOffset=0mil|YOffset=0mil|HoleType=Round|Shape=RoundedRectangle|*
%AMROUNDEDRECTD15*
21,1,0.0768,0.0522,0,0,90.0*
21,1,0.0384,0.0906,0,0,90.0*
1,1,0.0384,0.0261,0.0192*
1,1,0.0384,0.0261,-0.0192*
1,1,0.0384,-0.0261,-0.0192*
1,1,0.0384,-0.0261,0.0192*
%
%ADD15ROUNDEDRECTD15*%
%ADD16C,0.0866*%
%ADD17O,0.0768X0.0906*%
G04:AMPARAMS|DCode=18|XSize=76.8mil|YSize=90.6mil|CornerRadius=19.2mil|HoleSize=0mil|Usage=FLASHONLY|Rotation=180.000|XOffset=0mil|YOffset=0mil|HoleType=Round|Shape=RoundedRectangle|*
%AMROUNDEDRECTD18*
21,1,0.0768,0.0522,0,0,180.0*
21,1,0.0384,0.0906,0,0,180.0*
1,1,0.0384,-0.0192,0.0261*
1,1,0.0384,0.0192,0.0261*
1,1,0.0384,0.0192,-0.0261*
1,1,0.0384,-0.0192,-0.0261*
%
%ADD18ROUNDEDRECTD18*%
G04:AMPARAMS|DCode=19|XSize=66.9mil|YSize=90.6mil|CornerRadius=16.7mil|HoleSize=0mil|Usage=FLASHONLY|Rotation=90.000|XOffset=0mil|YOffset=0mil|HoleType=Round|Shape=RoundedRectangle|*
%AMROUNDEDRECTD19*
21,1,0.0669,0.0571,0,0,90.0*
21,1,0.0335,0.0906,0,0,90.0*
1,1,0.0335,0.0285,0.0167*
1,1,0.0335,0.0285,-0.0167*
1,1,0.0335,-0.0285,-0.0167*
1,1,0.0335,-0.0285,0.0167*
%
%ADD19ROUNDEDRECTD19*%
%ADD20O,0.0906X0.0669*%
%ADD21O,0.0669X0.0906*%
G36*
X5425Y18000D02*
X5575Y17851D01*
X5555Y17804D01*
X2459D01*
Y15845D01*
X5906D01*
Y14655D01*
X4959D01*
X4949Y14705D01*
X4993Y14723D01*
X5105Y14809D01*
X5190Y14920D01*
X5244Y15050D01*
X5262Y15189D01*
X5244Y15328D01*
X5190Y15458D01*
X5105Y15569D01*
X4993Y15655D01*
X4864Y15708D01*
X4724Y15727D01*
X4585Y15708D01*
X4456Y15655D01*
X4344Y15569D01*
X4259Y15458D01*
X4205Y15328D01*
X4187Y15189D01*
X4205Y15050D01*
X4259Y14920D01*
X4344Y14809D01*
X4456Y14723D01*
X4500Y14705D01*
X4490Y14655D01*
X3581D01*
X3571Y14705D01*
X3615Y14723D01*
X3727Y14809D01*
X3812Y14920D01*
X3866Y15050D01*
X3884Y15189D01*
X3866Y15328D01*
X3812Y15458D01*
X3727Y15569D01*
X3615Y15655D01*
X3486Y15708D01*
X3346Y15727D01*
X3207Y15708D01*
X3078Y15655D01*
X2966Y15569D01*
X2881Y15458D01*
X2827Y15328D01*
X2809Y15189D01*
X2827Y15050D01*
X2881Y14920D01*
X2966Y14809D01*
X3078Y14723D01*
X3122Y14705D01*
X3112Y14655D01*
X2656D01*
Y12695D01*
X5906D01*
Y12402D01*
X6890Y11417D01*
Y-984D01*
X5906Y-1969D01*
Y-3000D01*
X-21000D01*
X-21500Y-2500D01*
Y7800D01*
Y17500D01*
X-21000Y18000D01*
X5425Y18000D01*
D02*
G37*
%LPC*%
G36*
X-15548Y17550D02*
Y17050D01*
X-15160D01*
Y17118D01*
X-15175Y17232D01*
X-15219Y17337D01*
X-15288Y17428D01*
X-15379Y17498D01*
X-15485Y17542D01*
X-15548Y17550D01*
D02*
G37*
G36*
X-15648Y17550D02*
X-15712Y17542D01*
X-15818Y17498D01*
X-15908Y17428D01*
X-15978Y17337D01*
X-16022Y17232D01*
X-16037Y17118D01*
Y17050D01*
X-15648D01*
Y17550D01*
D02*
G37*
G36*
X-15160Y16950D02*
X-15548D01*
Y16450D01*
X-15485Y16458D01*
X-15379Y16502D01*
X-15288Y16572D01*
X-15219Y16663D01*
X-15175Y16768D01*
X-15160Y16882D01*
Y16950D01*
D02*
G37*
G36*
X-15648D02*
X-16037D01*
Y16882D01*
X-16022Y16768D01*
X-15978Y16663D01*
X-15908Y16572D01*
X-15818Y16502D01*
X-15712Y16458D01*
X-15648Y16450D01*
Y16950D01*
D02*
G37*
G36*
X-1000Y17557D02*
X-1113Y17542D01*
X-1219Y17498D01*
X-1310Y17428D01*
X-1380Y17337D01*
X-1423Y17232D01*
X-1438Y17118D01*
Y16882D01*
X-1423Y16768D01*
X-1380Y16663D01*
X-1310Y16572D01*
X-1219Y16502D01*
X-1113Y16458D01*
X-1000Y16443D01*
X-887Y16458D01*
X-781Y16502D01*
X-690Y16572D01*
X-620Y16663D01*
X-577Y16768D01*
X-562Y16882D01*
Y17118D01*
X-577Y17232D01*
X-620Y17337D01*
X-690Y17428D01*
X-781Y17498D01*
X-887Y17542D01*
X-1000Y17557D01*
D02*
G37*
G36*
X-2000D02*
X-2113Y17542D01*
X-2219Y17498D01*
X-2310Y17428D01*
X-2380Y17337D01*
X-2423Y17232D01*
X-2438Y17118D01*
Y16882D01*
X-2423Y16768D01*
X-2380Y16663D01*
X-2310Y16572D01*
X-2219Y16502D01*
X-2113Y16458D01*
X-2000Y16443D01*
X-1887Y16458D01*
X-1781Y16502D01*
X-1690Y16572D01*
X-1620Y16663D01*
X-1577Y16768D01*
X-1562Y16882D01*
Y17118D01*
X-1577Y17232D01*
X-1620Y17337D01*
X-1690Y17428D01*
X-1781Y17498D01*
X-1887Y17542D01*
X-2000Y17557D01*
D02*
G37*
G36*
X-3000D02*
X-3113Y17542D01*
X-3219Y17498D01*
X-3310Y17428D01*
X-3380Y17337D01*
X-3423Y17232D01*
X-3438Y17118D01*
Y16882D01*
X-3423Y16768D01*
X-3416Y16752D01*
X-4415Y15753D01*
X-12449D01*
X-12526Y15738D01*
X-12592Y15694D01*
X-14843Y13443D01*
X-14887Y13377D01*
X-14902Y13300D01*
Y12927D01*
X-14932Y12923D01*
X-15037Y12880D01*
X-15128Y12810D01*
X-15198Y12719D01*
X-15242Y12613D01*
X-15257Y12500D01*
X-15242Y12387D01*
X-15198Y12281D01*
X-15128Y12190D01*
X-15037Y12120D01*
X-14932Y12077D01*
X-14818Y12062D01*
X-14582D01*
X-14468Y12077D01*
X-14363Y12120D01*
X-14272Y12190D01*
X-14202Y12281D01*
X-14158Y12387D01*
X-14143Y12500D01*
X-14158Y12613D01*
X-14202Y12719D01*
X-14272Y12810D01*
X-14363Y12880D01*
X-14468Y12923D01*
X-14498Y12927D01*
Y13216D01*
X-12365Y15349D01*
X-11408D01*
X-11398Y15299D01*
X-11489Y15261D01*
X-11601Y15175D01*
X-11686Y15064D01*
X-11740Y14934D01*
X-11758Y14795D01*
X-11740Y14656D01*
X-11686Y14526D01*
X-11601Y14415D01*
X-11489Y14330D01*
X-11360Y14276D01*
X-11220Y14258D01*
X-11081Y14276D01*
X-10952Y14330D01*
X-10840Y14415D01*
X-10755Y14526D01*
X-10701Y14656D01*
X-10683Y14795D01*
X-10701Y14934D01*
X-10755Y15064D01*
X-10840Y15175D01*
X-10952Y15261D01*
X-11043Y15299D01*
X-11033Y15349D01*
X-9636D01*
X-9626Y15299D01*
X-9718Y15261D01*
X-9829Y15175D01*
X-9914Y15064D01*
X-9968Y14934D01*
X-9986Y14795D01*
X-9968Y14656D01*
X-9914Y14526D01*
X-9829Y14415D01*
X-9718Y14330D01*
X-9588Y14276D01*
X-9449Y14258D01*
X-9310Y14276D01*
X-9180Y14330D01*
X-9069Y14415D01*
X-8983Y14526D01*
X-8929Y14656D01*
X-8911Y14795D01*
X-8929Y14934D01*
X-8983Y15064D01*
X-9069Y15175D01*
X-9180Y15261D01*
X-9272Y15299D01*
X-9262Y15349D01*
X-8125D01*
X-8122Y15299D01*
X-8131Y15298D01*
X-8242Y15283D01*
X-8371Y15229D01*
X-8483Y15144D01*
X-8568Y15033D01*
X-8622Y14903D01*
X-8640Y14764D01*
X-8622Y14625D01*
X-8568Y14495D01*
X-8483Y14384D01*
X-8371Y14298D01*
X-8242Y14244D01*
X-8102Y14226D01*
X-7963Y14244D01*
X-7834Y14298D01*
X-7722Y14384D01*
X-7637Y14495D01*
X-7583Y14625D01*
X-7565Y14764D01*
X-7583Y14903D01*
X-7637Y15033D01*
X-7722Y15144D01*
X-7834Y15229D01*
X-7963Y15283D01*
X-8074Y15298D01*
X-8083Y15299D01*
X-8079Y15349D01*
X-4331D01*
X-4253Y15364D01*
X-4188Y15408D01*
X-3130Y16465D01*
X-3113Y16458D01*
X-3000Y16443D01*
X-2887Y16458D01*
X-2781Y16502D01*
X-2690Y16572D01*
X-2620Y16663D01*
X-2577Y16768D01*
X-2562Y16882D01*
Y17118D01*
X-2577Y17232D01*
X-2620Y17337D01*
X-2690Y17428D01*
X-2781Y17498D01*
X-2887Y17542D01*
X-3000Y17557D01*
D02*
G37*
G36*
X-4000D02*
X-4113Y17542D01*
X-4219Y17498D01*
X-4310Y17428D01*
X-4380Y17337D01*
X-4423Y17232D01*
X-4438Y17118D01*
Y16882D01*
X-4423Y16768D01*
X-4380Y16663D01*
X-4310Y16572D01*
X-4219Y16502D01*
X-4113Y16458D01*
X-4000Y16443D01*
X-3887Y16458D01*
X-3781Y16502D01*
X-3690Y16572D01*
X-3620Y16663D01*
X-3577Y16768D01*
X-3562Y16882D01*
Y17118D01*
X-3577Y17232D01*
X-3620Y17337D01*
X-3690Y17428D01*
X-3781Y17498D01*
X-3887Y17542D01*
X-4000Y17557D01*
D02*
G37*
G36*
X-5000D02*
X-5113Y17542D01*
X-5219Y17498D01*
X-5310Y17428D01*
X-5380Y17337D01*
X-5423Y17232D01*
X-5438Y17118D01*
Y16882D01*
X-5423Y16768D01*
X-5416Y16752D01*
X-5824Y16344D01*
X-12858D01*
X-12936Y16329D01*
X-13001Y16285D01*
X-16584Y12702D01*
X-17295D01*
X-17302Y12719D01*
X-17372Y12810D01*
X-17414Y12842D01*
X-17397Y12892D01*
X-16617D01*
Y13892D01*
X-17817D01*
Y12938D01*
X-17918D01*
X-18032Y12923D01*
X-18137Y12880D01*
X-18228Y12810D01*
X-18298Y12719D01*
X-18342Y12613D01*
X-18357Y12500D01*
X-18342Y12387D01*
X-18298Y12281D01*
X-18228Y12190D01*
X-18137Y12120D01*
X-18032Y12077D01*
X-17918Y12062D01*
X-17682D01*
X-17568Y12077D01*
X-17463Y12120D01*
X-17372Y12190D01*
X-17302Y12281D01*
X-17295Y12298D01*
X-16500D01*
X-16423Y12313D01*
X-16357Y12357D01*
X-12774Y15939D01*
X-5740D01*
X-5663Y15955D01*
X-5597Y15999D01*
X-5130Y16465D01*
X-5113Y16458D01*
X-5000Y16443D01*
X-4887Y16458D01*
X-4781Y16502D01*
X-4690Y16572D01*
X-4620Y16663D01*
X-4577Y16768D01*
X-4562Y16882D01*
Y17118D01*
X-4577Y17232D01*
X-4620Y17337D01*
X-4690Y17428D01*
X-4781Y17498D01*
X-4887Y17542D01*
X-5000Y17557D01*
D02*
G37*
G36*
X-6000D02*
X-6113Y17542D01*
X-6219Y17498D01*
X-6310Y17428D01*
X-6380Y17337D01*
X-6423Y17232D01*
X-6438Y17118D01*
Y16882D01*
X-6423Y16768D01*
X-6380Y16663D01*
X-6310Y16572D01*
X-6219Y16502D01*
X-6113Y16458D01*
X-6000Y16443D01*
X-5887Y16458D01*
X-5781Y16502D01*
X-5690Y16572D01*
X-5620Y16663D01*
X-5577Y16768D01*
X-5562Y16882D01*
Y17118D01*
X-5577Y17232D01*
X-5620Y17337D01*
X-5690Y17428D01*
X-5781Y17498D01*
X-5887Y17542D01*
X-6000Y17557D01*
D02*
G37*
G36*
X-7000D02*
X-7113Y17542D01*
X-7219Y17498D01*
X-7310Y17428D01*
X-7380Y17337D01*
X-7423Y17232D01*
X-7438Y17118D01*
Y16882D01*
X-7423Y16768D01*
X-7380Y16663D01*
X-7310Y16572D01*
X-7219Y16502D01*
X-7113Y16458D01*
X-7000Y16443D01*
X-6887Y16458D01*
X-6781Y16502D01*
X-6690Y16572D01*
X-6620Y16663D01*
X-6577Y16768D01*
X-6562Y16882D01*
Y17118D01*
X-6577Y17232D01*
X-6620Y17337D01*
X-6690Y17428D01*
X-6781Y17498D01*
X-6887Y17542D01*
X-7000Y17557D01*
D02*
G37*
G36*
X-8000D02*
X-8113Y17542D01*
X-8219Y17498D01*
X-8310Y17428D01*
X-8380Y17337D01*
X-8423Y17232D01*
X-8438Y17118D01*
Y16882D01*
X-8423Y16768D01*
X-8380Y16663D01*
X-8310Y16572D01*
X-8219Y16502D01*
X-8113Y16458D01*
X-8000Y16443D01*
X-7887Y16458D01*
X-7781Y16502D01*
X-7690Y16572D01*
X-7620Y16663D01*
X-7577Y16768D01*
X-7562Y16882D01*
Y17118D01*
X-7577Y17232D01*
X-7620Y17337D01*
X-7690Y17428D01*
X-7781Y17498D01*
X-7887Y17542D01*
X-8000Y17557D01*
D02*
G37*
G36*
X-9500D02*
X-9613Y17542D01*
X-9719Y17498D01*
X-9810Y17428D01*
X-9880Y17337D01*
X-9923Y17232D01*
X-9938Y17118D01*
Y16882D01*
X-9923Y16768D01*
X-9880Y16663D01*
X-9810Y16572D01*
X-9719Y16502D01*
X-9613Y16458D01*
X-9500Y16443D01*
X-9387Y16458D01*
X-9281Y16502D01*
X-9190Y16572D01*
X-9120Y16663D01*
X-9077Y16768D01*
X-9062Y16882D01*
Y17118D01*
X-9077Y17232D01*
X-9120Y17337D01*
X-9190Y17428D01*
X-9281Y17498D01*
X-9387Y17542D01*
X-9500Y17557D01*
D02*
G37*
G36*
X-10500D02*
X-10613Y17542D01*
X-10719Y17498D01*
X-10810Y17428D01*
X-10880Y17337D01*
X-10923Y17232D01*
X-10938Y17118D01*
Y16882D01*
X-10923Y16768D01*
X-10880Y16663D01*
X-10810Y16572D01*
X-10719Y16502D01*
X-10613Y16458D01*
X-10500Y16443D01*
X-10387Y16458D01*
X-10281Y16502D01*
X-10190Y16572D01*
X-10120Y16663D01*
X-10077Y16768D01*
X-10062Y16882D01*
Y17118D01*
X-10077Y17232D01*
X-10120Y17337D01*
X-10190Y17428D01*
X-10281Y17498D01*
X-10387Y17542D01*
X-10500Y17557D01*
D02*
G37*
G36*
X-11500D02*
X-11613Y17542D01*
X-11719Y17498D01*
X-11810Y17428D01*
X-11880Y17337D01*
X-11923Y17232D01*
X-11938Y17118D01*
Y16882D01*
X-11923Y16768D01*
X-11880Y16663D01*
X-11810Y16572D01*
X-11719Y16502D01*
X-11613Y16458D01*
X-11500Y16443D01*
X-11387Y16458D01*
X-11281Y16502D01*
X-11190Y16572D01*
X-11120Y16663D01*
X-11077Y16768D01*
X-11062Y16882D01*
Y17118D01*
X-11077Y17232D01*
X-11120Y17337D01*
X-11190Y17428D01*
X-11281Y17498D01*
X-11387Y17542D01*
X-11500Y17557D01*
D02*
G37*
G36*
X-12500D02*
X-12613Y17542D01*
X-12719Y17498D01*
X-12810Y17428D01*
X-12880Y17337D01*
X-12923Y17232D01*
X-12938Y17118D01*
Y16882D01*
X-12923Y16768D01*
X-12880Y16663D01*
X-12810Y16572D01*
X-12719Y16502D01*
X-12613Y16458D01*
X-12500Y16443D01*
X-12387Y16458D01*
X-12281Y16502D01*
X-12190Y16572D01*
X-12120Y16663D01*
X-12077Y16768D01*
X-12062Y16882D01*
Y17118D01*
X-12077Y17232D01*
X-12120Y17337D01*
X-12190Y17428D01*
X-12281Y17498D01*
X-12387Y17542D01*
X-12500Y17557D01*
D02*
G37*
G36*
X-13500D02*
X-13613Y17542D01*
X-13719Y17498D01*
X-13810Y17428D01*
X-13880Y17337D01*
X-13923Y17232D01*
X-13938Y17118D01*
Y16882D01*
X-13923Y16768D01*
X-13916Y16752D01*
X-15397Y15271D01*
X-18034D01*
X-18111Y15255D01*
X-18177Y15211D01*
X-19086Y14303D01*
X-19152Y14330D01*
X-19291Y14349D01*
X-19431Y14330D01*
X-19560Y14277D01*
X-19672Y14191D01*
X-19757Y14080D01*
X-19811Y13950D01*
X-19829Y13811D01*
X-19811Y13672D01*
X-19757Y13542D01*
X-19672Y13431D01*
X-19560Y13345D01*
X-19431Y13292D01*
X-19291Y13273D01*
X-19152Y13292D01*
X-19023Y13345D01*
X-18911Y13431D01*
X-18826Y13542D01*
X-18772Y13672D01*
X-18754Y13811D01*
X-18772Y13950D01*
X-18800Y14017D01*
X-17950Y14866D01*
X-15313D01*
X-15236Y14882D01*
X-15170Y14925D01*
X-13630Y16465D01*
X-13613Y16458D01*
X-13500Y16443D01*
X-13387Y16458D01*
X-13281Y16502D01*
X-13190Y16572D01*
X-13120Y16663D01*
X-13077Y16768D01*
X-13062Y16882D01*
Y17118D01*
X-13077Y17232D01*
X-13120Y17337D01*
X-13190Y17428D01*
X-13281Y17498D01*
X-13387Y17542D01*
X-13500Y17557D01*
D02*
G37*
G36*
X-14500D02*
X-14613Y17542D01*
X-14719Y17498D01*
X-14810Y17428D01*
X-14880Y17337D01*
X-14923Y17232D01*
X-14938Y17118D01*
Y16882D01*
X-14923Y16768D01*
X-14916Y16752D01*
X-15718Y15950D01*
X-18732D01*
X-18810Y15935D01*
X-18875Y15891D01*
X-20464Y14303D01*
X-20530Y14330D01*
X-20669Y14349D01*
X-20808Y14330D01*
X-20938Y14277D01*
X-21049Y14191D01*
X-21135Y14080D01*
X-21189Y13950D01*
X-21207Y13811D01*
X-21189Y13672D01*
X-21135Y13542D01*
X-21049Y13431D01*
X-20938Y13345D01*
X-20808Y13292D01*
X-20669Y13273D01*
X-20530Y13292D01*
X-20400Y13345D01*
X-20289Y13431D01*
X-20204Y13542D01*
X-20150Y13672D01*
X-20132Y13811D01*
X-20150Y13950D01*
X-20178Y14017D01*
X-18648Y15546D01*
X-15634D01*
X-15556Y15561D01*
X-15491Y15605D01*
X-14630Y16465D01*
X-14613Y16458D01*
X-14500Y16443D01*
X-14387Y16458D01*
X-14281Y16502D01*
X-14190Y16572D01*
X-14120Y16663D01*
X-14077Y16768D01*
X-14062Y16882D01*
Y17118D01*
X-14077Y17232D01*
X-14120Y17337D01*
X-14190Y17428D01*
X-14281Y17498D01*
X-14387Y17542D01*
X-14500Y17557D01*
D02*
G37*
G36*
X-16600D02*
X-16713Y17542D01*
X-16819Y17498D01*
X-16910Y17428D01*
X-16980Y17337D01*
X-17023Y17232D01*
X-17038Y17118D01*
Y16882D01*
X-17023Y16768D01*
X-16980Y16663D01*
X-16910Y16572D01*
X-16819Y16502D01*
X-16713Y16458D01*
X-16600Y16443D01*
X-16487Y16458D01*
X-16381Y16502D01*
X-16290Y16572D01*
X-16220Y16663D01*
X-16177Y16768D01*
X-16162Y16882D01*
Y17118D01*
X-16177Y17232D01*
X-16220Y17337D01*
X-16290Y17428D01*
X-16381Y17498D01*
X-16487Y17542D01*
X-16600Y17557D01*
D02*
G37*
G36*
X-17600D02*
X-17713Y17542D01*
X-17819Y17498D01*
X-17910Y17428D01*
X-17980Y17337D01*
X-18023Y17232D01*
X-18038Y17118D01*
Y16882D01*
X-18023Y16768D01*
X-17980Y16663D01*
X-17910Y16572D01*
X-17819Y16502D01*
X-17713Y16458D01*
X-17600Y16443D01*
X-17487Y16458D01*
X-17381Y16502D01*
X-17290Y16572D01*
X-17220Y16663D01*
X-17177Y16768D01*
X-17162Y16882D01*
Y17118D01*
X-17177Y17232D01*
X-17220Y17337D01*
X-17290Y17428D01*
X-17381Y17498D01*
X-17487Y17542D01*
X-17600Y17557D01*
D02*
G37*
G36*
X-18600D02*
X-18713Y17542D01*
X-18819Y17498D01*
X-18910Y17428D01*
X-18980Y17337D01*
X-19023Y17232D01*
X-19038Y17118D01*
Y16882D01*
X-19023Y16768D01*
X-18980Y16663D01*
X-18910Y16572D01*
X-18819Y16502D01*
X-18713Y16458D01*
X-18600Y16443D01*
X-18487Y16458D01*
X-18381Y16502D01*
X-18290Y16572D01*
X-18220Y16663D01*
X-18177Y16768D01*
X-18162Y16882D01*
Y17118D01*
X-18177Y17232D01*
X-18220Y17337D01*
X-18290Y17428D01*
X-18381Y17498D01*
X-18487Y17542D01*
X-18600Y17557D01*
D02*
G37*
G36*
X-19938Y17727D02*
X-20062D01*
X-20071Y17725D01*
X-20081D01*
X-20202Y17701D01*
X-20211Y17697D01*
X-20221Y17695D01*
X-20335Y17648D01*
X-20343Y17642D01*
X-20353Y17639D01*
X-20455Y17570D01*
X-20462Y17563D01*
X-20471Y17558D01*
X-20558Y17471D01*
X-20563Y17462D01*
X-20570Y17455D01*
X-20639Y17353D01*
X-20642Y17343D01*
X-20648Y17335D01*
X-20695Y17221D01*
X-20697Y17211D01*
X-20701Y17202D01*
X-20725Y17081D01*
Y17071D01*
X-20727Y17062D01*
Y16938D01*
X-20725Y16929D01*
Y16919D01*
X-20701Y16798D01*
X-20697Y16789D01*
X-20695Y16779D01*
X-20648Y16665D01*
X-20642Y16657D01*
X-20639Y16647D01*
X-20570Y16545D01*
X-20563Y16538D01*
X-20558Y16529D01*
X-20471Y16442D01*
X-20462Y16437D01*
X-20455Y16430D01*
X-20353Y16361D01*
X-20343Y16358D01*
X-20335Y16352D01*
X-20221Y16305D01*
X-20211Y16303D01*
X-20202Y16299D01*
X-20081Y16275D01*
X-20071D01*
X-20062Y16273D01*
X-19938D01*
X-19929Y16275D01*
X-19919D01*
X-19798Y16299D01*
X-19789Y16303D01*
X-19779Y16305D01*
X-19665Y16352D01*
X-19657Y16358D01*
X-19647Y16361D01*
X-19545Y16430D01*
X-19538Y16437D01*
X-19529Y16442D01*
X-19442Y16529D01*
X-19437Y16538D01*
X-19430Y16545D01*
X-19361Y16647D01*
X-19358Y16657D01*
X-19352Y16665D01*
X-19305Y16779D01*
X-19303Y16789D01*
X-19299Y16798D01*
X-19275Y16919D01*
Y16929D01*
X-19273Y16938D01*
Y17062D01*
X-19275Y17071D01*
Y17081D01*
X-19299Y17202D01*
X-19303Y17211D01*
X-19305Y17221D01*
X-19352Y17335D01*
X-19358Y17343D01*
X-19361Y17353D01*
X-19430Y17455D01*
X-19437Y17462D01*
X-19442Y17471D01*
X-19529Y17558D01*
X-19538Y17563D01*
X-19545Y17570D01*
X-19647Y17639D01*
X-19657Y17642D01*
X-19665Y17648D01*
X-19779Y17695D01*
X-19789Y17697D01*
X-19798Y17701D01*
X-19919Y17725D01*
X-19929D01*
X-19938Y17727D01*
D02*
G37*
G36*
X1250Y17433D02*
X1112D01*
X986Y17416D01*
X868Y17368D01*
X767Y17290D01*
X690Y17189D01*
X641Y17071D01*
X624Y16945D01*
X641Y16819D01*
X690Y16701D01*
X767Y16600D01*
X868Y16522D01*
X967Y16481D01*
X957Y16431D01*
X920D01*
X844Y16421D01*
X773Y16392D01*
X712Y16345D01*
X665Y16284D01*
X636Y16213D01*
X626Y16137D01*
Y15753D01*
X636Y15677D01*
X665Y15606D01*
X712Y15545D01*
X773Y15498D01*
X844Y15469D01*
X920Y15459D01*
X1442D01*
X1518Y15469D01*
X1589Y15498D01*
X1650Y15545D01*
X1697Y15606D01*
X1726Y15677D01*
X1736Y15753D01*
Y16137D01*
X1726Y16213D01*
X1697Y16284D01*
X1650Y16345D01*
X1589Y16392D01*
X1518Y16421D01*
X1442Y16431D01*
X1405D01*
X1395Y16481D01*
X1494Y16522D01*
X1595Y16600D01*
X1673Y16701D01*
X1721Y16819D01*
X1738Y16945D01*
X1721Y17071D01*
X1673Y17189D01*
X1595Y17290D01*
X1494Y17368D01*
X1376Y17416D01*
X1250Y17433D01*
D02*
G37*
G36*
X-1181Y15333D02*
X-1320Y15315D01*
X-1450Y15261D01*
X-1561Y15175D01*
X-1647Y15064D01*
X-1700Y14934D01*
X-1719Y14795D01*
X-1700Y14656D01*
X-1647Y14526D01*
X-1561Y14415D01*
X-1450Y14330D01*
X-1320Y14276D01*
X-1181Y14258D01*
X-1042Y14276D01*
X-912Y14330D01*
X-801Y14415D01*
X-715Y14526D01*
X-662Y14656D01*
X-643Y14795D01*
X-662Y14934D01*
X-715Y15064D01*
X-801Y15175D01*
X-912Y15261D01*
X-1042Y15315D01*
X-1181Y15333D01*
D02*
G37*
G36*
X-2559D02*
X-2698Y15315D01*
X-2828Y15261D01*
X-2939Y15175D01*
X-3025Y15064D01*
X-3078Y14934D01*
X-3097Y14795D01*
X-3078Y14656D01*
X-3025Y14526D01*
X-2939Y14415D01*
X-2828Y14330D01*
X-2698Y14276D01*
X-2559Y14258D01*
X-2420Y14276D01*
X-2290Y14330D01*
X-2179Y14415D01*
X-2093Y14526D01*
X-2040Y14656D01*
X-2021Y14795D01*
X-2040Y14934D01*
X-2093Y15064D01*
X-2179Y15175D01*
X-2290Y15261D01*
X-2420Y15315D01*
X-2559Y15333D01*
D02*
G37*
G36*
X-4102Y15301D02*
X-4242Y15283D01*
X-4371Y15229D01*
X-4483Y15144D01*
X-4568Y15033D01*
X-4622Y14903D01*
X-4640Y14764D01*
X-4622Y14625D01*
X-4568Y14495D01*
X-4483Y14384D01*
X-4371Y14298D01*
X-4242Y14244D01*
X-4102Y14226D01*
X-3963Y14244D01*
X-3834Y14298D01*
X-3722Y14384D01*
X-3637Y14495D01*
X-3583Y14625D01*
X-3565Y14764D01*
X-3583Y14903D01*
X-3637Y15033D01*
X-3722Y15144D01*
X-3834Y15229D01*
X-3963Y15283D01*
X-4102Y15301D01*
D02*
G37*
G36*
Y14120D02*
X-4242Y14102D01*
X-4371Y14048D01*
X-4483Y13963D01*
X-4568Y13852D01*
X-4622Y13722D01*
X-4640Y13583D01*
X-4622Y13444D01*
X-4568Y13314D01*
X-4483Y13202D01*
X-4371Y13117D01*
X-4242Y13063D01*
X-4102Y13045D01*
X-3963Y13063D01*
X-3834Y13117D01*
X-3722Y13202D01*
X-3637Y13314D01*
X-3583Y13444D01*
X-3565Y13583D01*
X-3583Y13722D01*
X-3637Y13852D01*
X-3722Y13963D01*
X-3834Y14048D01*
X-3963Y14102D01*
X-4102Y14120D01*
D02*
G37*
G36*
X-8102D02*
X-8242Y14102D01*
X-8371Y14048D01*
X-8483Y13963D01*
X-8568Y13852D01*
X-8622Y13722D01*
X-8640Y13583D01*
X-8622Y13444D01*
X-8568Y13314D01*
X-8483Y13202D01*
X-8371Y13117D01*
X-8242Y13063D01*
X-8102Y13045D01*
X-7963Y13063D01*
X-7834Y13117D01*
X-7722Y13202D01*
X-7637Y13314D01*
X-7583Y13444D01*
X-7565Y13583D01*
X-7583Y13722D01*
X-7637Y13852D01*
X-7722Y13963D01*
X-7834Y14048D01*
X-7963Y14102D01*
X-8102Y14120D01*
D02*
G37*
G36*
X1250Y14480D02*
X1112D01*
X986Y14464D01*
X868Y14415D01*
X767Y14337D01*
X690Y14236D01*
X641Y14118D01*
X624Y13992D01*
X641Y13866D01*
X690Y13748D01*
X767Y13647D01*
X868Y13569D01*
X967Y13528D01*
X957Y13478D01*
X920D01*
X844Y13468D01*
X773Y13439D01*
X712Y13392D01*
X665Y13331D01*
X636Y13260D01*
X626Y13184D01*
Y12800D01*
X636Y12724D01*
X665Y12653D01*
X712Y12592D01*
X773Y12545D01*
X844Y12516D01*
X920Y12506D01*
X1442D01*
X1518Y12516D01*
X1589Y12545D01*
X1650Y12592D01*
X1697Y12653D01*
X1726Y12724D01*
X1736Y12800D01*
Y13184D01*
X1726Y13260D01*
X1697Y13331D01*
X1650Y13392D01*
X1589Y13439D01*
X1518Y13468D01*
X1442Y13478D01*
X1405D01*
X1395Y13528D01*
X1494Y13569D01*
X1595Y13647D01*
X1673Y13748D01*
X1721Y13866D01*
X1738Y13992D01*
X1721Y14118D01*
X1673Y14236D01*
X1595Y14337D01*
X1494Y14415D01*
X1376Y14464D01*
X1250Y14480D01*
D02*
G37*
G36*
X-14582Y11938D02*
X-14818D01*
X-14932Y11923D01*
X-15037Y11880D01*
X-15128Y11810D01*
X-15198Y11719D01*
X-15205Y11702D01*
X-17295D01*
X-17302Y11719D01*
X-17372Y11810D01*
X-17463Y11880D01*
X-17568Y11923D01*
X-17682Y11938D01*
X-17918D01*
X-18032Y11923D01*
X-18137Y11880D01*
X-18228Y11810D01*
X-18298Y11719D01*
X-18342Y11613D01*
X-18357Y11500D01*
X-18342Y11387D01*
X-18298Y11281D01*
X-18228Y11190D01*
X-18137Y11120D01*
X-18032Y11077D01*
X-17918Y11062D01*
X-17682D01*
X-17568Y11077D01*
X-17463Y11120D01*
X-17372Y11190D01*
X-17302Y11281D01*
X-17295Y11298D01*
X-15205D01*
X-15198Y11281D01*
X-15128Y11190D01*
X-15037Y11120D01*
X-14932Y11077D01*
X-14818Y11062D01*
X-14582D01*
X-14468Y11077D01*
X-14363Y11120D01*
X-14272Y11190D01*
X-14202Y11281D01*
X-14158Y11387D01*
X-14143Y11500D01*
X-14158Y11613D01*
X-14202Y11719D01*
X-14272Y11810D01*
X-14363Y11880D01*
X-14468Y11923D01*
X-14582Y11938D01*
D02*
G37*
G36*
X-4052Y11336D02*
Y10855D01*
X-3571D01*
X-3583Y10944D01*
X-3637Y11074D01*
X-3722Y11185D01*
X-3834Y11271D01*
X-3963Y11325D01*
X-4052Y11336D01*
D02*
G37*
G36*
X-4152D02*
X-4242Y11325D01*
X-4371Y11271D01*
X-4483Y11185D01*
X-4568Y11074D01*
X-4622Y10944D01*
X-4633Y10855D01*
X-4152D01*
Y11336D01*
D02*
G37*
G36*
X-2509Y11326D02*
Y10845D01*
X-2028D01*
X-2040Y10934D01*
X-2093Y11064D01*
X-2179Y11175D01*
X-2290Y11261D01*
X-2420Y11315D01*
X-2509Y11326D01*
D02*
G37*
G36*
X-2609D02*
X-2698Y11315D01*
X-2828Y11261D01*
X-2939Y11175D01*
X-3025Y11064D01*
X-3078Y10934D01*
X-3090Y10845D01*
X-2609D01*
Y11326D01*
D02*
G37*
G36*
X-1231D02*
X-1320Y11315D01*
X-1450Y11261D01*
X-1561Y11175D01*
X-1647Y11064D01*
X-1700Y10934D01*
X-1712Y10845D01*
X-1231D01*
Y11326D01*
D02*
G37*
G36*
X4724Y11727D02*
X4585Y11708D01*
X4456Y11655D01*
X4344Y11569D01*
X4259Y11458D01*
X4205Y11328D01*
X4187Y11189D01*
X4205Y11050D01*
X4259Y10920D01*
X4344Y10809D01*
X4456Y10723D01*
X4585Y10670D01*
X4724Y10651D01*
X4864Y10670D01*
X4993Y10723D01*
X5105Y10809D01*
X5190Y10920D01*
X5244Y11050D01*
X5262Y11189D01*
X5244Y11328D01*
X5190Y11458D01*
X5105Y11569D01*
X4993Y11655D01*
X4864Y11708D01*
X4724Y11727D01*
D02*
G37*
G36*
X3346D02*
X3207Y11708D01*
X3078Y11655D01*
X2966Y11569D01*
X2881Y11458D01*
X2827Y11328D01*
X2809Y11189D01*
X2827Y11050D01*
X2881Y10920D01*
X2966Y10809D01*
X3078Y10723D01*
X3207Y10670D01*
X3346Y10651D01*
X3486Y10670D01*
X3615Y10723D01*
X3727Y10809D01*
X3812Y10920D01*
X3866Y11050D01*
X3884Y11189D01*
X3866Y11328D01*
X3812Y11458D01*
X3727Y11569D01*
X3615Y11655D01*
X3486Y11708D01*
X3346Y11727D01*
D02*
G37*
G36*
X-14415Y10937D02*
X-14650D01*
Y10550D01*
X-14145D01*
Y10667D01*
X-14154Y10737D01*
X-14181Y10802D01*
X-14224Y10858D01*
X-14280Y10901D01*
X-14345Y10928D01*
X-14415Y10937D01*
D02*
G37*
G36*
X-17850D02*
X-18085D01*
X-18155Y10928D01*
X-18220Y10901D01*
X-18276Y10858D01*
X-18319Y10802D01*
X-18346Y10737D01*
X-18355Y10667D01*
Y10550D01*
X-17850D01*
Y10937D01*
D02*
G37*
G36*
X-3571Y10755D02*
X-4052D01*
Y10274D01*
X-3963Y10286D01*
X-3834Y10340D01*
X-3722Y10425D01*
X-3637Y10536D01*
X-3583Y10666D01*
X-3571Y10755D01*
D02*
G37*
G36*
X-4152D02*
X-4633D01*
X-4622Y10666D01*
X-4568Y10536D01*
X-4483Y10425D01*
X-4371Y10340D01*
X-4242Y10286D01*
X-4152Y10274D01*
Y10755D01*
D02*
G37*
G36*
X-8102Y11343D02*
X-8242Y11325D01*
X-8371Y11271D01*
X-8483Y11185D01*
X-8568Y11074D01*
X-8622Y10944D01*
X-8640Y10805D01*
X-8622Y10666D01*
X-8568Y10536D01*
X-8483Y10425D01*
X-8371Y10340D01*
X-8242Y10286D01*
X-8102Y10268D01*
X-7963Y10286D01*
X-7834Y10340D01*
X-7722Y10425D01*
X-7637Y10536D01*
X-7583Y10666D01*
X-7565Y10805D01*
X-7583Y10944D01*
X-7637Y11074D01*
X-7722Y11185D01*
X-7834Y11271D01*
X-7963Y11325D01*
X-8102Y11343D01*
D02*
G37*
G36*
X-1231Y10745D02*
X-1712D01*
X-1700Y10656D01*
X-1647Y10526D01*
X-1561Y10415D01*
X-1450Y10330D01*
X-1320Y10276D01*
X-1231Y10264D01*
Y10745D01*
D02*
G37*
G36*
X-2609Y10745D02*
X-3090D01*
X-3078Y10656D01*
X-3025Y10526D01*
X-2939Y10415D01*
X-2828Y10330D01*
X-2698Y10276D01*
X-2609Y10264D01*
Y10745D01*
D02*
G37*
G36*
X-2028D02*
X-2509D01*
Y10264D01*
X-2420Y10276D01*
X-2290Y10330D01*
X-2179Y10415D01*
X-2093Y10526D01*
X-2040Y10656D01*
X-2028Y10745D01*
D02*
G37*
G36*
X-9449Y11333D02*
X-9588Y11315D01*
X-9718Y11261D01*
X-9829Y11175D01*
X-9914Y11064D01*
X-9968Y10934D01*
X-9986Y10795D01*
X-9968Y10656D01*
X-9914Y10526D01*
X-9829Y10415D01*
X-9718Y10330D01*
X-9588Y10276D01*
X-9449Y10258D01*
X-9310Y10276D01*
X-9180Y10330D01*
X-9069Y10415D01*
X-8983Y10526D01*
X-8929Y10656D01*
X-8911Y10795D01*
X-8929Y10934D01*
X-8983Y11064D01*
X-9069Y11175D01*
X-9180Y11261D01*
X-9310Y11315D01*
X-9449Y11333D01*
D02*
G37*
G36*
X-11220D02*
X-11360Y11315D01*
X-11489Y11261D01*
X-11601Y11175D01*
X-11686Y11064D01*
X-11740Y10934D01*
X-11758Y10795D01*
X-11740Y10656D01*
X-11686Y10526D01*
X-11601Y10415D01*
X-11489Y10330D01*
X-11360Y10276D01*
X-11220Y10258D01*
X-11081Y10276D01*
X-10952Y10330D01*
X-10840Y10415D01*
X-10755Y10526D01*
X-10701Y10656D01*
X-10683Y10795D01*
X-10701Y10934D01*
X-10755Y11064D01*
X-10840Y11175D01*
X-10952Y11261D01*
X-11081Y11315D01*
X-11220Y11333D01*
D02*
G37*
G36*
X-17515Y10937D02*
X-17750D01*
Y10500D01*
Y10063D01*
X-17515D01*
X-17445Y10072D01*
X-17380Y10099D01*
X-17324Y10142D01*
X-17281Y10198D01*
X-17276Y10210D01*
X-17226Y10200D01*
Y10136D01*
X-16726D01*
Y10636D01*
X-17206Y10636D01*
X-17239Y10662D01*
X-17246Y10678D01*
X-17254Y10737D01*
X-17281Y10802D01*
X-17324Y10858D01*
X-17380Y10901D01*
X-17445Y10928D01*
X-17515Y10937D01*
D02*
G37*
G36*
X-14145Y10450D02*
X-14650D01*
Y10063D01*
X-14415D01*
X-14345Y10072D01*
X-14280Y10099D01*
X-14224Y10142D01*
X-14181Y10198D01*
X-14154Y10263D01*
X-14145Y10333D01*
Y10450D01*
D02*
G37*
G36*
X-14750Y10937D02*
X-14985D01*
X-15055Y10928D01*
X-15120Y10901D01*
X-15176Y10858D01*
X-15219Y10802D01*
X-15246Y10737D01*
X-15255Y10667D01*
Y10652D01*
X-15751D01*
Y10152D01*
X-15251D01*
Y10157D01*
X-15201Y10174D01*
X-15176Y10142D01*
X-15120Y10099D01*
X-15055Y10072D01*
X-14985Y10063D01*
X-14750D01*
Y10500D01*
Y10937D01*
D02*
G37*
G36*
X-17850Y10450D02*
X-18355D01*
Y10333D01*
X-18346Y10263D01*
X-18319Y10198D01*
X-18276Y10142D01*
X-18220Y10099D01*
X-18155Y10072D01*
X-18085Y10063D01*
X-17850D01*
Y10450D01*
D02*
G37*
G36*
X-7202Y10177D02*
Y9696D01*
X-6721D01*
X-6733Y9785D01*
X-6786Y9915D01*
X-6872Y10026D01*
X-6983Y10111D01*
X-7113Y10165D01*
X-7202Y10177D01*
D02*
G37*
G36*
X-7302D02*
X-7391Y10165D01*
X-7521Y10111D01*
X-7632Y10026D01*
X-7718Y9915D01*
X-7771Y9785D01*
X-7783Y9696D01*
X-7302D01*
Y10177D01*
D02*
G37*
G36*
X-6721Y9596D02*
X-7202D01*
Y9115D01*
X-7113Y9126D01*
X-6983Y9180D01*
X-6872Y9265D01*
X-6786Y9377D01*
X-6733Y9507D01*
X-6721Y9596D01*
D02*
G37*
G36*
X-7302D02*
X-7783D01*
X-7771Y9507D01*
X-7718Y9377D01*
X-7632Y9265D01*
X-7521Y9180D01*
X-7391Y9126D01*
X-7302Y9115D01*
Y9596D01*
D02*
G37*
G36*
X-12786Y14048D02*
X-12915Y14031D01*
X-13035Y13981D01*
X-13138Y13902D01*
X-13217Y13799D01*
X-13267Y13679D01*
X-13284Y13550D01*
X-13267Y13421D01*
X-13217Y13301D01*
X-13138Y13198D01*
X-13035Y13119D01*
X-12915Y13069D01*
X-12872Y13063D01*
Y13013D01*
X-12915Y13007D01*
X-13035Y12958D01*
X-13138Y12879D01*
X-13217Y12775D01*
X-13267Y12655D01*
X-13284Y12526D01*
X-13267Y12398D01*
X-13217Y12277D01*
X-13138Y12174D01*
X-13035Y12095D01*
X-12915Y12045D01*
X-12927Y11999D01*
X-12982D01*
X-13060Y11989D01*
X-13132Y11959D01*
X-13194Y11911D01*
X-13242Y11849D01*
X-13272Y11777D01*
X-13282Y11700D01*
Y11306D01*
X-13272Y11228D01*
X-13242Y11156D01*
X-13194Y11094D01*
X-13132Y11047D01*
X-13060Y11017D01*
X-12982Y11007D01*
X-12904D01*
X-12901Y10957D01*
X-12924Y10953D01*
X-13044Y10904D01*
X-13147Y10825D01*
X-13227Y10721D01*
X-13276Y10601D01*
X-13293Y10472D01*
X-13276Y10344D01*
X-13227Y10223D01*
X-13147Y10120D01*
X-13044Y10041D01*
X-12924Y9991D01*
X-12882Y9986D01*
Y9935D01*
X-12924Y9930D01*
X-13044Y9880D01*
X-13147Y9801D01*
X-13227Y9698D01*
X-13276Y9578D01*
X-13293Y9449D01*
X-13276Y9320D01*
X-13227Y9200D01*
X-13147Y9097D01*
X-13044Y9018D01*
X-12924Y8968D01*
X-12936Y8921D01*
X-12992D01*
X-13070Y8911D01*
X-13142Y8881D01*
X-13204Y8834D01*
X-13251Y8772D01*
X-13281Y8700D01*
X-13292Y8622D01*
Y8228D01*
X-13281Y8151D01*
X-13251Y8079D01*
X-13204Y8017D01*
X-13142Y7969D01*
X-13070Y7939D01*
X-12992Y7929D01*
X-12598D01*
X-12521Y7939D01*
X-12449Y7969D01*
X-12387Y8017D01*
X-12339Y8079D01*
X-12309Y8151D01*
X-12299Y8228D01*
Y8622D01*
X-12309Y8700D01*
X-12339Y8772D01*
X-12387Y8834D01*
X-12449Y8881D01*
X-12521Y8911D01*
X-12598Y8921D01*
X-12654D01*
X-12666Y8968D01*
X-12546Y9018D01*
X-12443Y9097D01*
X-12364Y9200D01*
X-12314Y9320D01*
X-12311Y9345D01*
X-11693D01*
X-11632Y9265D01*
X-11521Y9180D01*
X-11391Y9126D01*
X-11252Y9108D01*
X-11113Y9126D01*
X-10983Y9180D01*
X-10872Y9265D01*
X-10786Y9377D01*
X-10733Y9507D01*
X-10714Y9646D01*
X-10733Y9785D01*
X-10786Y9915D01*
X-10872Y10026D01*
X-10983Y10111D01*
X-11113Y10165D01*
X-11252Y10183D01*
X-11391Y10165D01*
X-11521Y10111D01*
X-11632Y10026D01*
X-11718Y9915D01*
X-11771Y9785D01*
X-11776Y9750D01*
X-12404D01*
X-12443Y9801D01*
X-12546Y9880D01*
X-12666Y9930D01*
X-12709Y9935D01*
Y9986D01*
X-12666Y9991D01*
X-12546Y10041D01*
X-12443Y10120D01*
X-12364Y10223D01*
X-12314Y10344D01*
X-12297Y10472D01*
X-12314Y10601D01*
X-12364Y10721D01*
X-12443Y10825D01*
X-12546Y10904D01*
X-12666Y10953D01*
X-12690Y10957D01*
X-12687Y11007D01*
X-12589D01*
X-12511Y11017D01*
X-12439Y11047D01*
X-12377Y11094D01*
X-12329Y11156D01*
X-12300Y11228D01*
X-12289Y11306D01*
Y11648D01*
X-429D01*
X-413Y11598D01*
X-455Y11570D01*
X-462Y11563D01*
X-471Y11558D01*
X-558Y11471D01*
X-563Y11462D01*
X-570Y11455D01*
X-639Y11353D01*
X-642Y11343D01*
X-648Y11335D01*
X-695Y11221D01*
X-697Y11211D01*
X-701Y11202D01*
X-713Y11143D01*
X-766Y11130D01*
X-801Y11175D01*
X-912Y11261D01*
X-1042Y11315D01*
X-1131Y11326D01*
Y10795D01*
Y10264D01*
X-1042Y10276D01*
X-912Y10330D01*
X-801Y10415D01*
X-715Y10526D01*
X-678Y10616D01*
X-622Y10622D01*
X-570Y10545D01*
X-563Y10538D01*
X-558Y10529D01*
X-471Y10442D01*
X-462Y10437D01*
X-455Y10430D01*
X-353Y10361D01*
X-343Y10358D01*
X-335Y10352D01*
X-221Y10305D01*
X-211Y10303D01*
X-202Y10299D01*
X-81Y10275D01*
X-71D01*
X-62Y10273D01*
X62D01*
X71Y10275D01*
X81D01*
X202Y10299D01*
X211Y10303D01*
X221Y10305D01*
X335Y10352D01*
X343Y10358D01*
X353Y10361D01*
X455Y10430D01*
X462Y10437D01*
X471Y10442D01*
X558Y10529D01*
X563Y10538D01*
X570Y10545D01*
X639Y10647D01*
X642Y10657D01*
X648Y10665D01*
X695Y10779D01*
X697Y10789D01*
X701Y10798D01*
X725Y10919D01*
Y10929D01*
X727Y10938D01*
Y11062D01*
X725Y11071D01*
Y11081D01*
X701Y11202D01*
X697Y11211D01*
X695Y11221D01*
X648Y11335D01*
X642Y11343D01*
X639Y11353D01*
X570Y11455D01*
X563Y11462D01*
X558Y11471D01*
X471Y11558D01*
X462Y11563D01*
X455Y11570D01*
X413Y11598D01*
X429Y11648D01*
X1276D01*
X1286Y11576D01*
X1315Y11504D01*
X1363Y11442D01*
X1425Y11394D01*
X1497Y11364D01*
X1575Y11354D01*
X1631D01*
X1643Y11308D01*
X1523Y11258D01*
X1420Y11179D01*
X1340Y11076D01*
X1291Y10956D01*
X1274Y10827D01*
X1291Y10698D01*
X1340Y10578D01*
X1420Y10475D01*
X1523Y10396D01*
X1643Y10346D01*
X1685Y10340D01*
Y10290D01*
X1643Y10284D01*
X1523Y10234D01*
X1420Y10155D01*
X1340Y10052D01*
X1291Y9932D01*
X1274Y9803D01*
X1291Y9674D01*
X1340Y9554D01*
X1420Y9451D01*
X1523Y9372D01*
X1588Y9345D01*
Y9291D01*
X1503Y9255D01*
X1391Y9170D01*
X1306Y9058D01*
X1252Y8929D01*
X1241Y8840D01*
X1772D01*
X2303D01*
X2291Y8929D01*
X2237Y9058D01*
X2152Y9170D01*
X2040Y9255D01*
X1955Y9291D01*
Y9345D01*
X2021Y9372D01*
X2124Y9451D01*
X2203Y9554D01*
X2253Y9674D01*
X2270Y9803D01*
X2253Y9932D01*
X2203Y10052D01*
X2124Y10155D01*
X2021Y10234D01*
X1901Y10284D01*
X1858Y10290D01*
Y10340D01*
X1901Y10346D01*
X2021Y10396D01*
X2124Y10475D01*
X2203Y10578D01*
X2253Y10698D01*
X2270Y10827D01*
X2253Y10956D01*
X2203Y11076D01*
X2124Y11179D01*
X2021Y11258D01*
X1901Y11308D01*
X1913Y11354D01*
X1969D01*
X2046Y11364D01*
X2118Y11394D01*
X2180Y11442D01*
X2228Y11504D01*
X2258Y11576D01*
X2268Y11654D01*
Y12047D01*
X2258Y12125D01*
X2228Y12197D01*
X2180Y12259D01*
X2118Y12307D01*
X2046Y12336D01*
X1969Y12347D01*
X1575D01*
X1497Y12336D01*
X1425Y12307D01*
X1363Y12259D01*
X1315Y12197D01*
X1286Y12125D01*
X1276Y12053D01*
X-12385D01*
X-12462Y12037D01*
X-12528Y11993D01*
X-12530Y11991D01*
X-12589Y11999D01*
X-12645D01*
X-12657Y12045D01*
X-12537Y12095D01*
X-12434Y12174D01*
X-12354Y12277D01*
X-12305Y12398D01*
X-12288Y12526D01*
X-12305Y12655D01*
X-12354Y12775D01*
X-12434Y12879D01*
X-12537Y12958D01*
X-12657Y13007D01*
X-12699Y13013D01*
Y13063D01*
X-12657Y13069D01*
X-12537Y13119D01*
X-12434Y13198D01*
X-12354Y13301D01*
X-12305Y13421D01*
X-12288Y13550D01*
X-12305Y13679D01*
X-12354Y13799D01*
X-12434Y13902D01*
X-12537Y13981D01*
X-12657Y14031D01*
X-12786Y14048D01*
D02*
G37*
G36*
X3152Y9315D02*
Y8834D01*
X3633D01*
X3621Y8923D01*
X3568Y9053D01*
X3482Y9164D01*
X3371Y9250D01*
X3241Y9303D01*
X3152Y9315D01*
D02*
G37*
G36*
X3052D02*
X2963Y9303D01*
X2833Y9250D01*
X2722Y9164D01*
X2636Y9053D01*
X2583Y8923D01*
X2571Y8834D01*
X3052D01*
Y9315D01*
D02*
G37*
G36*
X2303Y8740D02*
X1822D01*
Y8258D01*
X1911Y8270D01*
X2040Y8324D01*
X2152Y8409D01*
X2237Y8521D01*
X2291Y8650D01*
X2303Y8740D01*
D02*
G37*
G36*
X1722D02*
X1241D01*
X1252Y8650D01*
X1306Y8521D01*
X1391Y8409D01*
X1503Y8324D01*
X1632Y8270D01*
X1722Y8258D01*
Y8740D01*
D02*
G37*
G36*
X3633Y8734D02*
X3152D01*
Y8253D01*
X3241Y8265D01*
X3371Y8318D01*
X3482Y8404D01*
X3568Y8515D01*
X3621Y8645D01*
X3633Y8734D01*
D02*
G37*
G36*
X3052D02*
X2571D01*
X2583Y8645D01*
X2636Y8515D01*
X2722Y8404D01*
X2833Y8318D01*
X2963Y8265D01*
X3052Y8253D01*
Y8734D01*
D02*
G37*
G36*
X-7252Y9002D02*
X-7391Y8984D01*
X-7521Y8930D01*
X-7632Y8845D01*
X-7718Y8733D01*
X-7771Y8604D01*
X-7790Y8465D01*
X-7771Y8325D01*
X-7718Y8196D01*
X-7632Y8084D01*
X-7521Y7999D01*
X-7391Y7945D01*
X-7252Y7927D01*
X-7113Y7945D01*
X-6983Y7999D01*
X-6872Y8084D01*
X-6786Y8196D01*
X-6733Y8325D01*
X-6714Y8465D01*
X-6733Y8604D01*
X-6786Y8733D01*
X-6872Y8845D01*
X-6983Y8930D01*
X-7113Y8984D01*
X-7252Y9002D01*
D02*
G37*
G36*
X-11252D02*
X-11391Y8984D01*
X-11521Y8930D01*
X-11632Y8845D01*
X-11718Y8733D01*
X-11771Y8604D01*
X-11790Y8465D01*
X-11771Y8325D01*
X-11718Y8196D01*
X-11632Y8084D01*
X-11521Y7999D01*
X-11391Y7945D01*
X-11252Y7927D01*
X-11113Y7945D01*
X-10983Y7999D01*
X-10872Y8084D01*
X-10786Y8196D01*
X-10733Y8325D01*
X-10714Y8465D01*
X-10733Y8604D01*
X-10786Y8733D01*
X-10872Y8845D01*
X-10983Y8930D01*
X-11113Y8984D01*
X-11252Y9002D01*
D02*
G37*
G36*
X-19291Y10349D02*
X-19431Y10330D01*
X-19560Y10277D01*
X-19672Y10191D01*
X-19757Y10080D01*
X-19811Y9950D01*
X-19829Y9811D01*
X-19811Y9672D01*
X-19757Y9542D01*
X-19672Y9431D01*
X-19560Y9345D01*
X-19431Y9292D01*
X-19291Y9273D01*
X-19152Y9292D01*
X-19023Y9345D01*
X-18911Y9431D01*
X-18854Y9505D01*
X-18647D01*
X-17419Y8277D01*
Y8034D01*
X-17485Y8026D01*
X-17556Y7996D01*
X-17617Y7949D01*
X-17663Y7888D01*
X-17693Y7817D01*
X-17703Y7741D01*
Y7704D01*
X-17753Y7694D01*
X-17794Y7793D01*
X-17871Y7894D01*
X-17973Y7972D01*
X-18090Y8021D01*
X-18167Y8031D01*
Y7480D01*
Y6930D01*
X-18090Y6940D01*
X-17973Y6989D01*
X-17871Y7066D01*
X-17794Y7167D01*
X-17753Y7266D01*
X-17703Y7256D01*
Y7219D01*
X-17693Y7143D01*
X-17663Y7072D01*
X-17617Y7011D01*
X-17556Y6964D01*
X-17485Y6935D01*
X-17408Y6925D01*
X-17025D01*
X-16948Y6935D01*
X-16877Y6964D01*
X-16816Y7011D01*
X-16770Y7072D01*
X-16740Y7143D01*
X-16730Y7219D01*
Y7741D01*
X-16740Y7817D01*
X-16770Y7888D01*
X-16816Y7949D01*
X-16877Y7996D01*
X-16948Y8026D01*
X-17014Y8034D01*
Y8361D01*
X-17030Y8438D01*
X-17073Y8504D01*
X-18420Y9850D01*
X-18486Y9894D01*
X-18563Y9910D01*
X-18767D01*
X-18772Y9950D01*
X-18826Y10080D01*
X-18911Y10191D01*
X-19023Y10277D01*
X-19152Y10330D01*
X-19291Y10349D01*
D02*
G37*
G36*
X-20669D02*
X-20808Y10330D01*
X-20938Y10277D01*
X-21049Y10191D01*
X-21135Y10080D01*
X-21189Y9950D01*
X-21207Y9811D01*
X-21189Y9672D01*
X-21135Y9542D01*
X-21049Y9431D01*
X-20938Y9345D01*
X-20808Y9292D01*
X-20669Y9273D01*
X-20530Y9292D01*
X-20464Y9319D01*
X-19887Y8743D01*
Y8034D01*
X-19953Y8026D01*
X-20024Y7996D01*
X-20085Y7949D01*
X-20132Y7888D01*
X-20161Y7817D01*
X-20171Y7741D01*
Y7704D01*
X-20221Y7694D01*
X-20262Y7793D01*
X-20340Y7894D01*
X-20441Y7972D01*
X-20559Y8021D01*
X-20635Y8031D01*
Y7480D01*
Y6930D01*
X-20559Y6940D01*
X-20441Y6989D01*
X-20340Y7066D01*
X-20262Y7167D01*
X-20221Y7266D01*
X-20171Y7256D01*
Y7219D01*
X-20161Y7143D01*
X-20132Y7072D01*
X-20085Y7011D01*
X-20024Y6964D01*
X-19953Y6935D01*
X-19877Y6925D01*
X-19493D01*
X-19417Y6935D01*
X-19346Y6964D01*
X-19285Y7011D01*
X-19238Y7072D01*
X-19209Y7143D01*
X-19199Y7219D01*
Y7741D01*
X-19209Y7817D01*
X-19238Y7888D01*
X-19285Y7949D01*
X-19346Y7996D01*
X-19417Y8026D01*
X-19483Y8034D01*
Y8827D01*
X-19498Y8904D01*
X-19542Y8970D01*
X-20178Y9605D01*
X-20150Y9672D01*
X-20132Y9811D01*
X-20150Y9950D01*
X-20204Y10080D01*
X-20289Y10191D01*
X-20400Y10277D01*
X-20530Y10330D01*
X-20669Y10349D01*
D02*
G37*
G36*
X-14466Y8036D02*
X-14607D01*
Y7530D01*
X-14171D01*
Y7741D01*
X-14181Y7817D01*
X-14211Y7888D01*
X-14257Y7949D01*
X-14318Y7996D01*
X-14389Y8026D01*
X-14466Y8036D01*
D02*
G37*
G36*
X-18267Y8031D02*
X-18343Y8021D01*
X-18461Y7972D01*
X-18562Y7894D01*
X-18639Y7793D01*
X-18688Y7676D01*
X-18705Y7549D01*
Y7530D01*
X-18267D01*
Y8031D01*
D02*
G37*
G36*
X-20735D02*
X-20811Y8021D01*
X-20929Y7972D01*
X-21030Y7894D01*
X-21108Y7793D01*
X-21156Y7676D01*
X-21173Y7549D01*
Y7530D01*
X-20735D01*
Y8031D01*
D02*
G37*
G36*
X5906Y10181D02*
X5512D01*
X5434Y10171D01*
X5362Y10141D01*
X5300Y10094D01*
X5253Y10032D01*
X5223Y9959D01*
X5212Y9882D01*
Y9488D01*
X5223Y9411D01*
X5253Y9338D01*
X5300Y9276D01*
X5362Y9229D01*
X5434Y9199D01*
X5512Y9189D01*
X5568D01*
X5580Y9142D01*
X5460Y9093D01*
X5357Y9014D01*
X5277Y8910D01*
X5228Y8790D01*
X5211Y8661D01*
X5228Y8533D01*
X5277Y8412D01*
X5357Y8309D01*
X5460Y8230D01*
X5580Y8180D01*
X5622Y8175D01*
Y8124D01*
X5580Y8119D01*
X5460Y8069D01*
X5357Y7990D01*
X5277Y7887D01*
X5228Y7767D01*
X5211Y7638D01*
X5228Y7509D01*
X5277Y7389D01*
X5357Y7286D01*
X5460Y7207D01*
X5580Y7157D01*
X5709Y7140D01*
X5838Y7157D01*
X5958Y7207D01*
X6061Y7286D01*
X6140Y7389D01*
X6190Y7509D01*
X6207Y7638D01*
X6190Y7767D01*
X6140Y7887D01*
X6061Y7990D01*
X5958Y8069D01*
X5838Y8119D01*
X5795Y8124D01*
Y8175D01*
X5838Y8180D01*
X5958Y8230D01*
X6061Y8309D01*
X6140Y8412D01*
X6190Y8533D01*
X6207Y8661D01*
X6190Y8790D01*
X6140Y8910D01*
X6061Y9014D01*
X5958Y9093D01*
X5838Y9142D01*
X5850Y9189D01*
X5906D01*
X5983Y9199D01*
X6055Y9229D01*
X6117Y9276D01*
X6165Y9338D01*
X6195Y9411D01*
X6205Y9488D01*
Y9882D01*
X6195Y9959D01*
X6165Y10032D01*
X6117Y10094D01*
X6055Y10141D01*
X5983Y10171D01*
X5906Y10181D01*
D02*
G37*
G36*
X-18267Y7430D02*
X-18705D01*
Y7411D01*
X-18688Y7285D01*
X-18639Y7167D01*
X-18562Y7066D01*
X-18461Y6989D01*
X-18343Y6940D01*
X-18267Y6930D01*
Y7430D01*
D02*
G37*
G36*
X-20735D02*
X-21173D01*
Y7411D01*
X-21156Y7285D01*
X-21108Y7167D01*
X-21030Y7066D01*
X-20929Y6989D01*
X-20811Y6940D01*
X-20735Y6930D01*
Y7430D01*
D02*
G37*
G36*
X-14171D02*
X-14607D01*
Y6925D01*
X-14466D01*
X-14389Y6935D01*
X-14318Y6964D01*
X-14257Y7011D01*
X-14211Y7072D01*
X-14181Y7143D01*
X-14171Y7219D01*
Y7430D01*
D02*
G37*
G36*
X-15657Y8037D02*
X-15784Y8021D01*
X-15901Y7972D01*
X-16003Y7894D01*
X-16080Y7793D01*
X-16129Y7676D01*
X-16146Y7549D01*
Y7411D01*
X-16129Y7285D01*
X-16080Y7167D01*
X-16060Y7141D01*
X-16159Y7042D01*
X-16203Y6976D01*
X-16218Y6899D01*
Y5758D01*
X-16285Y5731D01*
X-16396Y5645D01*
X-16482Y5534D01*
X-16535Y5404D01*
X-16554Y5265D01*
X-16535Y5126D01*
X-16482Y4996D01*
X-16396Y4885D01*
X-16285Y4799D01*
X-16218Y4772D01*
Y4577D01*
X-16285Y4550D01*
X-16396Y4464D01*
X-16482Y4353D01*
X-16535Y4223D01*
X-16554Y4084D01*
X-16535Y3945D01*
X-16482Y3815D01*
X-16396Y3704D01*
X-16285Y3618D01*
X-16218Y3591D01*
Y3396D01*
X-16285Y3368D01*
X-16396Y3283D01*
X-16482Y3172D01*
X-16535Y3042D01*
X-16554Y2903D01*
X-16541Y2806D01*
X-16588Y2783D01*
X-19108Y5302D01*
X-19174Y5346D01*
X-19251Y5362D01*
X-19491D01*
X-19497Y5404D01*
X-19550Y5534D01*
X-19636Y5645D01*
X-19747Y5731D01*
X-19877Y5784D01*
X-20016Y5803D01*
X-20155Y5784D01*
X-20285Y5731D01*
X-20396Y5645D01*
X-20416Y5619D01*
X-20466Y5636D01*
X-20466Y5650D01*
Y6109D01*
X-20966D01*
Y5609D01*
X-20505D01*
X-20487Y5609D01*
X-20461Y5561D01*
X-20482Y5534D01*
X-20535Y5404D01*
X-20554Y5265D01*
X-20535Y5126D01*
X-20482Y4996D01*
X-20396Y4885D01*
X-20285Y4799D01*
X-20155Y4746D01*
X-20016Y4727D01*
X-19877Y4746D01*
X-19747Y4799D01*
X-19636Y4885D01*
X-19580Y4957D01*
X-19335D01*
X-16349Y1971D01*
X-16368Y1925D01*
X-16738D01*
Y1425D01*
X-16238D01*
Y1795D01*
X-16192Y1814D01*
X-15202Y825D01*
Y701D01*
X-15268Y692D01*
X-15339Y663D01*
X-15400Y616D01*
X-15447Y555D01*
X-15476Y484D01*
X-15487Y408D01*
Y-114D01*
X-15476Y-190D01*
X-15447Y-261D01*
X-15400Y-322D01*
X-15339Y-369D01*
X-15268Y-398D01*
X-15192Y-408D01*
X-14808D01*
X-14732Y-398D01*
X-14661Y-369D01*
X-14600Y-322D01*
X-14553Y-261D01*
X-14524Y-190D01*
X-14514Y-114D01*
Y-77D01*
X-14464Y-67D01*
X-14423Y-166D01*
X-14345Y-267D01*
X-14244Y-345D01*
X-14126Y-393D01*
X-14050Y-404D01*
Y147D01*
Y697D01*
X-14126Y687D01*
X-14244Y638D01*
X-14345Y561D01*
X-14423Y460D01*
X-14464Y361D01*
X-14514Y371D01*
Y408D01*
X-14524Y484D01*
X-14553Y555D01*
X-14600Y616D01*
X-14661Y663D01*
X-14732Y692D01*
X-14798Y701D01*
Y908D01*
X-14813Y986D01*
X-14857Y1052D01*
X-16136Y2330D01*
X-16113Y2378D01*
X-16016Y2365D01*
X-15877Y2383D01*
X-15747Y2437D01*
X-15636Y2523D01*
X-15606Y2525D01*
X-13786Y705D01*
X-13815Y663D01*
X-13874Y687D01*
X-13950Y697D01*
Y197D01*
X-13512D01*
Y216D01*
X-13529Y342D01*
X-13553Y401D01*
X-13511Y429D01*
X-13391Y310D01*
Y-310D01*
X-14143Y-1062D01*
X-14187Y-1127D01*
X-14202Y-1205D01*
Y-1495D01*
X-14219Y-1502D01*
X-14310Y-1572D01*
X-14380Y-1663D01*
X-14423Y-1768D01*
X-14438Y-1882D01*
Y-2118D01*
X-14423Y-2232D01*
X-14380Y-2337D01*
X-14310Y-2428D01*
X-14219Y-2498D01*
X-14113Y-2542D01*
X-14000Y-2557D01*
X-13887Y-2542D01*
X-13781Y-2498D01*
X-13690Y-2428D01*
X-13620Y-2337D01*
X-13577Y-2232D01*
X-13562Y-2118D01*
Y-1882D01*
X-13577Y-1768D01*
X-13620Y-1663D01*
X-13690Y-1572D01*
X-13781Y-1502D01*
X-13798Y-1495D01*
Y-1289D01*
X-13046Y-537D01*
X-13002Y-471D01*
X-12987Y-394D01*
Y394D01*
X-13002Y471D01*
X-13046Y537D01*
X-13888Y1379D01*
X-13869Y1425D01*
X-13538D01*
Y1925D01*
X-14038D01*
Y1594D01*
X-14084Y1575D01*
X-15427Y2918D01*
X-15485Y2957D01*
X-15497Y3042D01*
X-15550Y3172D01*
X-15636Y3283D01*
X-15747Y3368D01*
X-15814Y3396D01*
Y3591D01*
X-15747Y3618D01*
X-15636Y3704D01*
X-15550Y3815D01*
X-15497Y3945D01*
X-15478Y4084D01*
X-15497Y4223D01*
X-15550Y4353D01*
X-15636Y4464D01*
X-15747Y4550D01*
X-15814Y4577D01*
Y4772D01*
X-15747Y4799D01*
X-15636Y4885D01*
X-15550Y4996D01*
X-15497Y5126D01*
X-15478Y5265D01*
X-15497Y5404D01*
X-15550Y5534D01*
X-15636Y5645D01*
X-15747Y5731D01*
X-15814Y5758D01*
Y6815D01*
X-15699Y6929D01*
X-15657Y6923D01*
X-15531Y6940D01*
X-15413Y6989D01*
X-15312Y7066D01*
X-15235Y7167D01*
X-15194Y7266D01*
X-15144Y7256D01*
Y7219D01*
X-15134Y7143D01*
X-15104Y7072D01*
X-15058Y7011D01*
X-14997Y6964D01*
X-14926Y6935D01*
X-14849Y6925D01*
X-14707D01*
Y7480D01*
Y8036D01*
X-14849D01*
X-14926Y8026D01*
X-14997Y7996D01*
X-15058Y7949D01*
X-15104Y7888D01*
X-15134Y7817D01*
X-15144Y7741D01*
Y7704D01*
X-15194Y7694D01*
X-15235Y7793D01*
X-15312Y7894D01*
X-15413Y7972D01*
X-15531Y8021D01*
X-15657Y8037D01*
D02*
G37*
G36*
X-7252Y7821D02*
X-7391Y7803D01*
X-7521Y7749D01*
X-7632Y7664D01*
X-7718Y7552D01*
X-7771Y7423D01*
X-7790Y7283D01*
X-7771Y7144D01*
X-7718Y7015D01*
X-7632Y6903D01*
X-7521Y6818D01*
X-7391Y6764D01*
X-7252Y6746D01*
X-7113Y6764D01*
X-6983Y6818D01*
X-6872Y6903D01*
X-6786Y7015D01*
X-6733Y7144D01*
X-6714Y7283D01*
X-6733Y7423D01*
X-6786Y7552D01*
X-6872Y7664D01*
X-6983Y7749D01*
X-7113Y7803D01*
X-7252Y7821D01*
D02*
G37*
G36*
X-11252D02*
X-11391Y7803D01*
X-11521Y7749D01*
X-11632Y7664D01*
X-11718Y7552D01*
X-11771Y7423D01*
X-11790Y7283D01*
X-11771Y7144D01*
X-11718Y7015D01*
X-11632Y6903D01*
X-11521Y6818D01*
X-11391Y6764D01*
X-11252Y6746D01*
X-11113Y6764D01*
X-10983Y6818D01*
X-10872Y6903D01*
X-10786Y7015D01*
X-10733Y7144D01*
X-10714Y7283D01*
X-10733Y7423D01*
X-10786Y7552D01*
X-10872Y7664D01*
X-10983Y7749D01*
X-11113Y7803D01*
X-11252Y7821D01*
D02*
G37*
G36*
X-14270Y6109D02*
X-14770D01*
Y5609D01*
X-14270D01*
Y6109D01*
D02*
G37*
G36*
X-17907D02*
X-18407D01*
Y5609D01*
X-17907D01*
Y6109D01*
D02*
G37*
G36*
X-5705Y6301D02*
X-6226D01*
X-6303Y6291D01*
X-6374Y6262D01*
X-6435Y6215D01*
X-6481Y6154D01*
X-6511Y6083D01*
X-6521Y6007D01*
Y5623D01*
X-6511Y5547D01*
X-6481Y5476D01*
X-6435Y5415D01*
X-6374Y5368D01*
X-6303Y5339D01*
X-6226Y5329D01*
X-6190D01*
X-6180Y5279D01*
X-6278Y5238D01*
X-6380Y5160D01*
X-6457Y5059D01*
X-6506Y4941D01*
X-6516Y4865D01*
X-5966D01*
X-5415D01*
X-5425Y4941D01*
X-5474Y5059D01*
X-5552Y5160D01*
X-5653Y5238D01*
X-5752Y5279D01*
X-5742Y5329D01*
X-5705D01*
X-5629Y5339D01*
X-5558Y5368D01*
X-5497Y5415D01*
X-5450Y5476D01*
X-5420Y5547D01*
X-5410Y5623D01*
Y6007D01*
X-5420Y6083D01*
X-5450Y6154D01*
X-5497Y6215D01*
X-5558Y6262D01*
X-5629Y6291D01*
X-5705Y6301D01*
D02*
G37*
G36*
X-10566D02*
X-11088D01*
X-11164Y6291D01*
X-11235Y6262D01*
X-11296Y6215D01*
X-11343Y6154D01*
X-11372Y6083D01*
X-11382Y6007D01*
Y5623D01*
X-11372Y5547D01*
X-11343Y5476D01*
X-11296Y5415D01*
X-11235Y5368D01*
X-11164Y5339D01*
X-11088Y5329D01*
X-11051D01*
X-11041Y5279D01*
X-11140Y5238D01*
X-11241Y5160D01*
X-11318Y5059D01*
X-11367Y4941D01*
X-11377Y4865D01*
X-10827D01*
X-10276D01*
X-10286Y4941D01*
X-10335Y5059D01*
X-10413Y5160D01*
X-10514Y5238D01*
X-10613Y5279D01*
X-10603Y5329D01*
X-10566D01*
X-10490Y5339D01*
X-10419Y5368D01*
X-10358Y5415D01*
X-10311Y5476D01*
X-10282Y5547D01*
X-10272Y5623D01*
Y6007D01*
X-10282Y6083D01*
X-10311Y6154D01*
X-10358Y6215D01*
X-10419Y6262D01*
X-10490Y6291D01*
X-10566Y6301D01*
D02*
G37*
G36*
X4312Y5121D02*
X3812D01*
Y4621D01*
X4312D01*
Y5121D01*
D02*
G37*
G36*
X5773Y6408D02*
X5251D01*
X5175Y6398D01*
X5104Y6368D01*
X5043Y6321D01*
X4996Y6260D01*
X4967Y6189D01*
X4957Y6113D01*
Y5729D01*
X4967Y5653D01*
X4996Y5582D01*
X5043Y5521D01*
X5104Y5474D01*
X5175Y5445D01*
X5251Y5435D01*
X5288D01*
X5298Y5385D01*
X5199Y5344D01*
X5098Y5266D01*
X5020Y5165D01*
X4972Y5048D01*
X4955Y4921D01*
X4972Y4795D01*
X5020Y4677D01*
X5098Y4576D01*
X5199Y4499D01*
X5317Y4450D01*
X5443Y4433D01*
X5581D01*
X5707Y4450D01*
X5825Y4499D01*
X5926Y4576D01*
X6003Y4677D01*
X6052Y4795D01*
X6069Y4921D01*
X6052Y5048D01*
X6003Y5165D01*
X5926Y5266D01*
X5825Y5344D01*
X5726Y5385D01*
X5736Y5435D01*
X5773D01*
X5849Y5445D01*
X5920Y5474D01*
X5981Y5521D01*
X6028Y5582D01*
X6057Y5653D01*
X6067Y5729D01*
Y6113D01*
X6057Y6189D01*
X6028Y6260D01*
X5981Y6321D01*
X5920Y6368D01*
X5849Y6398D01*
X5773Y6408D01*
D02*
G37*
G36*
X-5415Y4765D02*
X-5916D01*
Y4327D01*
X-5897D01*
X-5770Y4344D01*
X-5653Y4392D01*
X-5552Y4470D01*
X-5474Y4571D01*
X-5425Y4689D01*
X-5415Y4765D01*
D02*
G37*
G36*
X-6016D02*
X-6516D01*
X-6506Y4689D01*
X-6457Y4571D01*
X-6380Y4470D01*
X-6278Y4392D01*
X-6161Y4344D01*
X-6034Y4327D01*
X-6016D01*
Y4765D01*
D02*
G37*
G36*
X-10276Y4765D02*
X-10777D01*
Y4327D01*
X-10758D01*
X-10632Y4344D01*
X-10514Y4392D01*
X-10413Y4470D01*
X-10335Y4571D01*
X-10286Y4689D01*
X-10276Y4765D01*
D02*
G37*
G36*
X-10877D02*
X-11377D01*
X-11367Y4689D01*
X-11318Y4571D01*
X-11241Y4470D01*
X-11140Y4392D01*
X-11022Y4344D01*
X-10896Y4327D01*
X-10877D01*
Y4765D01*
D02*
G37*
G36*
X64Y6301D02*
X-458D01*
X-534Y6291D01*
X-605Y6262D01*
X-666Y6215D01*
X-713Y6154D01*
X-742Y6083D01*
X-752Y6007D01*
Y5623D01*
X-742Y5547D01*
X-713Y5476D01*
X-666Y5415D01*
X-605Y5368D01*
X-534Y5339D01*
X-458Y5329D01*
X-421D01*
X-411Y5279D01*
X-510Y5238D01*
X-611Y5160D01*
X-688Y5059D01*
X-737Y4941D01*
X-754Y4815D01*
X-737Y4689D01*
X-688Y4571D01*
X-611Y4470D01*
X-510Y4392D01*
X-392Y4344D01*
X-266Y4327D01*
X-128D01*
X-2Y4344D01*
X116Y4392D01*
X217Y4470D01*
X295Y4571D01*
X343Y4689D01*
X360Y4815D01*
X343Y4941D01*
X295Y5059D01*
X217Y5160D01*
X116Y5238D01*
X17Y5279D01*
X27Y5329D01*
X64D01*
X140Y5339D01*
X211Y5368D01*
X272Y5415D01*
X319Y5476D01*
X348Y5547D01*
X358Y5623D01*
Y6007D01*
X348Y6083D01*
X319Y6154D01*
X272Y6215D01*
X211Y6262D01*
X140Y6291D01*
X64Y6301D01*
D02*
G37*
G36*
X1772Y5327D02*
X1632Y5309D01*
X1503Y5255D01*
X1391Y5170D01*
X1306Y5058D01*
X1252Y4929D01*
X1234Y4790D01*
X1252Y4650D01*
X1306Y4521D01*
X1391Y4409D01*
X1503Y4324D01*
X1632Y4270D01*
X1772Y4252D01*
X1911Y4270D01*
X2040Y4324D01*
X2152Y4409D01*
X2237Y4521D01*
X2291Y4650D01*
X2309Y4790D01*
X2291Y4929D01*
X2237Y5058D01*
X2152Y5170D01*
X2040Y5255D01*
X1911Y5309D01*
X1772Y5327D01*
D02*
G37*
G36*
X3102Y5322D02*
X2963Y5303D01*
X2833Y5250D01*
X2722Y5164D01*
X2636Y5053D01*
X2583Y4923D01*
X2564Y4784D01*
X2583Y4645D01*
X2636Y4515D01*
X2722Y4404D01*
X2833Y4318D01*
X2963Y4265D01*
X3102Y4246D01*
X3241Y4265D01*
X3371Y4318D01*
X3482Y4404D01*
X3568Y4515D01*
X3621Y4645D01*
X3640Y4784D01*
X3621Y4923D01*
X3568Y5053D01*
X3482Y5164D01*
X3371Y5250D01*
X3241Y5303D01*
X3102Y5322D01*
D02*
G37*
G36*
X-8149Y5624D02*
X-9549D01*
Y4624D01*
Y4231D01*
X-9049D01*
Y4624D01*
X-8149D01*
Y5624D01*
D02*
G37*
G36*
X-3460Y5677D02*
X-4659D01*
Y4677D01*
Y4181D01*
X-4159D01*
Y4677D01*
X-3460D01*
Y5677D01*
D02*
G37*
G36*
X-1547Y4665D02*
X-2047D01*
Y4165D01*
X-1547D01*
Y4665D01*
D02*
G37*
G36*
X-5705Y3849D02*
X-6226D01*
X-6303Y3839D01*
X-6374Y3809D01*
X-6435Y3762D01*
X-6481Y3701D01*
X-6511Y3630D01*
X-6521Y3554D01*
Y3170D01*
X-6511Y3094D01*
X-6481Y3023D01*
X-6435Y2962D01*
X-6374Y2915D01*
X-6303Y2886D01*
X-6226Y2876D01*
X-6190D01*
X-6180Y2826D01*
X-6278Y2785D01*
X-6380Y2707D01*
X-6457Y2606D01*
X-6506Y2489D01*
X-6516Y2412D01*
X-5966D01*
X-5415D01*
X-5425Y2489D01*
X-5474Y2606D01*
X-5552Y2707D01*
X-5653Y2785D01*
X-5752Y2826D01*
X-5742Y2876D01*
X-5705D01*
X-5629Y2886D01*
X-5558Y2915D01*
X-5497Y2962D01*
X-5450Y3023D01*
X-5420Y3094D01*
X-5410Y3170D01*
Y3554D01*
X-5420Y3630D01*
X-5450Y3701D01*
X-5497Y3762D01*
X-5558Y3809D01*
X-5629Y3839D01*
X-5705Y3849D01*
D02*
G37*
G36*
X-10566D02*
X-11088D01*
X-11164Y3839D01*
X-11235Y3809D01*
X-11296Y3762D01*
X-11343Y3701D01*
X-11372Y3630D01*
X-11382Y3554D01*
Y3170D01*
X-11372Y3094D01*
X-11343Y3023D01*
X-11296Y2962D01*
X-11235Y2915D01*
X-11164Y2886D01*
X-11088Y2876D01*
X-11051D01*
X-11041Y2826D01*
X-11140Y2785D01*
X-11241Y2707D01*
X-11318Y2606D01*
X-11367Y2489D01*
X-11377Y2412D01*
X-10827D01*
X-10276D01*
X-10286Y2489D01*
X-10335Y2606D01*
X-10413Y2707D01*
X-10514Y2785D01*
X-10613Y2826D01*
X-10603Y2876D01*
X-10566D01*
X-10490Y2886D01*
X-10419Y2915D01*
X-10358Y2962D01*
X-10311Y3023D01*
X-10282Y3094D01*
X-10272Y3170D01*
Y3554D01*
X-10282Y3630D01*
X-10311Y3701D01*
X-10358Y3762D01*
X-10419Y3809D01*
X-10490Y3839D01*
X-10566Y3849D01*
D02*
G37*
G36*
X4312Y2653D02*
X3812D01*
Y2153D01*
X4312D01*
Y2653D01*
D02*
G37*
G36*
X5773Y3939D02*
X5251D01*
X5175Y3929D01*
X5104Y3900D01*
X5043Y3853D01*
X4996Y3792D01*
X4967Y3721D01*
X4957Y3645D01*
Y3261D01*
X4967Y3185D01*
X4996Y3114D01*
X5043Y3053D01*
X5104Y3006D01*
X5175Y2976D01*
X5251Y2966D01*
X5288D01*
X5298Y2916D01*
X5199Y2875D01*
X5098Y2798D01*
X5020Y2697D01*
X4972Y2579D01*
X4955Y2453D01*
X4972Y2326D01*
X5020Y2209D01*
X5098Y2108D01*
X5199Y2030D01*
X5317Y1981D01*
X5443Y1965D01*
X5581D01*
X5707Y1981D01*
X5825Y2030D01*
X5926Y2108D01*
X6003Y2209D01*
X6052Y2326D01*
X6069Y2453D01*
X6052Y2579D01*
X6003Y2697D01*
X5926Y2798D01*
X5825Y2875D01*
X5726Y2916D01*
X5736Y2966D01*
X5773D01*
X5849Y2976D01*
X5920Y3006D01*
X5981Y3053D01*
X6028Y3114D01*
X6057Y3185D01*
X6067Y3261D01*
Y3645D01*
X6057Y3721D01*
X6028Y3792D01*
X5981Y3853D01*
X5920Y3900D01*
X5849Y3929D01*
X5773Y3939D01*
D02*
G37*
G36*
X64Y3849D02*
X-458D01*
X-534Y3839D01*
X-605Y3809D01*
X-666Y3762D01*
X-713Y3701D01*
X-742Y3630D01*
X-752Y3554D01*
Y3170D01*
X-742Y3094D01*
X-713Y3023D01*
X-666Y2962D01*
X-605Y2915D01*
X-534Y2886D01*
X-458Y2876D01*
X-421D01*
X-411Y2826D01*
X-510Y2785D01*
X-611Y2707D01*
X-688Y2606D01*
X-737Y2489D01*
X-754Y2362D01*
X-737Y2236D01*
X-688Y2118D01*
X-611Y2017D01*
X-510Y1940D01*
X-392Y1891D01*
X-266Y1874D01*
X-128D01*
X-2Y1891D01*
X116Y1940D01*
X217Y2017D01*
X295Y2118D01*
X343Y2236D01*
X360Y2362D01*
X343Y2489D01*
X295Y2606D01*
X217Y2707D01*
X116Y2785D01*
X17Y2826D01*
X27Y2876D01*
X64D01*
X140Y2886D01*
X211Y2915D01*
X272Y2962D01*
X319Y3023D01*
X348Y3094D01*
X358Y3170D01*
Y3554D01*
X348Y3630D01*
X319Y3701D01*
X272Y3762D01*
X211Y3809D01*
X140Y3839D01*
X64Y3849D01*
D02*
G37*
G36*
X-5415Y2312D02*
X-5916D01*
Y1874D01*
X-5897D01*
X-5770Y1891D01*
X-5653Y1940D01*
X-5552Y2017D01*
X-5474Y2118D01*
X-5425Y2236D01*
X-5415Y2312D01*
D02*
G37*
G36*
X-6016D02*
X-6516D01*
X-6506Y2236D01*
X-6457Y2118D01*
X-6380Y2017D01*
X-6278Y1940D01*
X-6161Y1891D01*
X-6034Y1874D01*
X-6016D01*
Y2312D01*
D02*
G37*
G36*
X-10276Y2312D02*
X-10777D01*
Y1874D01*
X-10758D01*
X-10632Y1891D01*
X-10514Y1940D01*
X-10413Y2017D01*
X-10335Y2118D01*
X-10286Y2236D01*
X-10276Y2312D01*
D02*
G37*
G36*
X-10877D02*
X-11377D01*
X-11367Y2236D01*
X-11318Y2118D01*
X-11241Y2017D01*
X-11140Y1940D01*
X-11022Y1891D01*
X-10896Y1874D01*
X-10877D01*
Y2312D01*
D02*
G37*
G36*
X-8149Y3262D02*
X-9549D01*
Y2262D01*
Y1868D01*
X-9049D01*
Y2262D01*
X-8149D01*
Y3262D01*
D02*
G37*
G36*
X3141Y2923D02*
X3002Y2905D01*
X2872Y2851D01*
X2761Y2766D01*
X2676Y2655D01*
X2622Y2525D01*
X2604Y2386D01*
X2622Y2247D01*
X2676Y2117D01*
X2761Y2006D01*
X2872Y1920D01*
X3002Y1866D01*
X3141Y1848D01*
X3280Y1866D01*
X3410Y1920D01*
X3521Y2006D01*
X3607Y2117D01*
X3661Y2247D01*
X3679Y2386D01*
X3661Y2525D01*
X3607Y2655D01*
X3521Y2766D01*
X3410Y2851D01*
X3280Y2905D01*
X3141Y2923D01*
D02*
G37*
G36*
X1772D02*
X1632Y2905D01*
X1503Y2851D01*
X1391Y2766D01*
X1306Y2655D01*
X1252Y2525D01*
X1234Y2386D01*
X1252Y2247D01*
X1306Y2117D01*
X1391Y2006D01*
X1503Y1920D01*
X1632Y1866D01*
X1772Y1848D01*
X1911Y1866D01*
X2040Y1920D01*
X2152Y2006D01*
X2237Y2117D01*
X2291Y2247D01*
X2309Y2386D01*
X2291Y2525D01*
X2237Y2655D01*
X2152Y2766D01*
X2040Y2851D01*
X1911Y2905D01*
X1772Y2923D01*
D02*
G37*
G36*
X-3288Y3278D02*
X-4688D01*
Y2278D01*
Y1781D01*
X-4188D01*
Y2278D01*
X-3288D01*
Y3278D01*
D02*
G37*
G36*
X-1569Y2265D02*
X-2069D01*
Y1765D01*
X-1569D01*
Y2265D01*
D02*
G37*
G36*
X-18656Y1925D02*
X-19156D01*
Y1425D01*
X-18656D01*
Y1925D01*
D02*
G37*
G36*
X-18950Y697D02*
Y197D01*
X-18512D01*
Y216D01*
X-18529Y342D01*
X-18578Y460D01*
X-18655Y561D01*
X-18756Y638D01*
X-18874Y687D01*
X-18950Y697D01*
D02*
G37*
G36*
X-16447Y697D02*
Y197D01*
X-16009D01*
Y216D01*
X-16026Y342D01*
X-16074Y460D01*
X-16152Y561D01*
X-16253Y638D01*
X-16371Y687D01*
X-16447Y697D01*
D02*
G37*
G36*
X-13512Y97D02*
X-13950D01*
Y-404D01*
X-13874Y-393D01*
X-13756Y-345D01*
X-13655Y-267D01*
X-13578Y-166D01*
X-13529Y-48D01*
X-13512Y78D01*
Y97D01*
D02*
G37*
G36*
X-18512D02*
X-18950D01*
Y-404D01*
X-18874Y-393D01*
X-18756Y-345D01*
X-18655Y-267D01*
X-18578Y-166D01*
X-18529Y-48D01*
X-18512Y78D01*
Y97D01*
D02*
G37*
G36*
X-20016Y3440D02*
X-20155Y3422D01*
X-20285Y3368D01*
X-20396Y3283D01*
X-20482Y3172D01*
X-20535Y3042D01*
X-20554Y2903D01*
X-20535Y2764D01*
X-20482Y2634D01*
X-20396Y2523D01*
X-20285Y2437D01*
X-20210Y2406D01*
Y700D01*
X-20268Y692D01*
X-20339Y663D01*
X-20400Y616D01*
X-20447Y555D01*
X-20477Y484D01*
X-20487Y408D01*
Y-114D01*
X-20477Y-190D01*
X-20447Y-261D01*
X-20400Y-322D01*
X-20339Y-369D01*
X-20268Y-398D01*
X-20192Y-408D01*
X-19808D01*
X-19732Y-398D01*
X-19661Y-369D01*
X-19600Y-322D01*
X-19553Y-261D01*
X-19524Y-190D01*
X-19514Y-114D01*
Y-77D01*
X-19464Y-67D01*
X-19423Y-166D01*
X-19345Y-267D01*
X-19244Y-345D01*
X-19126Y-393D01*
X-19050Y-404D01*
Y147D01*
Y697D01*
X-19126Y687D01*
X-19244Y638D01*
X-19345Y561D01*
X-19423Y460D01*
X-19464Y361D01*
X-19514Y371D01*
Y408D01*
X-19524Y484D01*
X-19553Y555D01*
X-19600Y616D01*
X-19661Y663D01*
X-19732Y692D01*
X-19806Y702D01*
Y2413D01*
X-19747Y2437D01*
X-19636Y2523D01*
X-19550Y2634D01*
X-19497Y2764D01*
X-19478Y2903D01*
X-19497Y3042D01*
X-19550Y3172D01*
X-19636Y3283D01*
X-19747Y3368D01*
X-19877Y3422D01*
X-20016Y3440D01*
D02*
G37*
G36*
X-16009Y97D02*
X-16447D01*
Y-404D01*
X-16371Y-393D01*
X-16253Y-345D01*
X-16152Y-267D01*
X-16074Y-166D01*
X-16026Y-48D01*
X-16009Y78D01*
Y97D01*
D02*
G37*
G36*
X-20016Y4622D02*
X-20155Y4603D01*
X-20285Y4550D01*
X-20396Y4464D01*
X-20482Y4353D01*
X-20535Y4223D01*
X-20554Y4084D01*
X-20535Y3945D01*
X-20482Y3815D01*
X-20396Y3704D01*
X-20285Y3618D01*
X-20155Y3565D01*
X-20016Y3546D01*
X-19877Y3565D01*
X-19810Y3592D01*
X-17699Y1481D01*
Y701D01*
X-17765Y692D01*
X-17836Y663D01*
X-17897Y616D01*
X-17944Y555D01*
X-17973Y484D01*
X-17983Y408D01*
Y-114D01*
X-17973Y-190D01*
X-17944Y-261D01*
X-17897Y-322D01*
X-17836Y-369D01*
X-17765Y-398D01*
X-17689Y-408D01*
X-17305D01*
X-17229Y-398D01*
X-17158Y-369D01*
X-17097Y-322D01*
X-17050Y-261D01*
X-17021Y-190D01*
X-17011Y-114D01*
Y-77D01*
X-16961Y-67D01*
X-16920Y-166D01*
X-16842Y-267D01*
X-16741Y-345D01*
X-16623Y-393D01*
X-16547Y-404D01*
Y147D01*
Y697D01*
X-16623Y687D01*
X-16741Y638D01*
X-16842Y561D01*
X-16920Y460D01*
X-16961Y361D01*
X-17011Y371D01*
Y408D01*
X-17021Y484D01*
X-17050Y555D01*
X-17097Y616D01*
X-17158Y663D01*
X-17229Y692D01*
X-17295Y701D01*
Y1565D01*
X-17310Y1642D01*
X-17354Y1708D01*
X-19524Y3878D01*
X-19497Y3945D01*
X-19478Y4084D01*
X-19497Y4223D01*
X-19550Y4353D01*
X-19636Y4464D01*
X-19747Y4550D01*
X-19877Y4603D01*
X-20016Y4622D01*
D02*
G37*
G36*
X62Y727D02*
X-62D01*
X-71Y725D01*
X-81D01*
X-202Y701D01*
X-211Y697D01*
X-221Y695D01*
X-335Y648D01*
X-343Y642D01*
X-353Y639D01*
X-455Y570D01*
X-462Y563D01*
X-471Y558D01*
X-558Y471D01*
X-563Y462D01*
X-570Y455D01*
X-639Y353D01*
X-642Y343D01*
X-648Y335D01*
X-695Y221D01*
X-697Y211D01*
X-701Y202D01*
X-725Y81D01*
Y71D01*
X-727Y62D01*
Y-62D01*
X-725Y-71D01*
Y-81D01*
X-701Y-202D01*
X-697Y-211D01*
X-695Y-221D01*
X-648Y-335D01*
X-642Y-343D01*
X-639Y-353D01*
X-570Y-455D01*
X-563Y-462D01*
X-558Y-471D01*
X-471Y-558D01*
X-462Y-563D01*
X-455Y-570D01*
X-353Y-639D01*
X-343Y-642D01*
X-335Y-648D01*
X-221Y-695D01*
X-211Y-697D01*
X-202Y-701D01*
X-81Y-725D01*
X-71D01*
X-62Y-727D01*
X62D01*
X71Y-725D01*
X81D01*
X202Y-701D01*
X211Y-697D01*
X221Y-695D01*
X335Y-648D01*
X343Y-642D01*
X353Y-639D01*
X455Y-570D01*
X462Y-563D01*
X471Y-558D01*
X558Y-471D01*
X563Y-462D01*
X570Y-455D01*
X639Y-353D01*
X642Y-343D01*
X648Y-335D01*
X695Y-221D01*
X697Y-211D01*
X701Y-202D01*
X725Y-81D01*
Y-71D01*
X727Y-62D01*
Y62D01*
X725Y71D01*
Y81D01*
X701Y202D01*
X697Y211D01*
X695Y221D01*
X648Y335D01*
X642Y343D01*
X639Y353D01*
X570Y455D01*
X563Y462D01*
X558Y471D01*
X471Y558D01*
X462Y563D01*
X455Y570D01*
X353Y639D01*
X343Y642D01*
X335Y648D01*
X221Y695D01*
X211Y697D01*
X202Y701D01*
X81Y725D01*
X71D01*
X62Y727D01*
D02*
G37*
G36*
X3191Y-1083D02*
Y-1564D01*
X3672D01*
X3661Y-1475D01*
X3607Y-1345D01*
X3521Y-1234D01*
X3410Y-1149D01*
X3280Y-1095D01*
X3191Y-1083D01*
D02*
G37*
G36*
X1822D02*
Y-1564D01*
X2303D01*
X2291Y-1475D01*
X2237Y-1345D01*
X2152Y-1234D01*
X2040Y-1149D01*
X1911Y-1095D01*
X1822Y-1083D01*
D02*
G37*
G36*
X3091D02*
X3002Y-1095D01*
X2872Y-1149D01*
X2761Y-1234D01*
X2676Y-1345D01*
X2622Y-1475D01*
X2610Y-1564D01*
X3091D01*
Y-1083D01*
D02*
G37*
G36*
X1722D02*
X1632Y-1095D01*
X1503Y-1149D01*
X1391Y-1234D01*
X1306Y-1345D01*
X1252Y-1475D01*
X1241Y-1564D01*
X1722D01*
Y-1083D01*
D02*
G37*
G36*
X-8950Y-1450D02*
Y-1950D01*
X-8562D01*
Y-1882D01*
X-8577Y-1768D01*
X-8620Y-1663D01*
X-8690Y-1572D01*
X-8781Y-1502D01*
X-8887Y-1458D01*
X-8950Y-1450D01*
D02*
G37*
G36*
X-9050D02*
X-9113Y-1458D01*
X-9219Y-1502D01*
X-9310Y-1572D01*
X-9380Y-1663D01*
X-9423Y-1768D01*
X-9438Y-1882D01*
Y-1950D01*
X-9050D01*
Y-1450D01*
D02*
G37*
G36*
X-9950D02*
Y-1950D01*
X-9562D01*
Y-1882D01*
X-9577Y-1768D01*
X-9620Y-1663D01*
X-9690Y-1572D01*
X-9781Y-1502D01*
X-9887Y-1458D01*
X-9950Y-1450D01*
D02*
G37*
G36*
X-10050D02*
X-10113Y-1458D01*
X-10219Y-1502D01*
X-10310Y-1572D01*
X-10380Y-1663D01*
X-10423Y-1768D01*
X-10438Y-1882D01*
Y-1950D01*
X-10050D01*
Y-1450D01*
D02*
G37*
G36*
X2303Y-1664D02*
X1822D01*
Y-2145D01*
X1911Y-2134D01*
X2040Y-2080D01*
X2152Y-1994D01*
X2237Y-1883D01*
X2291Y-1753D01*
X2303Y-1664D01*
D02*
G37*
G36*
X3672D02*
X3191D01*
Y-2145D01*
X3280Y-2134D01*
X3410Y-2080D01*
X3521Y-1994D01*
X3607Y-1883D01*
X3661Y-1753D01*
X3672Y-1664D01*
D02*
G37*
G36*
X3091D02*
X2610D01*
X2622Y-1753D01*
X2676Y-1883D01*
X2761Y-1994D01*
X2872Y-2080D01*
X3002Y-2134D01*
X3091Y-2145D01*
Y-1664D01*
D02*
G37*
G36*
X1722D02*
X1241D01*
X1252Y-1753D01*
X1306Y-1883D01*
X1391Y-1994D01*
X1503Y-2080D01*
X1632Y-2134D01*
X1722Y-2145D01*
Y-1664D01*
D02*
G37*
G36*
X-20438Y-1273D02*
X-20562D01*
X-20571Y-1275D01*
X-20581D01*
X-20702Y-1299D01*
X-20711Y-1303D01*
X-20721Y-1305D01*
X-20835Y-1352D01*
X-20843Y-1358D01*
X-20853Y-1361D01*
X-20955Y-1430D01*
X-20962Y-1437D01*
X-20971Y-1442D01*
X-21058Y-1529D01*
X-21063Y-1538D01*
X-21070Y-1545D01*
X-21139Y-1647D01*
X-21142Y-1657D01*
X-21148Y-1665D01*
X-21195Y-1779D01*
X-21197Y-1789D01*
X-21201Y-1798D01*
X-21225Y-1919D01*
Y-1929D01*
X-21227Y-1938D01*
Y-2062D01*
X-21225Y-2071D01*
Y-2081D01*
X-21201Y-2202D01*
X-21197Y-2211D01*
X-21195Y-2221D01*
X-21148Y-2335D01*
X-21142Y-2343D01*
X-21139Y-2353D01*
X-21070Y-2455D01*
X-21063Y-2462D01*
X-21058Y-2471D01*
X-20971Y-2558D01*
X-20962Y-2563D01*
X-20955Y-2570D01*
X-20853Y-2639D01*
X-20843Y-2642D01*
X-20835Y-2648D01*
X-20721Y-2695D01*
X-20711Y-2697D01*
X-20702Y-2701D01*
X-20581Y-2725D01*
X-20571D01*
X-20562Y-2727D01*
X-20438D01*
X-20429Y-2725D01*
X-20419D01*
X-20298Y-2701D01*
X-20289Y-2697D01*
X-20279Y-2695D01*
X-20165Y-2648D01*
X-20157Y-2642D01*
X-20147Y-2639D01*
X-20045Y-2570D01*
X-20038Y-2563D01*
X-20029Y-2558D01*
X-19942Y-2471D01*
X-19937Y-2462D01*
X-19930Y-2455D01*
X-19861Y-2353D01*
X-19858Y-2343D01*
X-19852Y-2335D01*
X-19835Y-2294D01*
X-19785Y-2304D01*
Y-2462D01*
X-15586D01*
Y-1462D01*
X-19785D01*
Y-1696D01*
X-19835Y-1706D01*
X-19852Y-1665D01*
X-19858Y-1657D01*
X-19861Y-1647D01*
X-19930Y-1545D01*
X-19937Y-1538D01*
X-19942Y-1529D01*
X-20029Y-1442D01*
X-20038Y-1437D01*
X-20045Y-1430D01*
X-20147Y-1361D01*
X-20157Y-1358D01*
X-20165Y-1352D01*
X-20279Y-1305D01*
X-20289Y-1303D01*
X-20298Y-1299D01*
X-20419Y-1275D01*
X-20429D01*
X-20438Y-1273D01*
D02*
G37*
G36*
X-8562Y-2050D02*
X-8950D01*
Y-2550D01*
X-8887Y-2542D01*
X-8781Y-2498D01*
X-8690Y-2428D01*
X-8620Y-2337D01*
X-8577Y-2232D01*
X-8562Y-2118D01*
Y-2050D01*
D02*
G37*
G36*
X-9050D02*
X-9438D01*
Y-2118D01*
X-9423Y-2232D01*
X-9380Y-2337D01*
X-9310Y-2428D01*
X-9219Y-2498D01*
X-9113Y-2542D01*
X-9050Y-2550D01*
Y-2050D01*
D02*
G37*
G36*
X-9562D02*
X-9950D01*
Y-2550D01*
X-9887Y-2542D01*
X-9781Y-2498D01*
X-9690Y-2428D01*
X-9620Y-2337D01*
X-9577Y-2232D01*
X-9562Y-2118D01*
Y-2050D01*
D02*
G37*
G36*
X-10050D02*
X-10438D01*
Y-2118D01*
X-10423Y-2232D01*
X-10380Y-2337D01*
X-10310Y-2428D01*
X-10219Y-2498D01*
X-10113Y-2542D01*
X-10050Y-2550D01*
Y-2050D01*
D02*
G37*
G36*
X-1000Y-1443D02*
X-1113Y-1458D01*
X-1219Y-1502D01*
X-1310Y-1572D01*
X-1380Y-1663D01*
X-1423Y-1768D01*
X-1438Y-1882D01*
Y-2118D01*
X-1423Y-2232D01*
X-1380Y-2337D01*
X-1310Y-2428D01*
X-1219Y-2498D01*
X-1113Y-2542D01*
X-1000Y-2557D01*
X-887Y-2542D01*
X-781Y-2498D01*
X-690Y-2428D01*
X-620Y-2337D01*
X-577Y-2232D01*
X-562Y-2118D01*
Y-1882D01*
X-577Y-1768D01*
X-620Y-1663D01*
X-690Y-1572D01*
X-781Y-1502D01*
X-887Y-1458D01*
X-1000Y-1443D01*
D02*
G37*
G36*
X-2000D02*
X-2113Y-1458D01*
X-2219Y-1502D01*
X-2310Y-1572D01*
X-2380Y-1663D01*
X-2423Y-1768D01*
X-2438Y-1882D01*
Y-2118D01*
X-2423Y-2232D01*
X-2380Y-2337D01*
X-2310Y-2428D01*
X-2219Y-2498D01*
X-2113Y-2542D01*
X-2000Y-2557D01*
X-1887Y-2542D01*
X-1781Y-2498D01*
X-1690Y-2428D01*
X-1620Y-2337D01*
X-1577Y-2232D01*
X-1562Y-2118D01*
Y-1882D01*
X-1577Y-1768D01*
X-1620Y-1663D01*
X-1690Y-1572D01*
X-1781Y-1502D01*
X-1887Y-1458D01*
X-2000Y-1443D01*
D02*
G37*
G36*
X-3000D02*
X-3113Y-1458D01*
X-3219Y-1502D01*
X-3310Y-1572D01*
X-3380Y-1663D01*
X-3423Y-1768D01*
X-3438Y-1882D01*
Y-2118D01*
X-3423Y-2232D01*
X-3380Y-2337D01*
X-3310Y-2428D01*
X-3219Y-2498D01*
X-3113Y-2542D01*
X-3000Y-2557D01*
X-2887Y-2542D01*
X-2781Y-2498D01*
X-2690Y-2428D01*
X-2620Y-2337D01*
X-2577Y-2232D01*
X-2562Y-2118D01*
Y-1882D01*
X-2577Y-1768D01*
X-2620Y-1663D01*
X-2690Y-1572D01*
X-2781Y-1502D01*
X-2887Y-1458D01*
X-3000Y-1443D01*
D02*
G37*
G36*
X-4000D02*
X-4113Y-1458D01*
X-4219Y-1502D01*
X-4310Y-1572D01*
X-4380Y-1663D01*
X-4423Y-1768D01*
X-4438Y-1882D01*
Y-2118D01*
X-4423Y-2232D01*
X-4380Y-2337D01*
X-4310Y-2428D01*
X-4219Y-2498D01*
X-4113Y-2542D01*
X-4000Y-2557D01*
X-3887Y-2542D01*
X-3781Y-2498D01*
X-3690Y-2428D01*
X-3620Y-2337D01*
X-3577Y-2232D01*
X-3562Y-2118D01*
Y-1882D01*
X-3577Y-1768D01*
X-3620Y-1663D01*
X-3690Y-1572D01*
X-3781Y-1502D01*
X-3887Y-1458D01*
X-4000Y-1443D01*
D02*
G37*
G36*
X-5000D02*
X-5113Y-1458D01*
X-5219Y-1502D01*
X-5310Y-1572D01*
X-5380Y-1663D01*
X-5423Y-1768D01*
X-5438Y-1882D01*
Y-2118D01*
X-5423Y-2232D01*
X-5380Y-2337D01*
X-5310Y-2428D01*
X-5219Y-2498D01*
X-5113Y-2542D01*
X-5000Y-2557D01*
X-4887Y-2542D01*
X-4781Y-2498D01*
X-4690Y-2428D01*
X-4620Y-2337D01*
X-4577Y-2232D01*
X-4562Y-2118D01*
Y-1882D01*
X-4577Y-1768D01*
X-4620Y-1663D01*
X-4690Y-1572D01*
X-4781Y-1502D01*
X-4887Y-1458D01*
X-5000Y-1443D01*
D02*
G37*
G36*
X-6000D02*
X-6113Y-1458D01*
X-6219Y-1502D01*
X-6310Y-1572D01*
X-6380Y-1663D01*
X-6423Y-1768D01*
X-6438Y-1882D01*
Y-2118D01*
X-6423Y-2232D01*
X-6380Y-2337D01*
X-6310Y-2428D01*
X-6219Y-2498D01*
X-6113Y-2542D01*
X-6000Y-2557D01*
X-5887Y-2542D01*
X-5781Y-2498D01*
X-5690Y-2428D01*
X-5620Y-2337D01*
X-5577Y-2232D01*
X-5562Y-2118D01*
Y-1882D01*
X-5577Y-1768D01*
X-5620Y-1663D01*
X-5690Y-1572D01*
X-5781Y-1502D01*
X-5887Y-1458D01*
X-6000Y-1443D01*
D02*
G37*
G36*
X-8000D02*
X-8113Y-1458D01*
X-8219Y-1502D01*
X-8310Y-1572D01*
X-8380Y-1663D01*
X-8423Y-1768D01*
X-8438Y-1882D01*
Y-2118D01*
X-8423Y-2232D01*
X-8380Y-2337D01*
X-8310Y-2428D01*
X-8219Y-2498D01*
X-8113Y-2542D01*
X-8000Y-2557D01*
X-7887Y-2542D01*
X-7781Y-2498D01*
X-7690Y-2428D01*
X-7620Y-2337D01*
X-7577Y-2232D01*
X-7562Y-2118D01*
Y-1882D01*
X-7577Y-1768D01*
X-7620Y-1663D01*
X-7690Y-1572D01*
X-7781Y-1502D01*
X-7887Y-1458D01*
X-8000Y-1443D01*
D02*
G37*
G36*
X-11000D02*
X-11113Y-1458D01*
X-11219Y-1502D01*
X-11310Y-1572D01*
X-11380Y-1663D01*
X-11423Y-1768D01*
X-11438Y-1882D01*
Y-2118D01*
X-11423Y-2232D01*
X-11380Y-2337D01*
X-11310Y-2428D01*
X-11219Y-2498D01*
X-11113Y-2542D01*
X-11000Y-2557D01*
X-10887Y-2542D01*
X-10781Y-2498D01*
X-10690Y-2428D01*
X-10620Y-2337D01*
X-10577Y-2232D01*
X-10562Y-2118D01*
Y-1882D01*
X-10577Y-1768D01*
X-10620Y-1663D01*
X-10690Y-1572D01*
X-10781Y-1502D01*
X-10887Y-1458D01*
X-11000Y-1443D01*
D02*
G37*
G36*
X-12000D02*
X-12113Y-1458D01*
X-12219Y-1502D01*
X-12310Y-1572D01*
X-12380Y-1663D01*
X-12423Y-1768D01*
X-12438Y-1882D01*
Y-2118D01*
X-12423Y-2232D01*
X-12380Y-2337D01*
X-12310Y-2428D01*
X-12219Y-2498D01*
X-12113Y-2542D01*
X-12000Y-2557D01*
X-11887Y-2542D01*
X-11781Y-2498D01*
X-11690Y-2428D01*
X-11620Y-2337D01*
X-11577Y-2232D01*
X-11562Y-2118D01*
Y-1882D01*
X-11577Y-1768D01*
X-11620Y-1663D01*
X-11690Y-1572D01*
X-11781Y-1502D01*
X-11887Y-1458D01*
X-12000Y-1443D01*
D02*
G37*
G36*
X-13000D02*
X-13113Y-1458D01*
X-13219Y-1502D01*
X-13310Y-1572D01*
X-13380Y-1663D01*
X-13423Y-1768D01*
X-13438Y-1882D01*
Y-2118D01*
X-13423Y-2232D01*
X-13380Y-2337D01*
X-13310Y-2428D01*
X-13219Y-2498D01*
X-13113Y-2542D01*
X-13000Y-2557D01*
X-12887Y-2542D01*
X-12781Y-2498D01*
X-12690Y-2428D01*
X-12620Y-2337D01*
X-12577Y-2232D01*
X-12562Y-2118D01*
Y-1882D01*
X-12577Y-1768D01*
X-12620Y-1663D01*
X-12690Y-1572D01*
X-12781Y-1502D01*
X-12887Y-1458D01*
X-13000Y-1443D01*
D02*
G37*
G36*
X-15000D02*
X-15113Y-1458D01*
X-15219Y-1502D01*
X-15310Y-1572D01*
X-15380Y-1663D01*
X-15423Y-1768D01*
X-15438Y-1882D01*
Y-2118D01*
X-15423Y-2232D01*
X-15380Y-2337D01*
X-15310Y-2428D01*
X-15219Y-2498D01*
X-15113Y-2542D01*
X-15000Y-2557D01*
X-14887Y-2542D01*
X-14781Y-2498D01*
X-14690Y-2428D01*
X-14620Y-2337D01*
X-14577Y-2232D01*
X-14562Y-2118D01*
Y-1882D01*
X-14577Y-1768D01*
X-14620Y-1663D01*
X-14690Y-1572D01*
X-14781Y-1502D01*
X-14887Y-1458D01*
X-15000Y-1443D01*
D02*
G37*
%LPD*%
D10*
X-12385Y11850D02*
X1772D01*
X-12732Y11503D02*
X-12385Y11850D01*
X-12786Y11503D02*
X-12732D01*
X-12795Y9449D02*
X-12697Y9547D01*
X-11350D01*
X-11252Y9646D01*
X-17800Y11500D02*
X-14700D01*
X-20669Y13811D02*
X-18732Y15748D01*
X-15634D01*
X-14500Y16882D01*
X-18034Y15068D02*
X-15313D01*
X-19291Y13811D02*
X-18034Y15068D01*
X-15313D02*
X-13500Y16882D01*
X-5740Y16142D02*
X-5000Y16882D01*
X-12858Y16142D02*
X-5740D01*
X-16500Y12500D02*
X-12858Y16142D01*
X-4331Y15551D02*
X-3000Y16882D01*
X-14700Y13300D02*
X-12449Y15551D01*
X-4331D01*
X-16016Y6899D02*
X-15657Y7257D01*
Y7480D01*
X-16016Y5265D02*
Y6899D01*
X-19685Y7480D02*
Y8827D01*
X-20669Y9811D02*
X-19685Y8827D01*
X-19188Y9707D02*
X-18563D01*
X-17217Y8361D01*
X-19291Y9811D02*
X-19188Y9707D01*
X-17217Y7480D02*
Y8361D01*
X-13500Y16882D02*
Y17000D01*
X-14500Y16882D02*
Y17000D01*
X-20671Y9809D02*
X-20669Y9811D01*
X-13189Y-394D02*
Y394D01*
X-15570Y2775D02*
X-13189Y394D01*
X-16016Y2903D02*
X-15888Y2775D01*
X-15570D01*
X-14000Y-2000D02*
Y-1205D01*
X-13189Y-394D01*
X-16016Y4084D02*
Y5265D01*
Y2903D02*
Y4084D01*
X-19910Y5159D02*
X-19251D01*
X-15000Y908D01*
X-20016Y5265D02*
X-19910Y5159D01*
X-15000Y147D02*
Y908D01*
X-17497Y147D02*
Y1565D01*
X-20016Y4084D02*
X-17497Y1565D01*
X-20008Y155D02*
Y2895D01*
X-20016Y2903D02*
X-20008Y2895D01*
Y155D02*
X-20000Y147D01*
X-17800Y12500D02*
X-16500D01*
X-14700D02*
Y13300D01*
X-3000Y16882D02*
Y17000D01*
X-5000Y16882D02*
Y17000D01*
D11*
X2856Y13855D02*
X3056D01*
X2956D01*
Y14455D01*
X2856Y14355D01*
X3756D02*
X3656Y14455D01*
X3456D01*
X3356Y14355D01*
Y14255D01*
X3456Y14155D01*
X3656D01*
X3756Y14055D01*
Y13955D01*
X3656Y13855D01*
X3456D01*
X3356Y13955D01*
X3956Y13855D02*
X4155D01*
X4056D01*
Y14455D01*
X3956Y14355D01*
X4455Y13855D02*
X4855Y14255D01*
X2856Y12895D02*
X3056D01*
X2956D01*
Y13495D01*
X2856Y13395D01*
X3756D02*
X3656Y13495D01*
X3456D01*
X3356Y13395D01*
Y13295D01*
X3456Y13195D01*
X3656D01*
X3756Y13095D01*
Y12995D01*
X3656Y12895D01*
X3456D01*
X3356Y12995D01*
X3956Y13395D02*
X4056Y13495D01*
X4255D01*
X4355Y13395D01*
Y13295D01*
X4255Y13195D01*
X4155D01*
X4255D01*
X4355Y13095D01*
Y12995D01*
X4255Y12895D01*
X4056D01*
X3956Y12995D01*
X2659Y17005D02*
X2859D01*
X2759D01*
Y17604D01*
X2659Y17504D01*
X3559D02*
X3459Y17604D01*
X3259D01*
X3159Y17504D01*
Y17405D01*
X3259Y17305D01*
X3459D01*
X3559Y17205D01*
Y17105D01*
X3459Y17005D01*
X3259D01*
X3159Y17105D01*
X4159Y17005D02*
X3759D01*
X4159Y17405D01*
Y17504D01*
X4059Y17604D01*
X3859D01*
X3759Y17504D01*
X4359Y17005D02*
X4758Y17405D01*
X2659Y16045D02*
X2859D01*
X2759D01*
Y16645D01*
X2659Y16545D01*
X3559D02*
X3459Y16645D01*
X3259D01*
X3159Y16545D01*
Y16445D01*
X3259Y16345D01*
X3459D01*
X3559Y16245D01*
Y16145D01*
X3459Y16045D01*
X3259D01*
X3159Y16145D01*
X4059Y16045D02*
Y16645D01*
X3759Y16345D01*
X4159D01*
X-14470Y5809D02*
X-14570D01*
Y5909D01*
X-14470D01*
Y5809D01*
X-9349Y2462D02*
Y3062D01*
X-9049D01*
X-8949Y2962D01*
Y2762D01*
X-9049Y2662D01*
X-9349D01*
X-8449Y2462D02*
Y3062D01*
X-8749Y2762D01*
X-8349D01*
X-4488Y2081D02*
X-4388D01*
Y1981D01*
X-4488D01*
Y2081D01*
X-4488Y2478D02*
Y3078D01*
X-4188D01*
X-4088Y2978D01*
Y2778D01*
X-4188Y2678D01*
X-4488D01*
X-3488Y2478D02*
X-3888D01*
X-3488Y2878D01*
Y2978D01*
X-3588Y3078D01*
X-3788D01*
X-3888Y2978D01*
X-4459Y4877D02*
Y5477D01*
X-4160D01*
X-4060Y5377D01*
Y5177D01*
X-4160Y5077D01*
X-4459D01*
X-3860Y4877D02*
X-3660D01*
X-3760D01*
Y5477D01*
X-3860Y5377D01*
X-4459Y4481D02*
X-4359D01*
Y4381D01*
X-4459D01*
Y4481D01*
X-18207Y5809D02*
Y5909D01*
X-18107D01*
Y5809D01*
X-18207D01*
X-20766D02*
Y5909D01*
X-20666D01*
Y5809D01*
X-20766D01*
X-13838Y1625D02*
Y1725D01*
X-13738D01*
Y1625D01*
X-13838D01*
X-16538Y1625D02*
Y1725D01*
X-16438D01*
Y1625D01*
X-16538D01*
X-18956Y1625D02*
Y1725D01*
X-18856D01*
Y1625D01*
X-18956D01*
X-19585Y-2262D02*
Y-1662D01*
X-19285D01*
X-19185Y-1762D01*
Y-1962D01*
X-19285Y-2062D01*
X-19585D01*
X-18985Y-2162D02*
X-18885Y-2262D01*
X-18685D01*
X-18585Y-2162D01*
Y-1762D01*
X-18685Y-1662D01*
X-18885D01*
X-18985Y-1762D01*
Y-1862D01*
X-18885Y-1962D01*
X-18585D01*
X-18385Y-1662D02*
X-17986D01*
Y-1762D01*
X-18385Y-2162D01*
Y-2262D01*
X-17786D02*
Y-2162D01*
X-17686D01*
Y-2262D01*
X-17786D01*
X-17286D02*
Y-2162D01*
X-17186D01*
Y-2262D01*
X-17286D01*
X-16786Y-2162D02*
X-16686Y-2262D01*
X-16486D01*
X-16386Y-2162D01*
Y-1762D01*
X-16486Y-1662D01*
X-16686D01*
X-16786Y-1762D01*
Y-1862D01*
X-16686Y-1962D01*
X-16386D01*
X-16186Y-2162D02*
X-16086Y-2262D01*
X-15886D01*
X-15786Y-2162D01*
Y-1762D01*
X-15886Y-1662D01*
X-16086D01*
X-16186Y-1762D01*
Y-1862D01*
X-16086Y-1962D01*
X-15786D01*
X-17617Y13092D02*
Y13692D01*
X-17417Y13492D01*
X-17217Y13692D01*
Y13092D01*
X-17017D02*
X-16817D01*
X-16917D01*
Y13692D01*
X-17017Y13592D01*
X-9349Y4824D02*
Y5424D01*
X-9049D01*
X-8949Y5324D01*
Y5124D01*
X-9049Y5024D01*
X-9349D01*
X-8749Y5324D02*
X-8649Y5424D01*
X-8449D01*
X-8349Y5324D01*
Y5224D01*
X-8449Y5124D01*
X-8549D01*
X-8449D01*
X-8349Y5024D01*
Y4924D01*
X-8449Y4824D01*
X-8649D01*
X-8749Y4924D01*
X-15551Y10352D02*
Y10452D01*
X-15451D01*
Y10352D01*
X-15551D01*
X4012Y2453D02*
X4112D01*
Y2353D01*
X4012D01*
Y2453D01*
Y4921D02*
X4112D01*
Y4821D01*
X4012D01*
Y4921D01*
X-1847Y4465D02*
X-1747D01*
Y4365D01*
X-1847D01*
Y4465D01*
X-1868Y2065D02*
X-1769D01*
Y1965D01*
X-1868D01*
Y2065D01*
X-9349Y4431D02*
Y4531D01*
X-9249D01*
Y4431D01*
X-9349D01*
Y2069D02*
Y2168D01*
X-9249D01*
Y2069D01*
X-9349D01*
X-17026Y10336D02*
Y10436D01*
X-16926D01*
Y10336D01*
X-17026D01*
X8618Y17208D02*
X9018D01*
X8818D01*
Y16608D01*
X9318D02*
X9518D01*
X9618Y16708D01*
Y16908D01*
X9518Y17008D01*
X9318D01*
X9218Y16908D01*
Y16708D01*
X9318Y16608D01*
X9818Y16408D02*
Y17008D01*
X10118D01*
X10218Y16908D01*
Y16708D01*
X10118Y16608D01*
X9818D01*
X11017Y17208D02*
Y16608D01*
X11417D01*
X11717Y17008D02*
X11917D01*
X12017Y16908D01*
Y16608D01*
X11717D01*
X11617Y16708D01*
X11717Y16808D01*
X12017D01*
X12217Y17008D02*
Y16708D01*
X12317Y16608D01*
X12617D01*
Y16508D01*
X12517Y16408D01*
X12417D01*
X12617Y16608D02*
Y17008D01*
X13117Y16608D02*
X12917D01*
X12817Y16708D01*
Y16908D01*
X12917Y17008D01*
X13117D01*
X13217Y16908D01*
Y16808D01*
X12817D01*
X13417Y17008D02*
Y16608D01*
Y16808D01*
X13517Y16908D01*
X13616Y17008D01*
X13716D01*
D12*
X1772Y11850D02*
D03*
X5709Y9685D02*
D03*
X-12786Y11503D02*
D03*
X-12795Y8425D02*
D03*
D13*
X1772Y9803D02*
D03*
Y10827D02*
D03*
X5709Y7638D02*
D03*
Y8661D02*
D03*
X-12786Y13550D02*
D03*
Y12526D02*
D03*
X-12795Y10472D02*
D03*
Y9449D02*
D03*
D14*
X1181Y13992D02*
D03*
Y16945D02*
D03*
X-10827Y2362D02*
D03*
Y4815D02*
D03*
X-5966Y2362D02*
D03*
Y4815D02*
D03*
X-197Y2362D02*
D03*
Y4815D02*
D03*
X5512Y4921D02*
D03*
Y2453D02*
D03*
D15*
X1181Y12992D02*
D03*
X5512Y5921D02*
D03*
Y3453D02*
D03*
X-197Y3362D02*
D03*
Y5815D02*
D03*
X1181Y15945D02*
D03*
X-10827Y3362D02*
D03*
Y5815D02*
D03*
X-5966Y3362D02*
D03*
Y5815D02*
D03*
D16*
X-2559Y10795D02*
D03*
Y14795D02*
D03*
X-8102Y14764D02*
D03*
Y13583D02*
D03*
X-11252Y8465D02*
D03*
Y7283D02*
D03*
X4724Y11189D02*
D03*
X3346D02*
D03*
X-9449Y10795D02*
D03*
X-8102Y10805D02*
D03*
X-11220Y10795D02*
D03*
X-11252Y9646D02*
D03*
X-1181Y14795D02*
D03*
Y10795D02*
D03*
X-7252Y7283D02*
D03*
X-4102Y13583D02*
D03*
Y14764D02*
D03*
X-11220Y14795D02*
D03*
X-9449D02*
D03*
X-7252Y9646D02*
D03*
X-4102Y10805D02*
D03*
X-19291Y13811D02*
D03*
Y9811D02*
D03*
X-20669Y13811D02*
D03*
Y9811D02*
D03*
X4724Y15189D02*
D03*
X3141Y2386D02*
D03*
Y-1614D02*
D03*
X3102Y4784D02*
D03*
Y8784D02*
D03*
X1772Y4790D02*
D03*
Y8790D02*
D03*
Y2386D02*
D03*
Y-1614D02*
D03*
X3346Y15189D02*
D03*
X-7252Y8465D02*
D03*
X-16016Y5265D02*
D03*
X-20016D02*
D03*
X-16016Y2903D02*
D03*
X-20016D02*
D03*
X-16016Y4084D02*
D03*
X-20016D02*
D03*
D17*
X-15657Y7480D02*
D03*
X-18217D02*
D03*
X-20685D02*
D03*
X-14000Y147D02*
D03*
X-16497Y147D02*
D03*
X-19000Y147D02*
D03*
D18*
X-14657Y7480D02*
D03*
X-17217D02*
D03*
X-19685D02*
D03*
X-15000Y147D02*
D03*
X-17497Y147D02*
D03*
X-20000Y147D02*
D03*
D19*
X-17800Y10500D02*
D03*
X-14700D02*
D03*
D20*
X-17800Y11500D02*
D03*
Y12500D02*
D03*
X-14700Y11500D02*
D03*
Y12500D02*
D03*
D21*
X-9000Y-2000D02*
D03*
X-10000D02*
D03*
X-11000D02*
D03*
X-15000D02*
D03*
X-13000D02*
D03*
X-12000D02*
D03*
X-8000D02*
D03*
X-14000D02*
D03*
X-6000D02*
D03*
X-4000D02*
D03*
X-3000D02*
D03*
X-1000D02*
D03*
X-5000D02*
D03*
X-2000D02*
D03*
Y17000D02*
D03*
X-3000D02*
D03*
X-4000D02*
D03*
X-8000D02*
D03*
X-6000D02*
D03*
X-5000D02*
D03*
X-1000D02*
D03*
X-7000D02*
D03*
X-15598D02*
D03*
X-14500D02*
D03*
X-13500D02*
D03*
X-9500D02*
D03*
X-11500D02*
D03*
X-12500D02*
D03*
X-18600D02*
D03*
X-10500D02*
D03*
X-16600D02*
D03*
X-17600D02*
D03*
M02*
