G04*
G04 #@! TF.GenerationSoftware,Altium Limited,Altium Designer,22.2.1 (43)*
G04*
G04 Layer_Physical_Order=4*
G04 Layer_Color=16711680*
%FSLAX24Y24*%
%MOIN*%
G70*
G04*
G04 #@! TF.SameCoordinates,B0127B38-177D-4212-A313-A0298CA215B3*
G04*
G04*
G04 #@! TF.FilePolarity,Positive*
G04*
G01*
G75*
%ADD10C,0.0197*%
%ADD11C,0.0100*%
G04:AMPARAMS|DCode=12|XSize=76.8mil|YSize=90.6mil|CornerRadius=19.2mil|HoleSize=0mil|Usage=FLASHONLY|Rotation=0.000|XOffset=0mil|YOffset=0mil|HoleType=Round|Shape=RoundedRectangle|*
%AMROUNDEDRECTD12*
21,1,0.0768,0.0522,0,0,0.0*
21,1,0.0384,0.0906,0,0,0.0*
1,1,0.0384,0.0192,-0.0261*
1,1,0.0384,-0.0192,-0.0261*
1,1,0.0384,-0.0192,0.0261*
1,1,0.0384,0.0192,0.0261*
%
%ADD12ROUNDEDRECTD12*%
%ADD13O,0.0768X0.0906*%
%ADD14O,0.0906X0.0768*%
G04:AMPARAMS|DCode=15|XSize=76.8mil|YSize=90.6mil|CornerRadius=19.2mil|HoleSize=0mil|Usage=FLASHONLY|Rotation=90.000|XOffset=0mil|YOffset=0mil|HoleType=Round|Shape=RoundedRectangle|*
%AMROUNDEDRECTD15*
21,1,0.0768,0.0522,0,0,90.0*
21,1,0.0384,0.0906,0,0,90.0*
1,1,0.0384,0.0261,0.0192*
1,1,0.0384,0.0261,-0.0192*
1,1,0.0384,-0.0261,-0.0192*
1,1,0.0384,-0.0261,0.0192*
%
%ADD15ROUNDEDRECTD15*%
%ADD16O,0.0906X0.0669*%
G04:AMPARAMS|DCode=17|XSize=66.9mil|YSize=90.6mil|CornerRadius=16.7mil|HoleSize=0mil|Usage=FLASHONLY|Rotation=90.000|XOffset=0mil|YOffset=0mil|HoleType=Round|Shape=RoundedRectangle|*
%AMROUNDEDRECTD17*
21,1,0.0669,0.0571,0,0,90.0*
21,1,0.0335,0.0906,0,0,90.0*
1,1,0.0335,0.0285,0.0167*
1,1,0.0335,0.0285,-0.0167*
1,1,0.0335,-0.0285,-0.0167*
1,1,0.0335,-0.0285,0.0167*
%
%ADD17ROUNDEDRECTD17*%
%ADD18O,0.0669X0.0906*%
%ADD19C,0.0500*%
G04:AMPARAMS|DCode=20|XSize=37mil|YSize=40mil|CornerRadius=9.3mil|HoleSize=0mil|Usage=FLASHONLY|Rotation=90.000|XOffset=0mil|YOffset=0mil|HoleType=Round|Shape=RoundedRectangle|*
%AMROUNDEDRECTD20*
21,1,0.0370,0.0215,0,0,90.0*
21,1,0.0185,0.0400,0,0,90.0*
1,1,0.0185,0.0108,0.0093*
1,1,0.0185,0.0108,-0.0093*
1,1,0.0185,-0.0108,-0.0093*
1,1,0.0185,-0.0108,0.0093*
%
%ADD20ROUNDEDRECTD20*%
G04:AMPARAMS|DCode=21|XSize=37mil|YSize=40mil|CornerRadius=9.3mil|HoleSize=0mil|Usage=FLASHONLY|Rotation=180.000|XOffset=0mil|YOffset=0mil|HoleType=Round|Shape=RoundedRectangle|*
%AMROUNDEDRECTD21*
21,1,0.0370,0.0215,0,0,180.0*
21,1,0.0185,0.0400,0,0,180.0*
1,1,0.0185,-0.0093,0.0108*
1,1,0.0185,0.0093,0.0108*
1,1,0.0185,0.0093,-0.0108*
1,1,0.0185,-0.0093,-0.0108*
%
%ADD21ROUNDEDRECTD21*%
%ADD22R,0.0394X0.0217*%
G36*
X-500Y18000D02*
X0Y17500D01*
Y12500D01*
X1000Y11500D01*
Y-1000D01*
X0Y-2000D01*
Y-3000D01*
X-21000D01*
X-21500Y-2500D01*
Y7800D01*
Y17500D01*
X-21000Y18000D01*
X-500Y18000D01*
D02*
G37*
%LPC*%
G36*
X-15548Y17550D02*
Y17050D01*
X-15160D01*
Y17118D01*
X-15175Y17232D01*
X-15219Y17337D01*
X-15288Y17428D01*
X-15379Y17498D01*
X-15485Y17542D01*
X-15548Y17550D01*
D02*
G37*
G36*
X-15648Y17550D02*
X-15712Y17542D01*
X-15818Y17498D01*
X-15908Y17428D01*
X-15978Y17337D01*
X-16022Y17232D01*
X-16037Y17118D01*
Y17050D01*
X-15648D01*
Y17550D01*
D02*
G37*
G36*
X-15160Y16950D02*
X-15548D01*
Y16450D01*
X-15485Y16458D01*
X-15379Y16502D01*
X-15288Y16572D01*
X-15219Y16663D01*
X-15175Y16768D01*
X-15160Y16882D01*
Y16950D01*
D02*
G37*
G36*
X-15648D02*
X-16037D01*
Y16882D01*
X-16022Y16768D01*
X-15978Y16663D01*
X-15908Y16572D01*
X-15818Y16502D01*
X-15712Y16458D01*
X-15648Y16450D01*
Y16950D01*
D02*
G37*
G36*
X-1000Y17557D02*
X-1113Y17542D01*
X-1219Y17498D01*
X-1310Y17428D01*
X-1380Y17337D01*
X-1423Y17232D01*
X-1438Y17118D01*
Y16882D01*
X-1423Y16768D01*
X-1380Y16663D01*
X-1310Y16572D01*
X-1219Y16502D01*
X-1113Y16458D01*
X-1000Y16443D01*
X-887Y16458D01*
X-781Y16502D01*
X-690Y16572D01*
X-620Y16663D01*
X-577Y16768D01*
X-562Y16882D01*
Y17118D01*
X-577Y17232D01*
X-620Y17337D01*
X-690Y17428D01*
X-781Y17498D01*
X-887Y17542D01*
X-1000Y17557D01*
D02*
G37*
G36*
X-2000D02*
X-2113Y17542D01*
X-2219Y17498D01*
X-2310Y17428D01*
X-2380Y17337D01*
X-2423Y17232D01*
X-2438Y17118D01*
Y16882D01*
X-2423Y16768D01*
X-2380Y16663D01*
X-2310Y16572D01*
X-2219Y16502D01*
X-2113Y16458D01*
X-2000Y16443D01*
X-1887Y16458D01*
X-1781Y16502D01*
X-1690Y16572D01*
X-1620Y16663D01*
X-1577Y16768D01*
X-1562Y16882D01*
Y17118D01*
X-1577Y17232D01*
X-1620Y17337D01*
X-1690Y17428D01*
X-1781Y17498D01*
X-1887Y17542D01*
X-2000Y17557D01*
D02*
G37*
G36*
X-3000D02*
X-3113Y17542D01*
X-3219Y17498D01*
X-3310Y17428D01*
X-3380Y17337D01*
X-3423Y17232D01*
X-3438Y17118D01*
Y16882D01*
X-3423Y16768D01*
X-3380Y16663D01*
X-3310Y16572D01*
X-3219Y16502D01*
X-3113Y16458D01*
X-3000Y16443D01*
X-2887Y16458D01*
X-2781Y16502D01*
X-2690Y16572D01*
X-2620Y16663D01*
X-2577Y16768D01*
X-2562Y16882D01*
Y17118D01*
X-2577Y17232D01*
X-2620Y17337D01*
X-2690Y17428D01*
X-2781Y17498D01*
X-2887Y17542D01*
X-3000Y17557D01*
D02*
G37*
G36*
X-5000D02*
X-5113Y17542D01*
X-5219Y17498D01*
X-5310Y17428D01*
X-5380Y17337D01*
X-5423Y17232D01*
X-5438Y17118D01*
Y16882D01*
X-5423Y16768D01*
X-5380Y16663D01*
X-5310Y16572D01*
X-5219Y16502D01*
X-5113Y16458D01*
X-5000Y16443D01*
X-4887Y16458D01*
X-4781Y16502D01*
X-4690Y16572D01*
X-4620Y16663D01*
X-4577Y16768D01*
X-4562Y16882D01*
Y17118D01*
X-4577Y17232D01*
X-4620Y17337D01*
X-4690Y17428D01*
X-4781Y17498D01*
X-4887Y17542D01*
X-5000Y17557D01*
D02*
G37*
G36*
X-7000D02*
X-7113Y17542D01*
X-7219Y17498D01*
X-7310Y17428D01*
X-7380Y17337D01*
X-7423Y17232D01*
X-7438Y17118D01*
Y16882D01*
X-7423Y16768D01*
X-7380Y16663D01*
X-7310Y16572D01*
X-7219Y16502D01*
X-7113Y16458D01*
X-7000Y16443D01*
X-6887Y16458D01*
X-6781Y16502D01*
X-6690Y16572D01*
X-6620Y16663D01*
X-6577Y16768D01*
X-6562Y16882D01*
Y17118D01*
X-6577Y17232D01*
X-6620Y17337D01*
X-6690Y17428D01*
X-6781Y17498D01*
X-6887Y17542D01*
X-7000Y17557D01*
D02*
G37*
G36*
X-8000D02*
X-8113Y17542D01*
X-8219Y17498D01*
X-8310Y17428D01*
X-8380Y17337D01*
X-8423Y17232D01*
X-8438Y17118D01*
Y16882D01*
X-8423Y16768D01*
X-8380Y16663D01*
X-8310Y16572D01*
X-8219Y16502D01*
X-8113Y16458D01*
X-8000Y16443D01*
X-7887Y16458D01*
X-7781Y16502D01*
X-7690Y16572D01*
X-7620Y16663D01*
X-7577Y16768D01*
X-7562Y16882D01*
Y17118D01*
X-7577Y17232D01*
X-7620Y17337D01*
X-7690Y17428D01*
X-7781Y17498D01*
X-7887Y17542D01*
X-8000Y17557D01*
D02*
G37*
G36*
X-10500D02*
X-10613Y17542D01*
X-10719Y17498D01*
X-10810Y17428D01*
X-10880Y17337D01*
X-10923Y17232D01*
X-10938Y17118D01*
Y16882D01*
X-10923Y16768D01*
X-10880Y16663D01*
X-10810Y16572D01*
X-10719Y16502D01*
X-10613Y16458D01*
X-10500Y16443D01*
X-10387Y16458D01*
X-10281Y16502D01*
X-10190Y16572D01*
X-10120Y16663D01*
X-10077Y16768D01*
X-10062Y16882D01*
Y17118D01*
X-10077Y17232D01*
X-10120Y17337D01*
X-10190Y17428D01*
X-10281Y17498D01*
X-10387Y17542D01*
X-10500Y17557D01*
D02*
G37*
G36*
X-12500D02*
X-12613Y17542D01*
X-12719Y17498D01*
X-12810Y17428D01*
X-12880Y17337D01*
X-12923Y17232D01*
X-12938Y17118D01*
Y16882D01*
X-12923Y16768D01*
X-12880Y16663D01*
X-12810Y16572D01*
X-12719Y16502D01*
X-12613Y16458D01*
X-12500Y16443D01*
X-12387Y16458D01*
X-12281Y16502D01*
X-12190Y16572D01*
X-12120Y16663D01*
X-12077Y16768D01*
X-12062Y16882D01*
Y17118D01*
X-12077Y17232D01*
X-12120Y17337D01*
X-12190Y17428D01*
X-12281Y17498D01*
X-12387Y17542D01*
X-12500Y17557D01*
D02*
G37*
G36*
X-13500D02*
X-13613Y17542D01*
X-13719Y17498D01*
X-13810Y17428D01*
X-13880Y17337D01*
X-13923Y17232D01*
X-13938Y17118D01*
Y16882D01*
X-13923Y16768D01*
X-13916Y16752D01*
X-16143Y14525D01*
X-16187Y14459D01*
X-16202Y14382D01*
Y8926D01*
X-16231Y8906D01*
X-16274Y8843D01*
X-16289Y8767D01*
Y8553D01*
X-16274Y8477D01*
X-16231Y8414D01*
X-16168Y8371D01*
X-16092Y8356D01*
X-15907D01*
X-15832Y8371D01*
X-15769Y8414D01*
X-15726Y8477D01*
X-15711Y8553D01*
Y8767D01*
X-15726Y8843D01*
X-15769Y8906D01*
X-15798Y8926D01*
Y14298D01*
X-13630Y16465D01*
X-13613Y16458D01*
X-13500Y16443D01*
X-13387Y16458D01*
X-13281Y16502D01*
X-13190Y16572D01*
X-13120Y16663D01*
X-13077Y16768D01*
X-13062Y16882D01*
Y17118D01*
X-13077Y17232D01*
X-13120Y17337D01*
X-13190Y17428D01*
X-13281Y17498D01*
X-13387Y17542D01*
X-13500Y17557D01*
D02*
G37*
G36*
X-14500D02*
X-14613Y17542D01*
X-14719Y17498D01*
X-14810Y17428D01*
X-14880Y17337D01*
X-14923Y17232D01*
X-14938Y17118D01*
Y16882D01*
X-14923Y16768D01*
X-14916Y16752D01*
X-17143Y14525D01*
X-17187Y14459D01*
X-17202Y14382D01*
Y12570D01*
X-17252Y12567D01*
X-17258Y12613D01*
X-17302Y12719D01*
X-17372Y12810D01*
X-17463Y12880D01*
X-17568Y12923D01*
X-17682Y12938D01*
X-17918D01*
X-18032Y12923D01*
X-18137Y12880D01*
X-18228Y12810D01*
X-18298Y12719D01*
X-18342Y12613D01*
X-18357Y12500D01*
X-18342Y12387D01*
X-18298Y12281D01*
X-18228Y12190D01*
X-18137Y12120D01*
X-18032Y12077D01*
X-17918Y12062D01*
X-17682D01*
X-17568Y12077D01*
X-17463Y12120D01*
X-17372Y12190D01*
X-17302Y12281D01*
X-17258Y12387D01*
X-17252Y12433D01*
X-17202Y12430D01*
Y11570D01*
X-17252Y11567D01*
X-17258Y11613D01*
X-17302Y11719D01*
X-17372Y11810D01*
X-17463Y11880D01*
X-17568Y11923D01*
X-17682Y11938D01*
X-17918D01*
X-18032Y11923D01*
X-18137Y11880D01*
X-18228Y11810D01*
X-18298Y11719D01*
X-18342Y11613D01*
X-18357Y11500D01*
X-18342Y11387D01*
X-18298Y11281D01*
X-18228Y11190D01*
X-18137Y11120D01*
X-18032Y11077D01*
X-17918Y11062D01*
X-17682D01*
X-17568Y11077D01*
X-17463Y11120D01*
X-17372Y11190D01*
X-17302Y11281D01*
X-17258Y11387D01*
X-17252Y11433D01*
X-17202Y11430D01*
Y10727D01*
X-17252Y10723D01*
X-17254Y10737D01*
X-17281Y10802D01*
X-17324Y10858D01*
X-17380Y10901D01*
X-17445Y10928D01*
X-17515Y10937D01*
X-17750D01*
Y10500D01*
Y10063D01*
X-17515D01*
X-17445Y10072D01*
X-17380Y10099D01*
X-17324Y10142D01*
X-17281Y10198D01*
X-17254Y10263D01*
X-17252Y10277D01*
X-17202Y10273D01*
Y9084D01*
X-17424Y8862D01*
X-18739D01*
X-18769Y8906D01*
X-18832Y8949D01*
X-18908Y8964D01*
X-19093D01*
X-19168Y8949D01*
X-19231Y8906D01*
X-19274Y8843D01*
X-19289Y8767D01*
Y8553D01*
X-19274Y8477D01*
X-19231Y8414D01*
X-19168Y8371D01*
X-19093Y8356D01*
X-18908D01*
X-18832Y8371D01*
X-18769Y8414D01*
X-18739Y8458D01*
X-17340D01*
X-17263Y8473D01*
X-17197Y8517D01*
X-16857Y8857D01*
X-16813Y8923D01*
X-16798Y9000D01*
Y14298D01*
X-14630Y16465D01*
X-14613Y16458D01*
X-14500Y16443D01*
X-14387Y16458D01*
X-14281Y16502D01*
X-14190Y16572D01*
X-14120Y16663D01*
X-14077Y16768D01*
X-14062Y16882D01*
Y17118D01*
X-14077Y17232D01*
X-14120Y17337D01*
X-14190Y17428D01*
X-14281Y17498D01*
X-14387Y17542D01*
X-14500Y17557D01*
D02*
G37*
G36*
X-16600D02*
X-16713Y17542D01*
X-16819Y17498D01*
X-16910Y17428D01*
X-16980Y17337D01*
X-17023Y17232D01*
X-17038Y17118D01*
Y16882D01*
X-17023Y16768D01*
X-16980Y16663D01*
X-16910Y16572D01*
X-16819Y16502D01*
X-16713Y16458D01*
X-16600Y16443D01*
X-16487Y16458D01*
X-16381Y16502D01*
X-16290Y16572D01*
X-16220Y16663D01*
X-16177Y16768D01*
X-16162Y16882D01*
Y17118D01*
X-16177Y17232D01*
X-16220Y17337D01*
X-16290Y17428D01*
X-16381Y17498D01*
X-16487Y17542D01*
X-16600Y17557D01*
D02*
G37*
G36*
X-17600D02*
X-17713Y17542D01*
X-17819Y17498D01*
X-17910Y17428D01*
X-17980Y17337D01*
X-18023Y17232D01*
X-18038Y17118D01*
Y16882D01*
X-18023Y16768D01*
X-17980Y16663D01*
X-17910Y16572D01*
X-17819Y16502D01*
X-17713Y16458D01*
X-17600Y16443D01*
X-17487Y16458D01*
X-17381Y16502D01*
X-17290Y16572D01*
X-17220Y16663D01*
X-17177Y16768D01*
X-17162Y16882D01*
Y17118D01*
X-17177Y17232D01*
X-17220Y17337D01*
X-17290Y17428D01*
X-17381Y17498D01*
X-17487Y17542D01*
X-17600Y17557D01*
D02*
G37*
G36*
X-18600D02*
X-18713Y17542D01*
X-18819Y17498D01*
X-18910Y17428D01*
X-18980Y17337D01*
X-19023Y17232D01*
X-19038Y17118D01*
Y16882D01*
X-19023Y16768D01*
X-18980Y16663D01*
X-18910Y16572D01*
X-18819Y16502D01*
X-18713Y16458D01*
X-18600Y16443D01*
X-18487Y16458D01*
X-18381Y16502D01*
X-18290Y16572D01*
X-18220Y16663D01*
X-18177Y16768D01*
X-18162Y16882D01*
Y17118D01*
X-18177Y17232D01*
X-18220Y17337D01*
X-18290Y17428D01*
X-18381Y17498D01*
X-18487Y17542D01*
X-18600Y17557D01*
D02*
G37*
G36*
X-19938Y17727D02*
X-20062D01*
X-20071Y17725D01*
X-20081D01*
X-20202Y17701D01*
X-20211Y17697D01*
X-20221Y17695D01*
X-20335Y17648D01*
X-20343Y17642D01*
X-20353Y17639D01*
X-20455Y17570D01*
X-20462Y17563D01*
X-20471Y17558D01*
X-20558Y17471D01*
X-20563Y17462D01*
X-20570Y17455D01*
X-20639Y17353D01*
X-20642Y17343D01*
X-20648Y17335D01*
X-20695Y17221D01*
X-20697Y17211D01*
X-20701Y17202D01*
X-20725Y17081D01*
Y17071D01*
X-20727Y17062D01*
Y16938D01*
X-20725Y16929D01*
Y16919D01*
X-20701Y16798D01*
X-20697Y16789D01*
X-20695Y16779D01*
X-20648Y16665D01*
X-20642Y16657D01*
X-20639Y16647D01*
X-20570Y16545D01*
X-20563Y16538D01*
X-20558Y16529D01*
X-20471Y16442D01*
X-20462Y16437D01*
X-20455Y16430D01*
X-20353Y16361D01*
X-20343Y16358D01*
X-20335Y16352D01*
X-20221Y16305D01*
X-20211Y16303D01*
X-20202Y16299D01*
X-20081Y16275D01*
X-20071D01*
X-20062Y16273D01*
X-19938D01*
X-19929Y16275D01*
X-19919D01*
X-19798Y16299D01*
X-19789Y16303D01*
X-19779Y16305D01*
X-19665Y16352D01*
X-19657Y16358D01*
X-19647Y16361D01*
X-19545Y16430D01*
X-19538Y16437D01*
X-19529Y16442D01*
X-19442Y16529D01*
X-19437Y16538D01*
X-19430Y16545D01*
X-19361Y16647D01*
X-19358Y16657D01*
X-19352Y16665D01*
X-19305Y16779D01*
X-19303Y16789D01*
X-19299Y16798D01*
X-19275Y16919D01*
Y16929D01*
X-19273Y16938D01*
Y17062D01*
X-19275Y17071D01*
Y17081D01*
X-19299Y17202D01*
X-19303Y17211D01*
X-19305Y17221D01*
X-19352Y17335D01*
X-19358Y17343D01*
X-19361Y17353D01*
X-19430Y17455D01*
X-19437Y17462D01*
X-19442Y17471D01*
X-19529Y17558D01*
X-19538Y17563D01*
X-19545Y17570D01*
X-19647Y17639D01*
X-19657Y17642D01*
X-19665Y17648D01*
X-19779Y17695D01*
X-19789Y17697D01*
X-19798Y17701D01*
X-19919Y17725D01*
X-19929D01*
X-19938Y17727D01*
D02*
G37*
G36*
X-11500Y17557D02*
X-11613Y17542D01*
X-11719Y17498D01*
X-11810Y17428D01*
X-11880Y17337D01*
X-11923Y17232D01*
X-11938Y17118D01*
Y16882D01*
X-11923Y16768D01*
X-11880Y16663D01*
X-11810Y16572D01*
X-11719Y16502D01*
X-11698Y16493D01*
Y16207D01*
X-11737Y16181D01*
X-11780Y16117D01*
X-11794Y16042D01*
Y15857D01*
X-11780Y15782D01*
X-11737Y15718D01*
X-11673Y15676D01*
X-11598Y15661D01*
X-11383D01*
X-11308Y15676D01*
X-11244Y15718D01*
X-11202Y15782D01*
X-11187Y15857D01*
Y16042D01*
X-11202Y16117D01*
X-11244Y16181D01*
X-11293Y16214D01*
Y16497D01*
X-11281Y16502D01*
X-11190Y16572D01*
X-11120Y16663D01*
X-11077Y16768D01*
X-11062Y16882D01*
Y17118D01*
X-11077Y17232D01*
X-11120Y17337D01*
X-11190Y17428D01*
X-11281Y17498D01*
X-11387Y17542D01*
X-11500Y17557D01*
D02*
G37*
G36*
X-9500D02*
X-9613Y17542D01*
X-9719Y17498D01*
X-9810Y17428D01*
X-9880Y17337D01*
X-9923Y17232D01*
X-9938Y17118D01*
Y16882D01*
X-9923Y16768D01*
X-9880Y16663D01*
X-9810Y16572D01*
X-9719Y16502D01*
X-9709Y16498D01*
Y16210D01*
X-9759Y16176D01*
X-9801Y16112D01*
X-9816Y16037D01*
Y15852D01*
X-9801Y15777D01*
X-9759Y15714D01*
X-9695Y15671D01*
X-9620Y15656D01*
X-9405D01*
X-9330Y15671D01*
X-9266Y15714D01*
X-9224Y15777D01*
X-9209Y15852D01*
Y16037D01*
X-9224Y16112D01*
X-9266Y16176D01*
X-9304Y16201D01*
Y16493D01*
X-9281Y16502D01*
X-9190Y16572D01*
X-9120Y16663D01*
X-9077Y16768D01*
X-9062Y16882D01*
Y17118D01*
X-9077Y17232D01*
X-9120Y17337D01*
X-9190Y17428D01*
X-9281Y17498D01*
X-9387Y17542D01*
X-9500Y17557D01*
D02*
G37*
G36*
X-10065Y16234D02*
X-10280D01*
X-10355Y16219D01*
X-10419Y16176D01*
X-10438Y16147D01*
X-10630D01*
X-10707Y16132D01*
X-10773Y16088D01*
X-11560Y15301D01*
X-11604Y15235D01*
X-11620Y15157D01*
Y14454D01*
X-11752Y14322D01*
X-11811Y14329D01*
X-11902Y14317D01*
X-11988Y14282D01*
X-12061Y14226D01*
X-12117Y14153D01*
X-12152Y14068D01*
X-12164Y13976D01*
X-12152Y13885D01*
X-12117Y13800D01*
X-12061Y13727D01*
X-11988Y13671D01*
X-11902Y13635D01*
X-11811Y13623D01*
X-11720Y13635D01*
X-11635Y13671D01*
X-11561Y13727D01*
X-11505Y13800D01*
X-11470Y13885D01*
X-11458Y13976D01*
X-11466Y14036D01*
X-11274Y14227D01*
X-11230Y14293D01*
X-11215Y14370D01*
Y14516D01*
X-11165Y14531D01*
X-11160Y14524D01*
X-11096Y14481D01*
X-11021Y14467D01*
X-10964D01*
Y14755D01*
Y15044D01*
X-11021D01*
X-11096Y15029D01*
X-11160Y14987D01*
X-11165Y14979D01*
X-11215Y14994D01*
Y15074D01*
X-10546Y15743D01*
X-10438D01*
X-10419Y15714D01*
X-10355Y15671D01*
X-10280Y15656D01*
X-10065D01*
X-9990Y15671D01*
X-9926Y15714D01*
X-9884Y15777D01*
X-9869Y15852D01*
Y16037D01*
X-9884Y16112D01*
X-9926Y16176D01*
X-9990Y16219D01*
X-10065Y16234D01*
D02*
G37*
G36*
X-4830Y15044D02*
X-4888D01*
Y14805D01*
X-4634D01*
Y14848D01*
X-4649Y14923D01*
X-4691Y14987D01*
X-4755Y15029D01*
X-4830Y15044D01*
D02*
G37*
G36*
X-10806D02*
X-10864D01*
Y14805D01*
X-10610D01*
Y14848D01*
X-10625Y14923D01*
X-10668Y14987D01*
X-10731Y15029D01*
X-10806Y15044D01*
D02*
G37*
G36*
X-4988D02*
X-5045D01*
X-5120Y15029D01*
X-5184Y14987D01*
X-5226Y14923D01*
X-5241Y14848D01*
Y14805D01*
X-4988D01*
Y15044D01*
D02*
G37*
G36*
X-6000Y17557D02*
X-6113Y17542D01*
X-6219Y17498D01*
X-6310Y17428D01*
X-6380Y17337D01*
X-6423Y17232D01*
X-6438Y17118D01*
Y16882D01*
X-6423Y16768D01*
X-6380Y16663D01*
X-6310Y16572D01*
X-6219Y16502D01*
X-6202Y16495D01*
Y14834D01*
X-6364Y14672D01*
X-7405D01*
Y14731D01*
X-7415Y14807D01*
X-7444Y14878D01*
X-7491Y14939D01*
X-7552Y14986D01*
X-7623Y15015D01*
X-7699Y15025D01*
X-8083D01*
X-8160Y15015D01*
X-8231Y14986D01*
X-8292Y14939D01*
X-8338Y14878D01*
X-8368Y14807D01*
X-8378Y14731D01*
Y14694D01*
X-8428Y14684D01*
X-8469Y14783D01*
X-8546Y14884D01*
X-8647Y14961D01*
X-8765Y15010D01*
X-8891Y15027D01*
X-9018Y15010D01*
X-9135Y14961D01*
X-9237Y14884D01*
X-9314Y14783D01*
X-9363Y14665D01*
X-9373Y14588D01*
X-9926D01*
X-9957Y14626D01*
X-9950Y14663D01*
Y14848D01*
X-9965Y14923D01*
X-10008Y14987D01*
X-10071Y15029D01*
X-10146Y15044D01*
X-10361D01*
X-10436Y15029D01*
X-10500Y14987D01*
X-10543Y14923D01*
X-10558Y14848D01*
Y14663D01*
X-10543Y14588D01*
X-10500Y14524D01*
X-10456Y14495D01*
Y14282D01*
X-10470Y14280D01*
X-10534Y14237D01*
X-10576Y14174D01*
X-10591Y14098D01*
Y13913D01*
X-10576Y13838D01*
X-10534Y13775D01*
X-10470Y13732D01*
X-10395Y13717D01*
X-10180D01*
X-10105Y13732D01*
X-10041Y13775D01*
X-9999Y13838D01*
X-9984Y13913D01*
Y14098D01*
X-9991Y14133D01*
X-9950Y14183D01*
X-9325D01*
X-9314Y14157D01*
X-9237Y14056D01*
X-9135Y13978D01*
X-9018Y13930D01*
X-8891Y13913D01*
X-8765Y13930D01*
X-8647Y13978D01*
X-8546Y14056D01*
X-8469Y14157D01*
X-8428Y14256D01*
X-8378Y14246D01*
Y14209D01*
X-8368Y14133D01*
X-8338Y14062D01*
X-8292Y14001D01*
X-8231Y13954D01*
X-8160Y13925D01*
X-8083Y13915D01*
X-7699D01*
X-7623Y13925D01*
X-7552Y13954D01*
X-7491Y14001D01*
X-7444Y14062D01*
X-7415Y14133D01*
X-7405Y14209D01*
Y14268D01*
X-6280D01*
X-6203Y14283D01*
X-6137Y14327D01*
X-5857Y14607D01*
X-5813Y14673D01*
X-5798Y14750D01*
Y16495D01*
X-5781Y16502D01*
X-5690Y16572D01*
X-5620Y16663D01*
X-5577Y16768D01*
X-5562Y16882D01*
Y17118D01*
X-5577Y17232D01*
X-5620Y17337D01*
X-5690Y17428D01*
X-5781Y17498D01*
X-5887Y17542D01*
X-6000Y17557D01*
D02*
G37*
G36*
X-4634Y14705D02*
X-4888D01*
Y14467D01*
X-4830D01*
X-4755Y14481D01*
X-4691Y14524D01*
X-4649Y14588D01*
X-4634Y14663D01*
Y14705D01*
D02*
G37*
G36*
X-4988D02*
X-5241D01*
Y14663D01*
X-5226Y14588D01*
X-5184Y14524D01*
X-5120Y14481D01*
X-5045Y14467D01*
X-4988D01*
Y14705D01*
D02*
G37*
G36*
X-10610D02*
X-10864D01*
Y14467D01*
X-10806D01*
X-10731Y14481D01*
X-10668Y14524D01*
X-10625Y14588D01*
X-10610Y14663D01*
Y14705D01*
D02*
G37*
G36*
X-4000Y17557D02*
X-4113Y17542D01*
X-4219Y17498D01*
X-4310Y17428D01*
X-4380Y17337D01*
X-4423Y17232D01*
X-4438Y17118D01*
Y16882D01*
X-4423Y16768D01*
X-4380Y16663D01*
X-4310Y16572D01*
X-4219Y16502D01*
X-4202Y16495D01*
Y15834D01*
X-4483Y15553D01*
X-4527Y15487D01*
X-4542Y15410D01*
Y14959D01*
X-4566Y14923D01*
X-4581Y14848D01*
Y14663D01*
X-4566Y14588D01*
X-4524Y14524D01*
X-4480Y14495D01*
Y14311D01*
X-4524Y14282D01*
X-4566Y14218D01*
X-4581Y14143D01*
Y13958D01*
X-4566Y13883D01*
X-4524Y13819D01*
X-4460Y13776D01*
X-4385Y13762D01*
X-4170D01*
X-4095Y13776D01*
X-4031Y13819D01*
X-3989Y13883D01*
X-3974Y13958D01*
Y14143D01*
X-3981Y14180D01*
X-3964Y14200D01*
X-3887Y14216D01*
X-3869Y14227D01*
X-3420D01*
X-3391Y14157D01*
X-3313Y14056D01*
X-3212Y13978D01*
X-3094Y13930D01*
X-2968Y13913D01*
X-2842Y13930D01*
X-2724Y13978D01*
X-2623Y14056D01*
X-2545Y14157D01*
X-2504Y14256D01*
X-2454Y14246D01*
Y14209D01*
X-2444Y14133D01*
X-2415Y14062D01*
X-2368Y14001D01*
X-2307Y13954D01*
X-2236Y13925D01*
X-2160Y13915D01*
X-1776D01*
X-1700Y13925D01*
X-1629Y13954D01*
X-1568Y14001D01*
X-1521Y14062D01*
X-1492Y14133D01*
X-1482Y14209D01*
Y14731D01*
X-1492Y14807D01*
X-1521Y14878D01*
X-1568Y14939D01*
X-1629Y14986D01*
X-1700Y15015D01*
X-1776Y15025D01*
X-2160D01*
X-2236Y15015D01*
X-2307Y14986D01*
X-2368Y14939D01*
X-2415Y14878D01*
X-2444Y14807D01*
X-2454Y14731D01*
Y14694D01*
X-2504Y14684D01*
X-2545Y14783D01*
X-2623Y14884D01*
X-2724Y14961D01*
X-2842Y15010D01*
X-2968Y15027D01*
X-3094Y15010D01*
X-3212Y14961D01*
X-3313Y14884D01*
X-3391Y14783D01*
X-3439Y14665D01*
X-3444Y14632D01*
X-3929D01*
X-3948Y14645D01*
X-3974Y14676D01*
Y14848D01*
X-3989Y14923D01*
X-4031Y14987D01*
X-4095Y15029D01*
X-4138Y15038D01*
Y15326D01*
X-3857Y15607D01*
X-3813Y15673D01*
X-3798Y15750D01*
Y16495D01*
X-3781Y16502D01*
X-3690Y16572D01*
X-3620Y16663D01*
X-3577Y16768D01*
X-3562Y16882D01*
Y17118D01*
X-3577Y17232D01*
X-3620Y17337D01*
X-3690Y17428D01*
X-3781Y17498D01*
X-3887Y17542D01*
X-4000Y17557D01*
D02*
G37*
G36*
X-12043Y16239D02*
X-12258D01*
X-12333Y16224D01*
X-12397Y16181D01*
X-12440Y16117D01*
X-12454Y16042D01*
Y15857D01*
X-12440Y15782D01*
X-12397Y15718D01*
X-12353Y15689D01*
Y14933D01*
X-12683Y14603D01*
X-12727Y14537D01*
X-12743Y14460D01*
Y14295D01*
X-12775Y14282D01*
X-12848Y14226D01*
X-12904Y14153D01*
X-12939Y14068D01*
X-12951Y13976D01*
X-12939Y13885D01*
X-12904Y13800D01*
X-12848Y13727D01*
X-12775Y13671D01*
X-12690Y13635D01*
X-12598Y13623D01*
X-12507Y13635D01*
X-12422Y13671D01*
X-12349Y13727D01*
X-12293Y13800D01*
X-12257Y13885D01*
X-12245Y13976D01*
X-12257Y14068D01*
X-12293Y14153D01*
X-12338Y14212D01*
Y14376D01*
X-12008Y14706D01*
X-11964Y14772D01*
X-11948Y14849D01*
Y15689D01*
X-11904Y15718D01*
X-11862Y15782D01*
X-11847Y15857D01*
Y16042D01*
X-11862Y16117D01*
X-11904Y16181D01*
X-11968Y16224D01*
X-12043Y16239D01*
D02*
G37*
G36*
X-4830Y14339D02*
X-5045D01*
X-5120Y14324D01*
X-5184Y14282D01*
X-5226Y14218D01*
X-5241Y14143D01*
Y13958D01*
X-5226Y13883D01*
X-5184Y13819D01*
X-5140Y13790D01*
Y13482D01*
X-5193D01*
Y13066D01*
X-4599D01*
Y13482D01*
X-4735D01*
Y13790D01*
X-4691Y13819D01*
X-4649Y13883D01*
X-4634Y13958D01*
Y14143D01*
X-4649Y14218D01*
X-4691Y14282D01*
X-4755Y14324D01*
X-4830Y14339D01*
D02*
G37*
G36*
X-10840Y14295D02*
X-11055D01*
X-11130Y14280D01*
X-11194Y14237D01*
X-11236Y14174D01*
X-11251Y14098D01*
Y13913D01*
X-11236Y13838D01*
X-11194Y13775D01*
X-11153Y13748D01*
Y13456D01*
X-11252D01*
Y13040D01*
X-10658D01*
Y13456D01*
X-10749D01*
Y13743D01*
X-10701Y13775D01*
X-10659Y13838D01*
X-10644Y13913D01*
Y14098D01*
X-10659Y14174D01*
X-10701Y14237D01*
X-10765Y14280D01*
X-10840Y14295D01*
D02*
G37*
G36*
X-19191Y12698D02*
X-19391D01*
Y12498D01*
X-19191D01*
Y12698D01*
D02*
G37*
G36*
X-14582Y12938D02*
X-14818D01*
X-14932Y12923D01*
X-15037Y12880D01*
X-15128Y12810D01*
X-15198Y12719D01*
X-15242Y12613D01*
X-15257Y12500D01*
X-15242Y12387D01*
X-15198Y12281D01*
X-15128Y12190D01*
X-15037Y12120D01*
X-14932Y12077D01*
X-14818Y12062D01*
X-14582D01*
X-14468Y12077D01*
X-14363Y12120D01*
X-14272Y12190D01*
X-14202Y12281D01*
X-14158Y12387D01*
X-14143Y12500D01*
X-14158Y12613D01*
X-14202Y12719D01*
X-14272Y12810D01*
X-14363Y12880D01*
X-14468Y12923D01*
X-14582Y12938D01*
D02*
G37*
G36*
X-14415Y10937D02*
X-14650D01*
Y10550D01*
X-14145D01*
Y10667D01*
X-14154Y10737D01*
X-14181Y10802D01*
X-14224Y10858D01*
X-14280Y10901D01*
X-14345Y10928D01*
X-14415Y10937D01*
D02*
G37*
G36*
X-14750D02*
X-14985D01*
X-15055Y10928D01*
X-15120Y10901D01*
X-15176Y10858D01*
X-15219Y10802D01*
X-15246Y10737D01*
X-15255Y10667D01*
Y10550D01*
X-14750D01*
Y10937D01*
D02*
G37*
G36*
X-17850D02*
X-18085D01*
X-18155Y10928D01*
X-18220Y10901D01*
X-18276Y10858D01*
X-18319Y10802D01*
X-18346Y10737D01*
X-18355Y10667D01*
Y10550D01*
X-17850D01*
Y10937D01*
D02*
G37*
G36*
X62Y11727D02*
X-62D01*
X-71Y11725D01*
X-81D01*
X-202Y11701D01*
X-211Y11697D01*
X-221Y11695D01*
X-335Y11648D01*
X-343Y11642D01*
X-353Y11639D01*
X-455Y11570D01*
X-462Y11563D01*
X-471Y11558D01*
X-558Y11471D01*
X-563Y11462D01*
X-570Y11455D01*
X-639Y11353D01*
X-642Y11343D01*
X-648Y11335D01*
X-695Y11221D01*
X-697Y11211D01*
X-701Y11202D01*
X-725Y11081D01*
Y11071D01*
X-727Y11062D01*
Y10938D01*
X-725Y10929D01*
Y10919D01*
X-701Y10798D01*
X-697Y10789D01*
X-695Y10779D01*
X-648Y10665D01*
X-642Y10657D01*
X-639Y10647D01*
X-570Y10545D01*
X-563Y10538D01*
X-558Y10529D01*
X-471Y10442D01*
X-462Y10437D01*
X-455Y10430D01*
X-353Y10361D01*
X-343Y10358D01*
X-335Y10352D01*
X-221Y10305D01*
X-211Y10303D01*
X-202Y10299D01*
X-81Y10275D01*
X-71D01*
X-62Y10273D01*
X62D01*
X71Y10275D01*
X81D01*
X202Y10299D01*
X211Y10303D01*
X221Y10305D01*
X335Y10352D01*
X343Y10358D01*
X353Y10361D01*
X455Y10430D01*
X462Y10437D01*
X471Y10442D01*
X558Y10529D01*
X563Y10538D01*
X570Y10545D01*
X639Y10647D01*
X642Y10657D01*
X648Y10665D01*
X695Y10779D01*
X697Y10789D01*
X701Y10798D01*
X725Y10919D01*
Y10929D01*
X727Y10938D01*
Y11062D01*
X725Y11071D01*
Y11081D01*
X701Y11202D01*
X697Y11211D01*
X695Y11221D01*
X648Y11335D01*
X642Y11343D01*
X639Y11353D01*
X570Y11455D01*
X563Y11462D01*
X558Y11471D01*
X471Y11558D01*
X462Y11563D01*
X455Y11570D01*
X353Y11639D01*
X343Y11642D01*
X335Y11648D01*
X221Y11695D01*
X211Y11697D01*
X202Y11701D01*
X81Y11725D01*
X71D01*
X62Y11727D01*
D02*
G37*
G36*
X-5022Y10303D02*
X-5079D01*
Y10064D01*
X-4826D01*
Y10106D01*
X-4841Y10182D01*
X-4883Y10245D01*
X-4947Y10288D01*
X-5022Y10303D01*
D02*
G37*
G36*
X-5179D02*
X-5237D01*
X-5312Y10288D01*
X-5376Y10245D01*
X-5418Y10182D01*
X-5433Y10106D01*
Y10064D01*
X-5179D01*
Y10303D01*
D02*
G37*
G36*
X-14145Y10450D02*
X-14650D01*
Y10063D01*
X-14415D01*
X-14345Y10072D01*
X-14280Y10099D01*
X-14224Y10142D01*
X-14181Y10198D01*
X-14154Y10263D01*
X-14145Y10333D01*
Y10450D01*
D02*
G37*
G36*
X-14750D02*
X-15255D01*
Y10333D01*
X-15246Y10263D01*
X-15219Y10198D01*
X-15176Y10142D01*
X-15120Y10099D01*
X-15055Y10072D01*
X-14985Y10063D01*
X-14750D01*
Y10450D01*
D02*
G37*
G36*
X-17850D02*
X-18355D01*
Y10333D01*
X-18346Y10263D01*
X-18319Y10198D01*
X-18276Y10142D01*
X-18220Y10099D01*
X-18155Y10072D01*
X-18085Y10063D01*
X-17850D01*
Y10450D01*
D02*
G37*
G36*
X-7972Y10289D02*
X-8030D01*
Y10050D01*
X-7776D01*
Y10093D01*
X-7791Y10168D01*
X-7834Y10231D01*
X-7897Y10274D01*
X-7972Y10289D01*
D02*
G37*
G36*
X-10473D02*
X-10530D01*
Y10050D01*
X-10276D01*
Y10093D01*
X-10291Y10168D01*
X-10334Y10231D01*
X-10397Y10274D01*
X-10473Y10289D01*
D02*
G37*
G36*
X-10630D02*
X-10688D01*
X-10763Y10274D01*
X-10826Y10231D01*
X-10869Y10168D01*
X-10884Y10093D01*
Y10050D01*
X-10630D01*
Y10289D01*
D02*
G37*
G36*
X-8130D02*
X-8188D01*
X-8263Y10274D01*
X-8326Y10231D01*
X-8369Y10168D01*
X-8384Y10093D01*
Y10050D01*
X-8130D01*
Y10289D01*
D02*
G37*
G36*
X-2581Y10283D02*
X-2638D01*
Y10044D01*
X-2384D01*
Y10086D01*
X-2399Y10161D01*
X-2442Y10225D01*
X-2506Y10268D01*
X-2581Y10283D01*
D02*
G37*
G36*
X-2738D02*
X-2796D01*
X-2871Y10268D01*
X-2934Y10225D01*
X-2977Y10161D01*
X-2992Y10086D01*
Y10044D01*
X-2738D01*
Y10283D01*
D02*
G37*
G36*
X-4826Y9964D02*
X-5079D01*
Y9725D01*
X-5022D01*
X-4947Y9740D01*
X-4883Y9783D01*
X-4841Y9846D01*
X-4826Y9921D01*
Y9964D01*
D02*
G37*
G36*
X-5179D02*
X-5433D01*
Y9921D01*
X-5418Y9846D01*
X-5376Y9783D01*
X-5312Y9740D01*
X-5237Y9725D01*
X-5179D01*
Y9964D01*
D02*
G37*
G36*
X-10658Y12944D02*
X-11252D01*
Y12528D01*
X-10658D01*
Y12534D01*
X-10485D01*
X-10452Y12501D01*
Y12202D01*
X-10750D01*
X-10827Y12187D01*
X-10893Y12143D01*
X-11143Y11893D01*
X-11187Y11827D01*
X-11202Y11750D01*
Y11554D01*
X-11268Y11545D01*
X-11339Y11516D01*
X-11400Y11469D01*
X-11447Y11408D01*
X-11476Y11337D01*
X-11486Y11261D01*
Y10739D01*
X-11476Y10663D01*
X-11447Y10592D01*
X-11400Y10531D01*
X-11339Y10484D01*
X-11268Y10455D01*
X-11192Y10445D01*
X-10808D01*
X-10732Y10455D01*
X-10661Y10484D01*
X-10600Y10531D01*
X-10553Y10592D01*
X-10524Y10663D01*
X-10514Y10739D01*
Y10776D01*
X-10464Y10786D01*
X-10423Y10687D01*
X-10345Y10586D01*
X-10244Y10508D01*
X-10162Y10475D01*
Y10234D01*
X-10166Y10231D01*
X-10209Y10168D01*
X-10224Y10093D01*
Y9908D01*
X-10209Y9832D01*
X-10166Y9769D01*
X-10103Y9726D01*
X-10028Y9711D01*
X-9812D01*
X-9737Y9726D01*
X-9674Y9769D01*
X-9631Y9832D01*
X-9616Y9908D01*
Y10093D01*
X-9631Y10168D01*
X-9674Y10231D01*
X-9737Y10274D01*
X-9758Y10278D01*
Y10508D01*
X-9756Y10508D01*
X-9655Y10586D01*
X-9577Y10687D01*
X-9529Y10805D01*
X-9512Y10931D01*
Y11069D01*
X-9529Y11195D01*
X-9577Y11313D01*
X-9655Y11414D01*
X-9756Y11492D01*
X-9874Y11540D01*
X-10000Y11557D01*
X-10126Y11540D01*
X-10244Y11492D01*
X-10345Y11414D01*
X-10423Y11313D01*
X-10464Y11214D01*
X-10514Y11224D01*
Y11261D01*
X-10524Y11337D01*
X-10553Y11408D01*
X-10600Y11469D01*
X-10661Y11516D01*
X-10732Y11545D01*
X-10798Y11554D01*
Y11666D01*
X-10666Y11798D01*
X-8834D01*
X-8702Y11666D01*
Y11554D01*
X-8768Y11545D01*
X-8839Y11516D01*
X-8900Y11469D01*
X-8947Y11408D01*
X-8976Y11337D01*
X-8986Y11261D01*
Y10739D01*
X-8976Y10663D01*
X-8947Y10592D01*
X-8900Y10531D01*
X-8839Y10484D01*
X-8768Y10455D01*
X-8692Y10445D01*
X-8308D01*
X-8232Y10455D01*
X-8161Y10484D01*
X-8100Y10531D01*
X-8053Y10592D01*
X-8024Y10663D01*
X-8014Y10739D01*
Y10776D01*
X-7964Y10786D01*
X-7923Y10687D01*
X-7845Y10586D01*
X-7744Y10508D01*
X-7662Y10475D01*
Y10234D01*
X-7666Y10231D01*
X-7709Y10168D01*
X-7724Y10093D01*
Y9908D01*
X-7709Y9832D01*
X-7666Y9769D01*
X-7603Y9726D01*
X-7527Y9711D01*
X-7312D01*
X-7237Y9726D01*
X-7174Y9769D01*
X-7131Y9832D01*
X-7116Y9908D01*
Y10093D01*
X-7131Y10168D01*
X-7174Y10231D01*
X-7237Y10274D01*
X-7258Y10278D01*
Y10508D01*
X-7256Y10508D01*
X-7155Y10586D01*
X-7077Y10687D01*
X-7029Y10805D01*
X-7012Y10931D01*
Y11069D01*
X-7029Y11195D01*
X-7077Y11313D01*
X-7155Y11414D01*
X-7256Y11492D01*
X-7374Y11540D01*
X-7500Y11557D01*
X-7626Y11540D01*
X-7744Y11492D01*
X-7845Y11414D01*
X-7923Y11313D01*
X-7964Y11214D01*
X-8014Y11224D01*
Y11261D01*
X-8024Y11337D01*
X-8053Y11408D01*
X-8100Y11469D01*
X-8161Y11516D01*
X-8232Y11545D01*
X-8298Y11554D01*
Y11750D01*
X-8313Y11827D01*
X-8357Y11893D01*
X-8607Y12143D01*
X-8673Y12187D01*
X-8750Y12202D01*
X-10048D01*
Y12585D01*
X-10063Y12662D01*
X-10107Y12728D01*
X-10259Y12879D01*
X-10324Y12923D01*
X-10402Y12939D01*
X-10658D01*
Y12944D01*
D02*
G37*
G36*
X-7776Y9950D02*
X-8030D01*
Y9711D01*
X-7972D01*
X-7897Y9726D01*
X-7834Y9769D01*
X-7791Y9832D01*
X-7776Y9908D01*
Y9950D01*
D02*
G37*
G36*
X-8130D02*
X-8384D01*
Y9908D01*
X-8369Y9832D01*
X-8326Y9769D01*
X-8263Y9726D01*
X-8188Y9711D01*
X-8130D01*
Y9950D01*
D02*
G37*
G36*
X-10276D02*
X-10530D01*
Y9711D01*
X-10473D01*
X-10397Y9726D01*
X-10334Y9769D01*
X-10291Y9832D01*
X-10276Y9908D01*
Y9950D01*
D02*
G37*
G36*
X-10630D02*
X-10884D01*
Y9908D01*
X-10869Y9832D01*
X-10826Y9769D01*
X-10763Y9726D01*
X-10688Y9711D01*
X-10630D01*
Y9950D01*
D02*
G37*
G36*
X-4599Y12971D02*
X-5193D01*
Y12554D01*
X-4599D01*
X-4599Y12554D01*
Y12554D01*
X-4599Y12554D01*
X-4556Y12537D01*
X-4496Y12478D01*
Y12202D01*
X-5000D01*
X-5077Y12187D01*
X-5143Y12143D01*
X-5519Y11767D01*
X-5563Y11701D01*
X-5578Y11624D01*
Y11555D01*
X-5692D01*
X-5768Y11545D01*
X-5839Y11516D01*
X-5900Y11469D01*
X-5947Y11408D01*
X-5976Y11337D01*
X-5986Y11261D01*
Y10739D01*
X-5976Y10663D01*
X-5947Y10592D01*
X-5900Y10531D01*
X-5839Y10484D01*
X-5768Y10455D01*
X-5692Y10445D01*
X-5308D01*
X-5232Y10455D01*
X-5161Y10484D01*
X-5100Y10531D01*
X-5053Y10592D01*
X-5024Y10663D01*
X-5014Y10739D01*
Y10776D01*
X-4964Y10786D01*
X-4923Y10687D01*
X-4845Y10586D01*
X-4744Y10508D01*
X-4687Y10485D01*
Y10264D01*
X-4716Y10245D01*
X-4758Y10182D01*
X-4773Y10106D01*
Y9921D01*
X-4758Y9846D01*
X-4716Y9783D01*
X-4652Y9740D01*
X-4577Y9725D01*
X-4362D01*
X-4287Y9740D01*
X-4223Y9783D01*
X-4181Y9846D01*
X-4166Y9921D01*
Y10106D01*
X-4181Y10182D01*
X-4223Y10245D01*
X-4282Y10285D01*
Y10497D01*
X-4256Y10508D01*
X-4155Y10586D01*
X-4077Y10687D01*
X-4029Y10805D01*
X-4012Y10931D01*
Y11069D01*
X-4029Y11195D01*
X-4077Y11313D01*
X-4155Y11414D01*
X-4256Y11492D01*
X-4374Y11540D01*
X-4500Y11557D01*
X-4626Y11540D01*
X-4744Y11492D01*
X-4845Y11414D01*
X-4923Y11313D01*
X-4964Y11214D01*
X-5014Y11224D01*
Y11261D01*
X-5024Y11337D01*
X-5053Y11408D01*
X-5100Y11469D01*
X-5144Y11503D01*
X-5151Y11554D01*
X-5149Y11565D01*
X-4916Y11798D01*
X-3334D01*
X-3202Y11666D01*
Y11554D01*
X-3268Y11545D01*
X-3339Y11516D01*
X-3400Y11469D01*
X-3447Y11408D01*
X-3476Y11337D01*
X-3486Y11261D01*
Y10739D01*
X-3476Y10663D01*
X-3447Y10592D01*
X-3400Y10531D01*
X-3339Y10484D01*
X-3268Y10455D01*
X-3192Y10445D01*
X-2808D01*
X-2732Y10455D01*
X-2661Y10484D01*
X-2600Y10531D01*
X-2553Y10592D01*
X-2524Y10663D01*
X-2514Y10739D01*
Y10776D01*
X-2464Y10786D01*
X-2423Y10687D01*
X-2345Y10586D01*
X-2244Y10508D01*
X-2216Y10497D01*
Y10264D01*
X-2274Y10225D01*
X-2317Y10161D01*
X-2332Y10086D01*
Y9901D01*
X-2317Y9826D01*
X-2274Y9762D01*
X-2211Y9720D01*
X-2136Y9705D01*
X-1921D01*
X-1846Y9720D01*
X-1782Y9762D01*
X-1739Y9826D01*
X-1724Y9901D01*
Y10086D01*
X-1739Y10161D01*
X-1782Y10225D01*
X-1812Y10245D01*
Y10485D01*
X-1756Y10508D01*
X-1655Y10586D01*
X-1577Y10687D01*
X-1529Y10805D01*
X-1512Y10931D01*
Y11069D01*
X-1529Y11195D01*
X-1577Y11313D01*
X-1655Y11414D01*
X-1756Y11492D01*
X-1874Y11540D01*
X-2000Y11557D01*
X-2126Y11540D01*
X-2244Y11492D01*
X-2345Y11414D01*
X-2423Y11313D01*
X-2464Y11214D01*
X-2514Y11224D01*
Y11261D01*
X-2524Y11337D01*
X-2553Y11408D01*
X-2600Y11469D01*
X-2661Y11516D01*
X-2732Y11545D01*
X-2798Y11554D01*
Y11750D01*
X-2813Y11827D01*
X-2857Y11893D01*
X-3107Y12143D01*
X-3173Y12187D01*
X-3250Y12202D01*
X-4092D01*
Y12562D01*
X-4107Y12639D01*
X-4151Y12705D01*
X-4351Y12905D01*
X-4417Y12949D01*
X-4495Y12965D01*
X-4599D01*
Y12971D01*
D02*
G37*
G36*
X-2384Y9944D02*
X-2638D01*
Y9705D01*
X-2581D01*
X-2506Y9720D01*
X-2442Y9762D01*
X-2399Y9826D01*
X-2384Y9901D01*
Y9944D01*
D02*
G37*
G36*
X-2738D02*
X-2992D01*
Y9901D01*
X-2977Y9826D01*
X-2934Y9762D01*
X-2871Y9720D01*
X-2796Y9705D01*
X-2738D01*
Y9944D01*
D02*
G37*
G36*
X-5524Y13226D02*
X-6118D01*
Y13220D01*
X-6273D01*
X-6351Y13205D01*
X-6416Y13161D01*
X-6643Y12934D01*
X-6687Y12869D01*
X-6702Y12791D01*
Y9834D01*
X-7084Y9452D01*
X-13298D01*
Y11298D01*
X-13000D01*
X-12923Y11313D01*
X-12857Y11357D01*
X-12259Y11955D01*
X-12215Y12021D01*
X-12199Y12098D01*
Y12743D01*
X-12177Y12784D01*
X-11583D01*
Y13200D01*
X-12177D01*
Y13194D01*
X-12286D01*
X-12364Y13179D01*
X-12429Y13135D01*
X-12545Y13020D01*
X-12588Y12954D01*
X-12604Y12877D01*
Y12182D01*
X-13084Y11702D01*
X-14195D01*
X-14202Y11719D01*
X-14272Y11810D01*
X-14363Y11880D01*
X-14468Y11923D01*
X-14582Y11938D01*
X-14818D01*
X-14932Y11923D01*
X-15037Y11880D01*
X-15128Y11810D01*
X-15198Y11719D01*
X-15242Y11613D01*
X-15257Y11500D01*
X-15242Y11387D01*
X-15198Y11281D01*
X-15128Y11190D01*
X-15037Y11120D01*
X-14932Y11077D01*
X-14818Y11062D01*
X-14582D01*
X-14468Y11077D01*
X-14363Y11120D01*
X-14272Y11190D01*
X-14202Y11281D01*
X-14195Y11298D01*
X-13702D01*
Y9250D01*
Y6260D01*
X-13687Y6182D01*
X-13674Y6164D01*
X-13695Y6114D01*
X-13752D01*
Y5697D01*
X-13665D01*
Y5121D01*
X-14334Y4452D01*
X-14750D01*
X-14827Y4437D01*
X-14839Y4429D01*
X-15119D01*
X-15138Y4458D01*
X-15202Y4501D01*
X-15277Y4516D01*
X-15462D01*
X-15537Y4501D01*
X-15601Y4458D01*
X-15620Y4429D01*
X-17661D01*
X-17663Y4440D01*
X-17706Y4503D01*
X-17770Y4546D01*
X-17845Y4561D01*
X-18030D01*
X-18105Y4546D01*
X-18169Y4503D01*
X-18211Y4440D01*
X-18213Y4429D01*
X-20201D01*
X-20215Y4449D01*
X-20279Y4492D01*
X-20354Y4507D01*
X-20539D01*
X-20614Y4492D01*
X-20677Y4449D01*
X-20720Y4386D01*
X-20735Y4311D01*
Y4096D01*
X-20720Y4020D01*
X-20677Y3957D01*
X-20614Y3914D01*
X-20539Y3899D01*
X-20354D01*
X-20279Y3914D01*
X-20215Y3957D01*
X-20172Y4020D01*
X-20172Y4024D01*
X-18178D01*
X-18169Y4011D01*
X-18105Y3968D01*
X-18030Y3953D01*
X-17845D01*
X-17770Y3968D01*
X-17706Y4011D01*
X-17697Y4024D01*
X-15640D01*
X-15601Y3965D01*
X-15537Y3923D01*
X-15462Y3908D01*
X-15277D01*
X-15202Y3923D01*
X-15138Y3965D01*
X-15099Y4024D01*
X-14773D01*
X-14696Y4040D01*
X-14684Y4048D01*
X-14250D01*
X-14173Y4063D01*
X-14107Y4107D01*
X-13320Y4894D01*
X-13276Y4960D01*
X-13260Y5037D01*
Y5697D01*
X-13158D01*
Y6114D01*
X-13260D01*
Y6250D01*
X-13276Y6327D01*
X-13298Y6360D01*
Y9048D01*
X-8452D01*
Y6708D01*
X-8509D01*
Y6292D01*
X-7916D01*
Y6708D01*
X-8048D01*
Y9048D01*
X-7000D01*
X-6923Y9063D01*
X-6857Y9107D01*
X-6357Y9607D01*
X-6313Y9673D01*
X-6298Y9750D01*
Y12708D01*
X-6189Y12816D01*
X-6118D01*
Y12810D01*
X-5524D01*
Y13226D01*
D02*
G37*
G36*
X-6452Y8556D02*
X-6510D01*
Y8318D01*
X-6256D01*
Y8360D01*
X-6271Y8435D01*
X-6313Y8499D01*
X-6377Y8542D01*
X-6452Y8556D01*
D02*
G37*
G36*
X-6610D02*
X-6667D01*
X-6742Y8542D01*
X-6806Y8499D01*
X-6849Y8435D01*
X-6864Y8360D01*
Y8318D01*
X-6610D01*
Y8556D01*
D02*
G37*
G36*
X-6256Y8218D02*
X-6510D01*
Y7979D01*
X-6452D01*
X-6377Y7994D01*
X-6313Y8036D01*
X-6271Y8100D01*
X-6256Y8175D01*
Y8218D01*
D02*
G37*
G36*
X-6610D02*
X-6864D01*
Y8175D01*
X-6849Y8100D01*
X-6806Y8036D01*
X-6742Y7994D01*
X-6667Y7979D01*
X-6610D01*
Y8218D01*
D02*
G37*
G36*
X-11767Y7572D02*
X-11825D01*
Y7333D01*
X-11571D01*
Y7376D01*
X-11586Y7451D01*
X-11628Y7515D01*
X-11692Y7557D01*
X-11767Y7572D01*
D02*
G37*
G36*
X-11925D02*
X-11982D01*
X-12057Y7557D01*
X-12121Y7515D01*
X-12164Y7451D01*
X-12178Y7376D01*
Y7333D01*
X-11925D01*
Y7572D01*
D02*
G37*
G36*
X-11571Y7233D02*
X-11825D01*
Y6995D01*
X-11767D01*
X-11692Y7010D01*
X-11628Y7052D01*
X-11586Y7116D01*
X-11571Y7191D01*
Y7233D01*
D02*
G37*
G36*
X-11925D02*
X-12178D01*
Y7191D01*
X-12164Y7116D01*
X-12121Y7052D01*
X-12057Y7010D01*
X-11982Y6995D01*
X-11925D01*
Y7233D01*
D02*
G37*
G36*
X-4431Y7155D02*
X-4450D01*
Y6717D01*
X-3950D01*
X-3960Y6794D01*
X-4008Y6911D01*
X-4086Y7012D01*
X-4187Y7090D01*
X-4305Y7139D01*
X-4431Y7155D01*
D02*
G37*
G36*
X-4550D02*
X-4569D01*
X-4695Y7139D01*
X-4813Y7090D01*
X-4914Y7012D01*
X-4992Y6911D01*
X-5040Y6794D01*
X-5050Y6717D01*
X-4550D01*
Y7155D01*
D02*
G37*
G36*
X-7112Y8556D02*
X-7327D01*
X-7402Y8542D01*
X-7466Y8499D01*
X-7509Y8435D01*
X-7524Y8360D01*
Y8175D01*
X-7509Y8100D01*
X-7466Y8036D01*
X-7437Y8017D01*
Y7798D01*
X-7500Y7750D01*
X-7556Y7677D01*
X-7591Y7591D01*
X-7603Y7500D01*
X-7591Y7409D01*
X-7556Y7323D01*
X-7500Y7250D01*
X-7452Y7214D01*
Y6964D01*
X-7584D01*
Y6548D01*
X-6991D01*
Y6964D01*
X-7048D01*
Y7214D01*
X-7000Y7250D01*
X-6944Y7323D01*
X-6909Y7409D01*
X-6897Y7500D01*
X-6909Y7591D01*
X-6944Y7677D01*
X-7000Y7750D01*
X-7033Y7774D01*
Y7997D01*
X-6973Y8036D01*
X-6931Y8100D01*
X-6916Y8175D01*
Y8360D01*
X-6931Y8435D01*
X-6973Y8499D01*
X-7037Y8542D01*
X-7112Y8556D01*
D02*
G37*
G36*
X-6407Y6474D02*
X-6593D01*
X-6668Y6459D01*
X-6686Y6446D01*
X-6991D01*
Y6452D01*
X-7584D01*
Y6036D01*
X-6991D01*
Y6042D01*
X-6785D01*
X-6774Y5987D01*
X-6731Y5924D01*
X-6702Y5904D01*
Y3210D01*
X-6731Y3191D01*
X-6774Y3127D01*
X-6789Y3052D01*
Y2837D01*
X-6774Y2762D01*
X-6731Y2698D01*
X-6668Y2655D01*
X-6593Y2640D01*
X-6407D01*
X-6332Y2655D01*
X-6269Y2698D01*
X-6226Y2762D01*
X-6211Y2837D01*
Y3052D01*
X-6226Y3127D01*
X-6269Y3191D01*
X-6298Y3210D01*
Y5904D01*
X-6269Y5924D01*
X-6226Y5987D01*
X-6211Y6062D01*
Y6277D01*
X-6226Y6353D01*
X-6269Y6416D01*
X-6332Y6459D01*
X-6407Y6474D01*
D02*
G37*
G36*
X-15907Y8304D02*
X-16092D01*
X-16168Y8289D01*
X-16231Y8246D01*
X-16274Y8183D01*
X-16289Y8108D01*
Y7893D01*
X-16274Y7817D01*
X-16231Y7754D01*
X-16202Y7734D01*
Y6554D01*
X-16268Y6545D01*
X-16339Y6516D01*
X-16400Y6469D01*
X-16447Y6408D01*
X-16476Y6337D01*
X-16486Y6261D01*
Y6224D01*
X-16536Y6214D01*
X-16577Y6313D01*
X-16655Y6414D01*
X-16756Y6492D01*
X-16874Y6540D01*
X-16950Y6550D01*
Y6000D01*
Y5450D01*
X-16874Y5460D01*
X-16756Y5508D01*
X-16655Y5586D01*
X-16577Y5687D01*
X-16536Y5786D01*
X-16486Y5776D01*
Y5739D01*
X-16476Y5663D01*
X-16447Y5592D01*
X-16400Y5531D01*
X-16339Y5484D01*
X-16268Y5455D01*
X-16192Y5445D01*
X-15808D01*
X-15732Y5455D01*
X-15661Y5484D01*
X-15600Y5531D01*
X-15553Y5592D01*
X-15524Y5663D01*
X-15514Y5739D01*
Y6261D01*
X-15524Y6337D01*
X-15553Y6408D01*
X-15600Y6469D01*
X-15661Y6516D01*
X-15732Y6545D01*
X-15798Y6554D01*
Y7734D01*
X-15769Y7754D01*
X-15726Y7817D01*
X-15711Y7893D01*
Y8108D01*
X-15726Y8183D01*
X-15769Y8246D01*
X-15832Y8289D01*
X-15907Y8304D01*
D02*
G37*
G36*
X-18908D02*
X-19093D01*
X-19168Y8289D01*
X-19231Y8246D01*
X-19274Y8183D01*
X-19289Y8108D01*
Y7893D01*
X-19274Y7817D01*
X-19231Y7754D01*
X-19202Y7734D01*
Y6554D01*
X-19268Y6545D01*
X-19339Y6516D01*
X-19400Y6469D01*
X-19447Y6408D01*
X-19476Y6337D01*
X-19486Y6261D01*
Y6224D01*
X-19536Y6214D01*
X-19577Y6313D01*
X-19655Y6414D01*
X-19756Y6492D01*
X-19874Y6540D01*
X-19950Y6550D01*
Y6000D01*
Y5450D01*
X-19874Y5460D01*
X-19756Y5508D01*
X-19655Y5586D01*
X-19577Y5687D01*
X-19536Y5786D01*
X-19486Y5776D01*
Y5739D01*
X-19476Y5663D01*
X-19447Y5592D01*
X-19400Y5531D01*
X-19339Y5484D01*
X-19268Y5455D01*
X-19192Y5445D01*
X-18808D01*
X-18732Y5455D01*
X-18661Y5484D01*
X-18600Y5531D01*
X-18553Y5592D01*
X-18524Y5663D01*
X-18514Y5739D01*
Y6261D01*
X-18524Y6337D01*
X-18553Y6408D01*
X-18600Y6469D01*
X-18661Y6516D01*
X-18732Y6545D01*
X-18798Y6554D01*
Y7734D01*
X-18769Y7754D01*
X-18726Y7817D01*
X-18711Y7893D01*
Y8108D01*
X-18726Y8183D01*
X-18769Y8246D01*
X-18832Y8289D01*
X-18908Y8304D01*
D02*
G37*
G36*
X-20050Y6550D02*
X-20126Y6540D01*
X-20244Y6492D01*
X-20345Y6414D01*
X-20423Y6313D01*
X-20471Y6195D01*
X-20488Y6069D01*
Y6050D01*
X-20050D01*
Y6550D01*
D02*
G37*
G36*
X-17050D02*
X-17126Y6540D01*
X-17244Y6492D01*
X-17345Y6414D01*
X-17423Y6313D01*
X-17471Y6195D01*
X-17488Y6069D01*
Y6050D01*
X-17050D01*
Y6550D01*
D02*
G37*
G36*
X-12572Y8516D02*
X-12664Y8504D01*
X-12749Y8469D01*
X-12822Y8413D01*
X-12878Y8340D01*
X-12913Y8255D01*
X-12925Y8163D01*
X-12913Y8072D01*
X-12878Y7987D01*
X-12822Y7914D01*
X-12749Y7858D01*
X-12743Y7855D01*
Y7540D01*
X-12781Y7515D01*
X-12824Y7451D01*
X-12838Y7376D01*
Y7191D01*
X-12824Y7116D01*
X-12781Y7052D01*
X-12743Y7027D01*
Y7014D01*
X-12727Y6938D01*
X-12737Y6890D01*
Y6370D01*
X-12826D01*
Y5953D01*
X-12233D01*
Y6370D01*
X-12332D01*
Y6889D01*
X-12322Y6905D01*
X-12306Y6982D01*
X-12316Y7034D01*
X-12288Y7052D01*
X-12246Y7116D01*
X-12231Y7191D01*
Y7376D01*
X-12246Y7451D01*
X-12288Y7515D01*
X-12338Y7548D01*
Y7902D01*
X-12323Y7914D01*
X-12266Y7987D01*
X-12231Y8072D01*
X-12219Y8163D01*
X-12231Y8255D01*
X-12266Y8340D01*
X-12323Y8413D01*
X-12396Y8469D01*
X-12481Y8504D01*
X-12572Y8516D01*
D02*
G37*
G36*
X-9589Y7154D02*
X-10111D01*
X-10187Y7144D01*
X-10258Y7114D01*
X-10319Y7067D01*
X-10366Y7006D01*
X-10395Y6935D01*
X-10401Y6895D01*
X-11316D01*
X-11394Y6880D01*
X-11460Y6836D01*
X-11641Y6654D01*
X-11752D01*
X-11827Y6639D01*
X-11890Y6597D01*
X-11933Y6533D01*
X-11948Y6458D01*
Y6243D01*
X-11933Y6168D01*
X-11890Y6104D01*
X-11827Y6061D01*
X-11752Y6047D01*
X-11567D01*
X-11492Y6061D01*
X-11428Y6104D01*
X-11385Y6168D01*
X-11370Y6243D01*
Y6353D01*
X-11233Y6491D01*
X-10405D01*
Y6475D01*
X-10395Y6399D01*
X-10366Y6328D01*
X-10319Y6267D01*
X-10258Y6220D01*
X-10187Y6191D01*
X-10111Y6181D01*
X-10074D01*
X-10064Y6131D01*
X-10163Y6090D01*
X-10264Y6012D01*
X-10342Y5911D01*
X-10390Y5794D01*
X-10400Y5717D01*
X-9850D01*
X-9300D01*
X-9310Y5794D01*
X-9358Y5911D01*
X-9436Y6012D01*
X-9537Y6090D01*
X-9636Y6131D01*
X-9626Y6181D01*
X-9589D01*
X-9513Y6191D01*
X-9442Y6220D01*
X-9381Y6267D01*
X-9334Y6328D01*
X-9305Y6399D01*
X-9295Y6475D01*
Y6859D01*
X-9305Y6935D01*
X-9334Y7006D01*
X-9381Y7067D01*
X-9442Y7114D01*
X-9513Y7144D01*
X-9589Y7154D01*
D02*
G37*
G36*
X-20050Y5950D02*
X-20488D01*
Y5931D01*
X-20471Y5805D01*
X-20423Y5687D01*
X-20345Y5586D01*
X-20244Y5508D01*
X-20126Y5460D01*
X-20050Y5450D01*
Y5950D01*
D02*
G37*
G36*
X-17050D02*
X-17488D01*
Y5931D01*
X-17471Y5805D01*
X-17423Y5687D01*
X-17345Y5586D01*
X-17244Y5508D01*
X-17126Y5460D01*
X-17050Y5450D01*
Y5950D01*
D02*
G37*
G36*
X-6407Y7134D02*
X-6593D01*
X-6668Y7119D01*
X-6731Y7076D01*
X-6774Y7013D01*
X-6789Y6938D01*
Y6722D01*
X-6774Y6647D01*
X-6731Y6584D01*
X-6668Y6541D01*
X-6593Y6526D01*
X-6407D01*
X-6332Y6541D01*
X-6305Y6559D01*
X-6298D01*
X-5276Y5537D01*
X-5210Y5494D01*
X-5133Y5478D01*
X-5055D01*
Y5475D01*
X-5045Y5399D01*
X-5016Y5328D01*
X-4969Y5267D01*
X-4908Y5220D01*
X-4837Y5191D01*
X-4761Y5181D01*
X-4239D01*
X-4163Y5191D01*
X-4092Y5220D01*
X-4031Y5267D01*
X-3984Y5328D01*
X-3955Y5399D01*
X-3945Y5475D01*
Y5859D01*
X-3955Y5935D01*
X-3984Y6006D01*
X-4031Y6067D01*
X-4092Y6114D01*
X-4163Y6144D01*
X-4239Y6154D01*
X-4276D01*
X-4286Y6204D01*
X-4187Y6245D01*
X-4086Y6322D01*
X-4008Y6423D01*
X-3960Y6541D01*
X-3950Y6617D01*
X-4500D01*
X-5050D01*
X-5040Y6541D01*
X-4992Y6423D01*
X-4914Y6322D01*
X-4813Y6245D01*
X-4714Y6204D01*
X-4724Y6154D01*
X-4761D01*
X-4837Y6144D01*
X-4908Y6114D01*
X-4969Y6067D01*
X-5016Y6006D01*
X-5041Y5946D01*
X-5091Y5925D01*
X-6071Y6905D01*
X-6136Y6948D01*
X-6214Y6964D01*
X-6216D01*
X-6226Y7013D01*
X-6269Y7076D01*
X-6332Y7119D01*
X-6407Y7134D01*
D02*
G37*
G36*
X-9300Y5617D02*
X-9800D01*
Y5179D01*
X-9781D01*
X-9655Y5196D01*
X-9537Y5245D01*
X-9436Y5322D01*
X-9358Y5423D01*
X-9310Y5541D01*
X-9300Y5617D01*
D02*
G37*
G36*
X-9900D02*
X-10400D01*
X-10390Y5541D01*
X-10342Y5423D01*
X-10264Y5322D01*
X-10163Y5245D01*
X-10045Y5196D01*
X-9919Y5179D01*
X-9900D01*
Y5617D01*
D02*
G37*
G36*
X-231Y5388D02*
X-369D01*
X-495Y5371D01*
X-613Y5323D01*
X-714Y5245D01*
X-792Y5144D01*
X-840Y5026D01*
X-857Y4900D01*
X-840Y4774D01*
X-792Y4656D01*
X-714Y4555D01*
X-613Y4477D01*
X-514Y4436D01*
X-524Y4386D01*
X-561D01*
X-637Y4376D01*
X-708Y4347D01*
X-769Y4300D01*
X-816Y4239D01*
X-845Y4168D01*
X-855Y4092D01*
Y3950D01*
X-300D01*
X255D01*
Y4092D01*
X245Y4168D01*
X216Y4239D01*
X169Y4300D01*
X108Y4347D01*
X37Y4376D01*
X-39Y4386D01*
X-76D01*
X-86Y4436D01*
X13Y4477D01*
X114Y4555D01*
X192Y4656D01*
X240Y4774D01*
X257Y4900D01*
X240Y5026D01*
X192Y5144D01*
X114Y5245D01*
X13Y5323D01*
X-105Y5371D01*
X-231Y5388D01*
D02*
G37*
G36*
X-11567Y5994D02*
X-11752D01*
X-11827Y5979D01*
X-11890Y5937D01*
X-11933Y5873D01*
X-11935Y5862D01*
X-12520D01*
X-12539Y5858D01*
X-12826D01*
Y5441D01*
X-12233D01*
Y5457D01*
X-11899D01*
X-11890Y5444D01*
X-11827Y5401D01*
X-11812Y5399D01*
Y4047D01*
X-11851Y4021D01*
X-11893Y3958D01*
X-11908Y3882D01*
Y3667D01*
X-11893Y3592D01*
X-11851Y3529D01*
X-11787Y3486D01*
X-11712Y3471D01*
X-11527D01*
X-11452Y3486D01*
X-11388Y3529D01*
X-11346Y3592D01*
X-11331Y3667D01*
Y3882D01*
X-11346Y3958D01*
X-11388Y4021D01*
X-11407Y4034D01*
Y5475D01*
X-11385Y5508D01*
X-11370Y5583D01*
Y5798D01*
X-11385Y5873D01*
X-11428Y5937D01*
X-11492Y5979D01*
X-11567Y5994D01*
D02*
G37*
G36*
X255Y3850D02*
X-250D01*
Y3414D01*
X-39D01*
X37Y3424D01*
X108Y3453D01*
X169Y3500D01*
X216Y3561D01*
X245Y3632D01*
X255Y3708D01*
Y3850D01*
D02*
G37*
G36*
X-350D02*
X-855D01*
Y3708D01*
X-845Y3632D01*
X-816Y3561D01*
X-769Y3500D01*
X-708Y3453D01*
X-637Y3424D01*
X-561Y3414D01*
X-350D01*
Y3850D01*
D02*
G37*
G36*
X-9739Y3736D02*
X-10261D01*
X-10337Y3726D01*
X-10408Y3697D01*
X-10469Y3650D01*
X-10516Y3589D01*
X-10545Y3518D01*
X-10555Y3442D01*
Y3385D01*
X-11423D01*
X-11452Y3404D01*
X-11527Y3419D01*
X-11712D01*
X-11787Y3404D01*
X-11851Y3361D01*
X-11893Y3298D01*
X-11908Y3222D01*
Y3007D01*
X-11893Y2932D01*
X-11851Y2869D01*
X-11787Y2826D01*
X-11712Y2811D01*
X-11527D01*
X-11452Y2826D01*
X-11388Y2869D01*
X-11346Y2932D01*
X-11336Y2980D01*
X-10545D01*
X-10516Y2911D01*
X-10469Y2850D01*
X-10408Y2803D01*
X-10337Y2774D01*
X-10261Y2764D01*
X-10224D01*
X-10214Y2714D01*
X-10313Y2673D01*
X-10414Y2595D01*
X-10492Y2494D01*
X-10540Y2376D01*
X-10550Y2300D01*
X-10000D01*
X-9450D01*
X-9460Y2376D01*
X-9508Y2494D01*
X-9586Y2595D01*
X-9687Y2673D01*
X-9786Y2714D01*
X-9776Y2764D01*
X-9739D01*
X-9663Y2774D01*
X-9592Y2803D01*
X-9531Y2850D01*
X-9484Y2911D01*
X-9455Y2982D01*
X-9445Y3058D01*
Y3442D01*
X-9455Y3518D01*
X-9484Y3589D01*
X-9531Y3650D01*
X-9592Y3697D01*
X-9663Y3726D01*
X-9739Y3736D01*
D02*
G37*
G36*
X-4431Y3738D02*
X-4450D01*
Y3300D01*
X-3950D01*
X-3960Y3376D01*
X-4008Y3494D01*
X-4086Y3595D01*
X-4187Y3673D01*
X-4305Y3721D01*
X-4431Y3738D01*
D02*
G37*
G36*
X-4550D02*
X-4569D01*
X-4695Y3721D01*
X-4813Y3673D01*
X-4914Y3595D01*
X-4992Y3494D01*
X-5040Y3376D01*
X-5050Y3300D01*
X-4550D01*
Y3738D01*
D02*
G37*
G36*
X-3950Y3200D02*
X-4500D01*
X-5050D01*
X-5040Y3124D01*
X-4992Y3006D01*
X-4914Y2905D01*
X-4813Y2827D01*
X-4714Y2786D01*
X-4724Y2736D01*
X-4761D01*
X-4837Y2726D01*
X-4908Y2697D01*
X-4969Y2650D01*
X-5016Y2589D01*
X-5045Y2518D01*
X-5052Y2469D01*
X-6228D01*
X-6269Y2531D01*
X-6332Y2573D01*
X-6407Y2588D01*
X-6593D01*
X-6668Y2573D01*
X-6731Y2531D01*
X-6774Y2467D01*
X-6789Y2392D01*
Y2177D01*
X-6774Y2102D01*
X-6731Y2038D01*
X-6668Y1995D01*
X-6593Y1980D01*
X-6407D01*
X-6332Y1995D01*
X-6269Y2038D01*
X-6251Y2065D01*
X-5055D01*
Y2058D01*
X-5045Y1982D01*
X-5016Y1911D01*
X-4969Y1850D01*
X-4908Y1803D01*
X-4837Y1774D01*
X-4761Y1764D01*
X-4239D01*
X-4163Y1774D01*
X-4092Y1803D01*
X-4031Y1850D01*
X-3984Y1911D01*
X-3955Y1982D01*
X-3945Y2058D01*
Y2442D01*
X-3955Y2518D01*
X-3984Y2589D01*
X-4031Y2650D01*
X-4092Y2697D01*
X-4163Y2726D01*
X-4239Y2736D01*
X-4276D01*
X-4286Y2786D01*
X-4187Y2827D01*
X-4086Y2905D01*
X-4008Y3006D01*
X-3960Y3124D01*
X-3950Y3200D01*
D02*
G37*
G36*
X-14450Y2550D02*
Y2050D01*
X-14012D01*
Y2069D01*
X-14029Y2195D01*
X-14077Y2313D01*
X-14155Y2414D01*
X-14256Y2492D01*
X-14374Y2540D01*
X-14450Y2550D01*
D02*
G37*
G36*
X-16950D02*
Y2050D01*
X-16512D01*
Y2069D01*
X-16529Y2195D01*
X-16577Y2313D01*
X-16655Y2414D01*
X-16756Y2492D01*
X-16874Y2540D01*
X-16950Y2550D01*
D02*
G37*
G36*
X-19450D02*
Y2050D01*
X-19012D01*
Y2069D01*
X-19029Y2195D01*
X-19077Y2313D01*
X-19155Y2414D01*
X-19256Y2492D01*
X-19374Y2540D01*
X-19450Y2550D01*
D02*
G37*
G36*
X-9450Y2200D02*
X-9950D01*
Y1762D01*
X-9931D01*
X-9805Y1779D01*
X-9687Y1827D01*
X-9586Y1905D01*
X-9508Y2006D01*
X-9460Y2124D01*
X-9450Y2200D01*
D02*
G37*
G36*
X-10050D02*
X-10550D01*
X-10540Y2124D01*
X-10492Y2006D01*
X-10414Y1905D01*
X-10313Y1827D01*
X-10195Y1779D01*
X-10069Y1762D01*
X-10050D01*
Y2200D01*
D02*
G37*
G36*
X-19012Y1950D02*
X-19450D01*
Y1450D01*
X-19374Y1460D01*
X-19256Y1508D01*
X-19155Y1586D01*
X-19077Y1687D01*
X-19029Y1805D01*
X-19012Y1931D01*
Y1950D01*
D02*
G37*
G36*
X-20354Y3847D02*
X-20539D01*
X-20614Y3832D01*
X-20677Y3789D01*
X-20720Y3726D01*
X-20735Y3651D01*
Y3436D01*
X-20720Y3360D01*
X-20677Y3297D01*
X-20675Y3295D01*
Y2555D01*
X-20692D01*
X-20768Y2545D01*
X-20839Y2516D01*
X-20900Y2469D01*
X-20947Y2408D01*
X-20976Y2337D01*
X-20986Y2261D01*
Y1739D01*
X-20976Y1663D01*
X-20947Y1592D01*
X-20900Y1531D01*
X-20839Y1484D01*
X-20768Y1455D01*
X-20692Y1445D01*
X-20308D01*
X-20232Y1455D01*
X-20161Y1484D01*
X-20100Y1531D01*
X-20053Y1592D01*
X-20024Y1663D01*
X-20014Y1739D01*
Y1776D01*
X-19964Y1786D01*
X-19923Y1687D01*
X-19845Y1586D01*
X-19744Y1508D01*
X-19626Y1460D01*
X-19550Y1450D01*
Y2000D01*
Y2550D01*
X-19626Y2540D01*
X-19744Y2492D01*
X-19845Y2414D01*
X-19923Y2313D01*
X-19964Y2214D01*
X-20014Y2224D01*
Y2261D01*
X-20024Y2337D01*
X-20053Y2408D01*
X-20100Y2469D01*
X-20161Y2516D01*
X-20232Y2545D01*
X-20271Y2550D01*
Y3259D01*
X-20215Y3297D01*
X-20172Y3360D01*
X-20157Y3436D01*
Y3651D01*
X-20172Y3726D01*
X-20215Y3789D01*
X-20279Y3832D01*
X-20354Y3847D01*
D02*
G37*
G36*
X-14012Y1950D02*
X-14450D01*
Y1450D01*
X-14374Y1460D01*
X-14256Y1508D01*
X-14155Y1586D01*
X-14077Y1687D01*
X-14029Y1805D01*
X-14012Y1931D01*
Y1950D01*
D02*
G37*
G36*
X-15277Y3856D02*
X-15462D01*
X-15537Y3841D01*
X-15601Y3798D01*
X-15643Y3734D01*
X-15658Y3659D01*
Y3444D01*
X-15643Y3369D01*
X-15637Y3360D01*
Y2555D01*
X-15692D01*
X-15768Y2545D01*
X-15839Y2516D01*
X-15900Y2469D01*
X-15947Y2408D01*
X-15976Y2337D01*
X-15986Y2261D01*
Y1739D01*
X-15976Y1663D01*
X-15947Y1592D01*
X-15900Y1531D01*
X-15839Y1484D01*
X-15768Y1455D01*
X-15692Y1445D01*
X-15308D01*
X-15232Y1455D01*
X-15161Y1484D01*
X-15100Y1531D01*
X-15053Y1592D01*
X-15024Y1663D01*
X-15014Y1739D01*
Y1776D01*
X-14964Y1786D01*
X-14923Y1687D01*
X-14845Y1586D01*
X-14744Y1508D01*
X-14626Y1460D01*
X-14550Y1450D01*
Y2000D01*
Y2550D01*
X-14626Y2540D01*
X-14744Y2492D01*
X-14845Y2414D01*
X-14923Y2313D01*
X-14964Y2214D01*
X-15014Y2224D01*
Y2261D01*
X-15024Y2337D01*
X-15053Y2408D01*
X-15100Y2469D01*
X-15161Y2516D01*
X-15232Y2545D01*
X-15232Y2545D01*
Y3257D01*
X-15202Y3263D01*
X-15138Y3305D01*
X-15096Y3369D01*
X-15081Y3444D01*
Y3659D01*
X-15096Y3734D01*
X-15138Y3798D01*
X-15202Y3841D01*
X-15277Y3856D01*
D02*
G37*
G36*
X-16512Y1950D02*
X-16950D01*
Y1450D01*
X-16874Y1460D01*
X-16756Y1508D01*
X-16655Y1586D01*
X-16577Y1687D01*
X-16529Y1805D01*
X-16512Y1931D01*
Y1950D01*
D02*
G37*
G36*
X-17845Y3901D02*
X-18030D01*
X-18105Y3886D01*
X-18169Y3843D01*
X-18211Y3780D01*
X-18226Y3704D01*
Y3489D01*
X-18211Y3414D01*
X-18171Y3354D01*
Y2555D01*
X-18192D01*
X-18268Y2545D01*
X-18339Y2516D01*
X-18400Y2469D01*
X-18447Y2408D01*
X-18476Y2337D01*
X-18486Y2261D01*
Y1739D01*
X-18476Y1663D01*
X-18447Y1592D01*
X-18400Y1531D01*
X-18339Y1484D01*
X-18268Y1455D01*
X-18192Y1445D01*
X-17808D01*
X-17732Y1455D01*
X-17661Y1484D01*
X-17600Y1531D01*
X-17553Y1592D01*
X-17524Y1663D01*
X-17514Y1739D01*
Y1776D01*
X-17464Y1786D01*
X-17423Y1687D01*
X-17345Y1586D01*
X-17244Y1508D01*
X-17126Y1460D01*
X-17050Y1450D01*
Y2000D01*
Y2550D01*
X-17126Y2540D01*
X-17244Y2492D01*
X-17345Y2414D01*
X-17423Y2313D01*
X-17464Y2214D01*
X-17514Y2224D01*
Y2261D01*
X-17524Y2337D01*
X-17553Y2408D01*
X-17600Y2469D01*
X-17661Y2516D01*
X-17732Y2545D01*
X-17766Y2550D01*
Y3310D01*
X-17706Y3351D01*
X-17663Y3414D01*
X-17649Y3489D01*
Y3704D01*
X-17663Y3780D01*
X-17706Y3843D01*
X-17770Y3886D01*
X-17845Y3901D01*
D02*
G37*
G36*
X62Y727D02*
X-62D01*
X-71Y725D01*
X-81D01*
X-202Y701D01*
X-211Y697D01*
X-221Y695D01*
X-335Y648D01*
X-343Y642D01*
X-353Y639D01*
X-455Y570D01*
X-462Y563D01*
X-471Y558D01*
X-558Y471D01*
X-563Y462D01*
X-570Y455D01*
X-639Y353D01*
X-642Y343D01*
X-648Y335D01*
X-695Y221D01*
X-697Y211D01*
X-701Y202D01*
X-725Y81D01*
Y71D01*
X-727Y62D01*
Y-62D01*
X-725Y-71D01*
Y-81D01*
X-701Y-202D01*
X-697Y-211D01*
X-695Y-221D01*
X-648Y-335D01*
X-642Y-343D01*
X-639Y-353D01*
X-570Y-455D01*
X-563Y-462D01*
X-558Y-471D01*
X-471Y-558D01*
X-462Y-563D01*
X-455Y-570D01*
X-353Y-639D01*
X-343Y-642D01*
X-335Y-648D01*
X-221Y-695D01*
X-211Y-697D01*
X-202Y-701D01*
X-81Y-725D01*
X-71D01*
X-62Y-727D01*
X62D01*
X71Y-725D01*
X81D01*
X202Y-701D01*
X211Y-697D01*
X221Y-695D01*
X335Y-648D01*
X343Y-642D01*
X353Y-639D01*
X455Y-570D01*
X462Y-563D01*
X471Y-558D01*
X558Y-471D01*
X563Y-462D01*
X570Y-455D01*
X639Y-353D01*
X642Y-343D01*
X648Y-335D01*
X695Y-221D01*
X697Y-211D01*
X701Y-202D01*
X725Y-81D01*
Y-71D01*
X727Y-62D01*
Y62D01*
X725Y71D01*
Y81D01*
X701Y202D01*
X697Y211D01*
X695Y221D01*
X648Y335D01*
X642Y343D01*
X639Y353D01*
X570Y455D01*
X563Y462D01*
X558Y471D01*
X471Y558D01*
X462Y563D01*
X455Y570D01*
X353Y639D01*
X343Y642D01*
X335Y648D01*
X221Y695D01*
X211Y697D01*
X202Y701D01*
X81Y725D01*
X71D01*
X62Y727D01*
D02*
G37*
G36*
X-8950Y-1450D02*
Y-1950D01*
X-8562D01*
Y-1882D01*
X-8577Y-1768D01*
X-8620Y-1663D01*
X-8690Y-1572D01*
X-8781Y-1502D01*
X-8887Y-1458D01*
X-8950Y-1450D01*
D02*
G37*
G36*
X-9050D02*
X-9113Y-1458D01*
X-9219Y-1502D01*
X-9310Y-1572D01*
X-9380Y-1663D01*
X-9423Y-1768D01*
X-9438Y-1882D01*
Y-1950D01*
X-9050D01*
Y-1450D01*
D02*
G37*
G36*
X-9950D02*
Y-1950D01*
X-9562D01*
Y-1882D01*
X-9577Y-1768D01*
X-9620Y-1663D01*
X-9690Y-1572D01*
X-9781Y-1502D01*
X-9887Y-1458D01*
X-9950Y-1450D01*
D02*
G37*
G36*
X-10050D02*
X-10113Y-1458D01*
X-10219Y-1502D01*
X-10310Y-1572D01*
X-10380Y-1663D01*
X-10423Y-1768D01*
X-10438Y-1882D01*
Y-1950D01*
X-10050D01*
Y-1450D01*
D02*
G37*
G36*
X-8562Y-2050D02*
X-8950D01*
Y-2550D01*
X-8887Y-2542D01*
X-8781Y-2498D01*
X-8690Y-2428D01*
X-8620Y-2337D01*
X-8577Y-2232D01*
X-8562Y-2118D01*
Y-2050D01*
D02*
G37*
G36*
X-9050D02*
X-9438D01*
Y-2118D01*
X-9423Y-2232D01*
X-9380Y-2337D01*
X-9310Y-2428D01*
X-9219Y-2498D01*
X-9113Y-2542D01*
X-9050Y-2550D01*
Y-2050D01*
D02*
G37*
G36*
X-9562D02*
X-9950D01*
Y-2550D01*
X-9887Y-2542D01*
X-9781Y-2498D01*
X-9690Y-2428D01*
X-9620Y-2337D01*
X-9577Y-2232D01*
X-9562Y-2118D01*
Y-2050D01*
D02*
G37*
G36*
X-10050D02*
X-10438D01*
Y-2118D01*
X-10423Y-2232D01*
X-10380Y-2337D01*
X-10310Y-2428D01*
X-10219Y-2498D01*
X-10113Y-2542D01*
X-10050Y-2550D01*
Y-2050D01*
D02*
G37*
G36*
X-1000Y-1443D02*
X-1113Y-1458D01*
X-1219Y-1502D01*
X-1310Y-1572D01*
X-1380Y-1663D01*
X-1423Y-1768D01*
X-1438Y-1882D01*
Y-2118D01*
X-1423Y-2232D01*
X-1380Y-2337D01*
X-1310Y-2428D01*
X-1219Y-2498D01*
X-1113Y-2542D01*
X-1000Y-2557D01*
X-887Y-2542D01*
X-781Y-2498D01*
X-690Y-2428D01*
X-620Y-2337D01*
X-577Y-2232D01*
X-562Y-2118D01*
Y-1882D01*
X-577Y-1768D01*
X-620Y-1663D01*
X-690Y-1572D01*
X-781Y-1502D01*
X-887Y-1458D01*
X-1000Y-1443D01*
D02*
G37*
G36*
X-2000D02*
X-2113Y-1458D01*
X-2219Y-1502D01*
X-2310Y-1572D01*
X-2380Y-1663D01*
X-2423Y-1768D01*
X-2438Y-1882D01*
Y-2118D01*
X-2423Y-2232D01*
X-2380Y-2337D01*
X-2310Y-2428D01*
X-2219Y-2498D01*
X-2113Y-2542D01*
X-2000Y-2557D01*
X-1887Y-2542D01*
X-1781Y-2498D01*
X-1690Y-2428D01*
X-1620Y-2337D01*
X-1577Y-2232D01*
X-1562Y-2118D01*
Y-1882D01*
X-1577Y-1768D01*
X-1620Y-1663D01*
X-1690Y-1572D01*
X-1781Y-1502D01*
X-1887Y-1458D01*
X-2000Y-1443D01*
D02*
G37*
G36*
X-3000D02*
X-3113Y-1458D01*
X-3219Y-1502D01*
X-3310Y-1572D01*
X-3380Y-1663D01*
X-3423Y-1768D01*
X-3438Y-1882D01*
Y-2118D01*
X-3423Y-2232D01*
X-3380Y-2337D01*
X-3310Y-2428D01*
X-3219Y-2498D01*
X-3113Y-2542D01*
X-3000Y-2557D01*
X-2887Y-2542D01*
X-2781Y-2498D01*
X-2690Y-2428D01*
X-2620Y-2337D01*
X-2577Y-2232D01*
X-2562Y-2118D01*
Y-1882D01*
X-2577Y-1768D01*
X-2620Y-1663D01*
X-2690Y-1572D01*
X-2781Y-1502D01*
X-2887Y-1458D01*
X-3000Y-1443D01*
D02*
G37*
G36*
X-4000D02*
X-4113Y-1458D01*
X-4219Y-1502D01*
X-4310Y-1572D01*
X-4380Y-1663D01*
X-4423Y-1768D01*
X-4438Y-1882D01*
Y-2118D01*
X-4423Y-2232D01*
X-4380Y-2337D01*
X-4310Y-2428D01*
X-4219Y-2498D01*
X-4113Y-2542D01*
X-4000Y-2557D01*
X-3887Y-2542D01*
X-3781Y-2498D01*
X-3690Y-2428D01*
X-3620Y-2337D01*
X-3577Y-2232D01*
X-3562Y-2118D01*
Y-1882D01*
X-3577Y-1768D01*
X-3620Y-1663D01*
X-3690Y-1572D01*
X-3781Y-1502D01*
X-3887Y-1458D01*
X-4000Y-1443D01*
D02*
G37*
G36*
X-5000D02*
X-5113Y-1458D01*
X-5219Y-1502D01*
X-5310Y-1572D01*
X-5380Y-1663D01*
X-5423Y-1768D01*
X-5438Y-1882D01*
Y-2118D01*
X-5423Y-2232D01*
X-5380Y-2337D01*
X-5310Y-2428D01*
X-5219Y-2498D01*
X-5113Y-2542D01*
X-5000Y-2557D01*
X-4887Y-2542D01*
X-4781Y-2498D01*
X-4690Y-2428D01*
X-4620Y-2337D01*
X-4577Y-2232D01*
X-4562Y-2118D01*
Y-1882D01*
X-4577Y-1768D01*
X-4620Y-1663D01*
X-4690Y-1572D01*
X-4781Y-1502D01*
X-4887Y-1458D01*
X-5000Y-1443D01*
D02*
G37*
G36*
X-6000D02*
X-6113Y-1458D01*
X-6219Y-1502D01*
X-6310Y-1572D01*
X-6380Y-1663D01*
X-6423Y-1768D01*
X-6438Y-1882D01*
Y-2118D01*
X-6423Y-2232D01*
X-6380Y-2337D01*
X-6310Y-2428D01*
X-6219Y-2498D01*
X-6113Y-2542D01*
X-6000Y-2557D01*
X-5887Y-2542D01*
X-5781Y-2498D01*
X-5690Y-2428D01*
X-5620Y-2337D01*
X-5577Y-2232D01*
X-5562Y-2118D01*
Y-1882D01*
X-5577Y-1768D01*
X-5620Y-1663D01*
X-5690Y-1572D01*
X-5781Y-1502D01*
X-5887Y-1458D01*
X-6000Y-1443D01*
D02*
G37*
G36*
X-8000D02*
X-8113Y-1458D01*
X-8219Y-1502D01*
X-8310Y-1572D01*
X-8380Y-1663D01*
X-8423Y-1768D01*
X-8438Y-1882D01*
Y-2118D01*
X-8423Y-2232D01*
X-8380Y-2337D01*
X-8310Y-2428D01*
X-8219Y-2498D01*
X-8113Y-2542D01*
X-8000Y-2557D01*
X-7887Y-2542D01*
X-7781Y-2498D01*
X-7690Y-2428D01*
X-7620Y-2337D01*
X-7577Y-2232D01*
X-7562Y-2118D01*
Y-1882D01*
X-7577Y-1768D01*
X-7620Y-1663D01*
X-7690Y-1572D01*
X-7781Y-1502D01*
X-7887Y-1458D01*
X-8000Y-1443D01*
D02*
G37*
G36*
X-11000D02*
X-11113Y-1458D01*
X-11219Y-1502D01*
X-11310Y-1572D01*
X-11380Y-1663D01*
X-11423Y-1768D01*
X-11438Y-1882D01*
Y-2118D01*
X-11423Y-2232D01*
X-11380Y-2337D01*
X-11310Y-2428D01*
X-11219Y-2498D01*
X-11113Y-2542D01*
X-11000Y-2557D01*
X-10887Y-2542D01*
X-10781Y-2498D01*
X-10690Y-2428D01*
X-10620Y-2337D01*
X-10577Y-2232D01*
X-10562Y-2118D01*
Y-1882D01*
X-10577Y-1768D01*
X-10620Y-1663D01*
X-10690Y-1572D01*
X-10781Y-1502D01*
X-10887Y-1458D01*
X-11000Y-1443D01*
D02*
G37*
G36*
X-12000D02*
X-12113Y-1458D01*
X-12219Y-1502D01*
X-12310Y-1572D01*
X-12380Y-1663D01*
X-12423Y-1768D01*
X-12438Y-1882D01*
Y-2118D01*
X-12423Y-2232D01*
X-12380Y-2337D01*
X-12310Y-2428D01*
X-12219Y-2498D01*
X-12113Y-2542D01*
X-12000Y-2557D01*
X-11887Y-2542D01*
X-11781Y-2498D01*
X-11690Y-2428D01*
X-11620Y-2337D01*
X-11577Y-2232D01*
X-11562Y-2118D01*
Y-1882D01*
X-11577Y-1768D01*
X-11620Y-1663D01*
X-11690Y-1572D01*
X-11781Y-1502D01*
X-11887Y-1458D01*
X-12000Y-1443D01*
D02*
G37*
G36*
X-13000D02*
X-13113Y-1458D01*
X-13219Y-1502D01*
X-13310Y-1572D01*
X-13380Y-1663D01*
X-13423Y-1768D01*
X-13438Y-1882D01*
Y-2118D01*
X-13423Y-2232D01*
X-13380Y-2337D01*
X-13310Y-2428D01*
X-13219Y-2498D01*
X-13113Y-2542D01*
X-13000Y-2557D01*
X-12887Y-2542D01*
X-12781Y-2498D01*
X-12690Y-2428D01*
X-12620Y-2337D01*
X-12577Y-2232D01*
X-12562Y-2118D01*
Y-1882D01*
X-12577Y-1768D01*
X-12620Y-1663D01*
X-12690Y-1572D01*
X-12781Y-1502D01*
X-12887Y-1458D01*
X-13000Y-1443D01*
D02*
G37*
G36*
X-14000D02*
X-14113Y-1458D01*
X-14219Y-1502D01*
X-14310Y-1572D01*
X-14380Y-1663D01*
X-14423Y-1768D01*
X-14438Y-1882D01*
Y-2118D01*
X-14423Y-2232D01*
X-14380Y-2337D01*
X-14310Y-2428D01*
X-14219Y-2498D01*
X-14113Y-2542D01*
X-14000Y-2557D01*
X-13887Y-2542D01*
X-13781Y-2498D01*
X-13690Y-2428D01*
X-13620Y-2337D01*
X-13577Y-2232D01*
X-13562Y-2118D01*
Y-1882D01*
X-13577Y-1768D01*
X-13620Y-1663D01*
X-13690Y-1572D01*
X-13781Y-1502D01*
X-13887Y-1458D01*
X-14000Y-1443D01*
D02*
G37*
G36*
X-15000D02*
X-15113Y-1458D01*
X-15219Y-1502D01*
X-15310Y-1572D01*
X-15380Y-1663D01*
X-15423Y-1768D01*
X-15438Y-1882D01*
Y-2118D01*
X-15423Y-2232D01*
X-15380Y-2337D01*
X-15310Y-2428D01*
X-15219Y-2498D01*
X-15113Y-2542D01*
X-15000Y-2557D01*
X-14887Y-2542D01*
X-14781Y-2498D01*
X-14690Y-2428D01*
X-14620Y-2337D01*
X-14577Y-2232D01*
X-14562Y-2118D01*
Y-1882D01*
X-14577Y-1768D01*
X-14620Y-1663D01*
X-14690Y-1572D01*
X-14781Y-1502D01*
X-14887Y-1458D01*
X-15000Y-1443D01*
D02*
G37*
G36*
X-20438Y-1273D02*
X-20562D01*
X-20571Y-1275D01*
X-20581D01*
X-20702Y-1299D01*
X-20711Y-1303D01*
X-20721Y-1305D01*
X-20835Y-1352D01*
X-20843Y-1358D01*
X-20853Y-1361D01*
X-20955Y-1430D01*
X-20962Y-1437D01*
X-20971Y-1442D01*
X-21058Y-1529D01*
X-21063Y-1538D01*
X-21070Y-1545D01*
X-21139Y-1647D01*
X-21142Y-1657D01*
X-21148Y-1665D01*
X-21195Y-1779D01*
X-21197Y-1789D01*
X-21201Y-1798D01*
X-21225Y-1919D01*
Y-1929D01*
X-21227Y-1938D01*
Y-2062D01*
X-21225Y-2071D01*
Y-2081D01*
X-21201Y-2202D01*
X-21197Y-2211D01*
X-21195Y-2221D01*
X-21148Y-2335D01*
X-21142Y-2343D01*
X-21139Y-2353D01*
X-21070Y-2455D01*
X-21063Y-2462D01*
X-21058Y-2471D01*
X-20971Y-2558D01*
X-20962Y-2563D01*
X-20955Y-2570D01*
X-20853Y-2639D01*
X-20843Y-2642D01*
X-20835Y-2648D01*
X-20721Y-2695D01*
X-20711Y-2697D01*
X-20702Y-2701D01*
X-20581Y-2725D01*
X-20571D01*
X-20562Y-2727D01*
X-20438D01*
X-20429Y-2725D01*
X-20419D01*
X-20298Y-2701D01*
X-20289Y-2697D01*
X-20279Y-2695D01*
X-20165Y-2648D01*
X-20157Y-2642D01*
X-20147Y-2639D01*
X-20045Y-2570D01*
X-20038Y-2563D01*
X-20029Y-2558D01*
X-19942Y-2471D01*
X-19937Y-2462D01*
X-19930Y-2455D01*
X-19861Y-2353D01*
X-19858Y-2343D01*
X-19852Y-2335D01*
X-19805Y-2221D01*
X-19803Y-2211D01*
X-19799Y-2202D01*
X-19775Y-2081D01*
Y-2071D01*
X-19773Y-2062D01*
Y-1938D01*
X-19775Y-1929D01*
Y-1919D01*
X-19799Y-1798D01*
X-19803Y-1789D01*
X-19805Y-1779D01*
X-19852Y-1665D01*
X-19858Y-1657D01*
X-19861Y-1647D01*
X-19930Y-1545D01*
X-19937Y-1538D01*
X-19942Y-1529D01*
X-20029Y-1442D01*
X-20038Y-1437D01*
X-20045Y-1430D01*
X-20147Y-1361D01*
X-20157Y-1358D01*
X-20165Y-1352D01*
X-20279Y-1305D01*
X-20289Y-1303D01*
X-20298Y-1299D01*
X-20419Y-1275D01*
X-20429D01*
X-20438Y-1273D01*
D02*
G37*
%LPD*%
D10*
X-4513Y5680D02*
X-4500Y5667D01*
X-6214Y6762D02*
X-5133Y5680D01*
X-4513D01*
X-6431Y6762D02*
X-6214D01*
X-6500Y6830D02*
X-6431Y6762D01*
X-11811Y13976D02*
X-11417Y14370D01*
Y15157D01*
X-12598Y13976D02*
X-12540Y14034D01*
Y14460D02*
X-12151Y14849D01*
X-12540Y14034D02*
Y14460D01*
X-11558Y6452D02*
X-11316Y6693D01*
X-9933D02*
X-9843Y6602D01*
X-11316Y6693D02*
X-9933D01*
X-11659Y6350D02*
Y6365D01*
X-11573Y6452D01*
X-11558D01*
X-7235Y8253D02*
X-7220Y8268D01*
X-7235Y7515D02*
Y8253D01*
X-7250Y7500D02*
X-7235Y7515D01*
X-12540Y7014D02*
Y8132D01*
X-12572Y8163D02*
X-12540Y8132D01*
Y7014D02*
X-12508Y6982D01*
X-12535Y6161D02*
Y6890D01*
X-11641Y5659D02*
X-11610Y5690D01*
Y3785D02*
Y5690D01*
X-12520Y5659D02*
X-11641D01*
X-12530Y5650D02*
X-12520Y5659D01*
X-10630Y15945D02*
X-10173D01*
X-11417Y15157D02*
X-10630Y15945D01*
X-12151Y14849D02*
Y15950D01*
X-9513Y15945D02*
X-9506Y15951D01*
Y16994D02*
X-9500Y17000D01*
X-9506Y15951D02*
Y16994D01*
X-11495Y15954D02*
X-11491Y15950D01*
X-11495Y15954D02*
Y16995D01*
X-11500Y17000D02*
X-11495Y16995D01*
X-10951Y13252D02*
Y14002D01*
X-10955Y13248D02*
X-10951Y13252D01*
Y14002D02*
X-10947Y14006D01*
X-10955Y12736D02*
X-10402D01*
X-10250Y12585D01*
Y12000D02*
Y12585D01*
X-12402Y12098D02*
Y12877D01*
X-12286Y12992D01*
X-11880D01*
X-13000Y11500D02*
X-12402Y12098D01*
X-20423Y4227D02*
X-14773D01*
X-4938Y13284D02*
X-4928Y13274D01*
X-4896D01*
X-4938Y13284D02*
Y14050D01*
X-4495Y12762D02*
X-4294Y12562D01*
X-4896Y12762D02*
X-4495D01*
X-4294Y12000D02*
Y12562D01*
X-6500Y12791D02*
X-6273Y13018D01*
X-6500Y9750D02*
Y12791D01*
X-6273Y13018D02*
X-5821D01*
X-4278Y14403D02*
Y14755D01*
Y14050D02*
Y14403D01*
X-3964D02*
X-3937Y14430D01*
X-4278Y14403D02*
X-3964D01*
X-4340Y14755D02*
X-4278D01*
X-4340D02*
Y15410D01*
X-3937Y14430D02*
X-3008D01*
X-2968Y14470D01*
X-1968D01*
X-2014Y10008D02*
Y10986D01*
X-2028Y9994D02*
X-2014Y10008D01*
Y10986D02*
X-2000Y11000D01*
X-4500D02*
X-4485Y10985D01*
Y10029D02*
Y10985D01*
Y10029D02*
X-4469Y10014D01*
X-7460Y10040D02*
Y10960D01*
X-7500Y11000D02*
X-7460Y10960D01*
Y10040D02*
X-7420Y10000D01*
X-9960Y10040D02*
Y10960D01*
Y10040D02*
X-9920Y10000D01*
X-10000Y11000D02*
X-9960Y10960D01*
X-13463Y5037D02*
Y6250D01*
X-13500Y6260D02*
X-13490Y6250D01*
X-13500Y6260D02*
Y9250D01*
X-13490Y6250D02*
X-13463D01*
X-8250Y9250D02*
X-7000D01*
X-13500D02*
X-8250D01*
Y6510D02*
Y9250D01*
X-14250Y4250D02*
X-13463Y5037D01*
X-7260Y6756D02*
X-7250Y6766D01*
Y7500D01*
X-7287Y6756D02*
X-7260D01*
X-7000Y9250D02*
X-6500Y9750D01*
X-19000Y6000D02*
Y8000D01*
X-16000Y6000D02*
Y8000D01*
X-8250Y6510D02*
X-8240Y6500D01*
X-8213D01*
X-10250Y12000D02*
X-8750D01*
X-10750D02*
X-10250D01*
X-8500Y11000D02*
Y11750D01*
X-8750Y12000D02*
X-8500Y11750D01*
X-11000Y11000D02*
Y11750D01*
X-10750Y12000D01*
X-10254Y14386D02*
Y14755D01*
Y14016D02*
Y14386D01*
X-8976D02*
X-8891Y14470D01*
X-10254Y14386D02*
X-8976D01*
X-10264Y14006D02*
X-10254Y14016D01*
X-10287Y14006D02*
X-10264D01*
X-7891Y14470D02*
X-6280D01*
X-8891D02*
X-7891D01*
X-6000Y14750D02*
Y17000D01*
X-6280Y14470D02*
X-6000Y14750D01*
X-5376Y11624D02*
X-5000Y12000D01*
X-4294D01*
X-5500Y11000D02*
X-5376Y11124D01*
Y11624D01*
X-4294Y12000D02*
X-3250D01*
X-3000Y11000D02*
Y11750D01*
X-3250Y12000D02*
X-3000Y11750D01*
X-4000Y15750D02*
Y17000D01*
X-4340Y15410D02*
X-4000Y15750D01*
X-6483Y2267D02*
X-4517D01*
X-4500Y2250D01*
X-6500Y2284D02*
X-6483Y2267D01*
X-6500Y6105D02*
X-6500Y6105D01*
X-6639Y6244D02*
X-6500Y6105D01*
Y6170D01*
Y2944D02*
Y6105D01*
Y6170D02*
X-6500Y6170D01*
X-6500Y2944D02*
X-6500Y2944D01*
X-6500Y6090D02*
Y6105D01*
X-7287Y6244D02*
X-6639D01*
X-11552Y3183D02*
X-10067D01*
X-10000Y3250D01*
X-11619Y3115D02*
X-11552Y3183D01*
X-15435Y2065D02*
Y3487D01*
X-15370Y3552D01*
X-15500Y2000D02*
X-15435Y2065D01*
X-18000Y2000D02*
X-17969Y2031D01*
Y3566D02*
X-17937Y3597D01*
X-17969Y2031D02*
Y3566D01*
X-20473Y2027D02*
Y3516D01*
X-20446Y3543D01*
X-20500Y2000D02*
X-20473Y2027D01*
X-20446Y4203D02*
X-20423Y4227D01*
X-14773D02*
X-14750Y4250D01*
X-14250D01*
X-13500Y9250D02*
Y11500D01*
X-13000D01*
X-14700D02*
X-13500D01*
X-17340Y8660D02*
X-17000Y9000D01*
Y14382D01*
X-14500Y16882D01*
X-16000Y8660D02*
Y14382D01*
X-13500Y16882D01*
X-19000Y8660D02*
X-17340D01*
X-14500Y16882D02*
Y17000D01*
X-13500Y16882D02*
Y17000D01*
D11*
X3500Y10741D02*
Y10142D01*
X3800D01*
X3900Y10242D01*
Y10342D01*
X3800Y10442D01*
X3500D01*
X3800D01*
X3900Y10542D01*
Y10641D01*
X3800Y10741D01*
X3500D01*
X4200Y10142D02*
X4400D01*
X4500Y10242D01*
Y10442D01*
X4400Y10542D01*
X4200D01*
X4100Y10442D01*
Y10242D01*
X4200Y10142D01*
X4800Y10641D02*
Y10542D01*
X4700D01*
X4900D01*
X4800D01*
Y10242D01*
X4900Y10142D01*
X5299Y10641D02*
Y10542D01*
X5199D01*
X5399D01*
X5299D01*
Y10242D01*
X5399Y10142D01*
X5799D02*
X5999D01*
X6099Y10242D01*
Y10442D01*
X5999Y10542D01*
X5799D01*
X5699Y10442D01*
Y10242D01*
X5799Y10142D01*
X6299D02*
Y10542D01*
X6399D01*
X6499Y10442D01*
Y10142D01*
Y10442D01*
X6599Y10542D01*
X6699Y10442D01*
Y10142D01*
X7499Y10741D02*
Y10142D01*
X7899D01*
X8198Y10542D02*
X8398D01*
X8498Y10442D01*
Y10142D01*
X8198D01*
X8099Y10242D01*
X8198Y10342D01*
X8498D01*
X8698Y10542D02*
Y10242D01*
X8798Y10142D01*
X9098D01*
Y10042D01*
X8998Y9942D01*
X8898D01*
X9098Y10142D02*
Y10542D01*
X9598Y10142D02*
X9398D01*
X9298Y10242D01*
Y10442D01*
X9398Y10542D01*
X9598D01*
X9698Y10442D01*
Y10342D01*
X9298D01*
X9898Y10542D02*
Y10142D01*
Y10342D01*
X9998Y10442D01*
X10098Y10542D01*
X10198D01*
D12*
X-5500Y11000D02*
D03*
X-8500D02*
D03*
X-1968Y14470D02*
D03*
X-7891D02*
D03*
X-19000Y6000D02*
D03*
X-16000D02*
D03*
X-3000Y11000D02*
D03*
X-11000D02*
D03*
X-20500Y2000D02*
D03*
X-18000D02*
D03*
X-15500D02*
D03*
D13*
X-4500Y11000D02*
D03*
X-7500D02*
D03*
X-2968Y14470D02*
D03*
X-8891D02*
D03*
X-20000Y6000D02*
D03*
X-17000D02*
D03*
X-2000Y11000D02*
D03*
X-10000D02*
D03*
X-19500Y2000D02*
D03*
X-17000D02*
D03*
X-14500D02*
D03*
D14*
X-4500Y3250D02*
D03*
X-10000Y2250D02*
D03*
X-4500Y6667D02*
D03*
X-9850Y5667D02*
D03*
X-300Y4900D02*
D03*
D15*
X-4500Y2250D02*
D03*
X-10000Y3250D02*
D03*
X-4500Y5667D02*
D03*
X-9850Y6667D02*
D03*
X-300Y3900D02*
D03*
D16*
X-17800Y12500D02*
D03*
Y11500D02*
D03*
X-14700Y12500D02*
D03*
Y11500D02*
D03*
D17*
X-17800Y10500D02*
D03*
X-14700D02*
D03*
D18*
X-9000Y-2000D02*
D03*
X-10000D02*
D03*
X-11000D02*
D03*
X-15000D02*
D03*
X-13000D02*
D03*
X-12000D02*
D03*
X-8000D02*
D03*
X-14000D02*
D03*
X-6000D02*
D03*
X-4000D02*
D03*
X-3000D02*
D03*
X-1000D02*
D03*
X-5000D02*
D03*
X-2000D02*
D03*
Y17000D02*
D03*
X-3000D02*
D03*
X-4000D02*
D03*
X-8000D02*
D03*
X-6000D02*
D03*
X-5000D02*
D03*
X-1000D02*
D03*
X-7000D02*
D03*
X-15598D02*
D03*
X-14500D02*
D03*
X-13500D02*
D03*
X-9500D02*
D03*
X-11500D02*
D03*
X-12500D02*
D03*
X-18600D02*
D03*
X-10500D02*
D03*
X-16600D02*
D03*
X-17600D02*
D03*
D19*
X-11811Y13976D02*
D03*
X-12598D02*
D03*
X-12572Y8163D02*
D03*
X-7250Y7500D02*
D03*
D20*
X-9513Y15945D02*
D03*
X-10173D02*
D03*
X-7220Y8268D02*
D03*
X-6560D02*
D03*
X-11491Y15950D02*
D03*
X-12151D02*
D03*
X-12535Y7283D02*
D03*
X-11875D02*
D03*
X-10287Y14006D02*
D03*
X-10947D02*
D03*
X-4278Y14050D02*
D03*
X-4938D02*
D03*
X-4469Y10014D02*
D03*
X-5129D02*
D03*
X-2028Y9994D02*
D03*
X-2688D02*
D03*
X-7420Y10000D02*
D03*
X-8080D02*
D03*
X-9920D02*
D03*
X-10580D02*
D03*
X-4278Y14755D02*
D03*
X-4938D02*
D03*
X-10254D02*
D03*
X-10914D02*
D03*
D21*
X-6500Y2944D02*
D03*
Y2284D02*
D03*
X-11619Y3775D02*
D03*
Y3115D02*
D03*
X-11659Y5690D02*
D03*
Y6350D02*
D03*
X-6500Y6170D02*
D03*
Y6830D02*
D03*
X-16000Y8660D02*
D03*
Y8000D02*
D03*
X-19000Y8660D02*
D03*
Y8000D02*
D03*
X-20446Y4203D02*
D03*
Y3543D02*
D03*
X-17937Y4257D02*
D03*
Y3597D02*
D03*
X-15370Y4212D02*
D03*
Y3552D02*
D03*
D22*
X-12530Y6161D02*
D03*
Y5650D02*
D03*
X-13455Y5906D02*
D03*
X-4896Y13274D02*
D03*
Y12762D02*
D03*
X-5821Y13018D02*
D03*
X-10955Y13248D02*
D03*
Y12736D02*
D03*
X-11880Y12992D02*
D03*
X-7287Y6756D02*
D03*
Y6244D02*
D03*
X-8213Y6500D02*
D03*
M02*
