G04*
G04 #@! TF.GenerationSoftware,Altium Limited,Altium Designer,21.2.0 (30)*
G04*
G04 Layer_Color=2752767*
%FSLAX24Y24*%
%MOIN*%
G70*
G04*
G04 #@! TF.SameCoordinates,1032982D-78CD-45FA-BA90-42E7A7D025FA*
G04*
G04*
G04 #@! TF.FilePolarity,Positive*
G04*
G01*
G75*
%ADD22C,0.0020*%
%ADD23C,0.0027*%
D22*
X1692Y11770D02*
Y11930D01*
X1852D01*
Y11770D01*
X1692D01*
Y9723D02*
Y9883D01*
X1852D01*
Y9723D01*
X1692D01*
Y10747D02*
Y10907D01*
X1852D01*
Y10747D01*
X1692D01*
X5629Y9605D02*
Y9765D01*
X5789D01*
Y9605D01*
X5629D01*
Y7558D02*
Y7718D01*
X5789D01*
Y7558D01*
X5629D01*
Y8581D02*
Y8741D01*
X5789D01*
Y8581D01*
X5629D01*
X-2639Y10715D02*
Y10875D01*
X-2479D01*
Y10715D01*
X-2639D01*
Y14715D02*
Y14875D01*
X-2479D01*
Y14715D01*
X-2639D01*
X-12866Y11423D02*
Y11583D01*
X-12706D01*
Y11423D01*
X-12866D01*
Y13470D02*
Y13630D01*
X-12706D01*
Y13470D01*
X-12866D01*
Y12446D02*
Y12606D01*
X-12706D01*
Y12446D01*
X-12866D01*
X-12875Y8345D02*
Y8505D01*
X-12715D01*
Y8345D01*
X-12875D01*
Y10392D02*
Y10552D01*
X-12715D01*
Y10392D01*
X-12875D01*
Y9369D02*
Y9529D01*
X-12715D01*
Y9369D01*
X-12875D01*
X-8182Y14684D02*
Y14844D01*
X-8022D01*
Y14684D01*
X-8182D01*
Y13503D02*
Y13663D01*
X-8022D01*
Y13503D01*
X-8182D01*
X-11332Y8385D02*
Y8545D01*
X-11172D01*
Y8385D01*
X-11332D01*
Y7203D02*
Y7363D01*
X-11172D01*
Y7203D01*
X-11332D01*
X4644Y11109D02*
Y11269D01*
X4804D01*
Y11109D01*
X4644D01*
X3266D02*
Y11269D01*
X3426D01*
Y11109D01*
X3266D01*
X-9529Y10715D02*
Y10875D01*
X-9369D01*
Y10715D01*
X-9529D01*
X-8182Y10725D02*
Y10885D01*
X-8022D01*
Y10725D01*
X-8182D01*
X-11300Y10715D02*
Y10875D01*
X-11140D01*
Y10715D01*
X-11300D01*
X-11332Y9566D02*
Y9726D01*
X-11172D01*
Y9566D01*
X-11332D01*
X-1261Y14715D02*
Y14875D01*
X-1101D01*
Y14715D01*
X-1261D01*
Y10715D02*
Y10875D01*
X-1101D01*
Y10715D01*
X-1261D01*
X-7332Y7203D02*
Y7363D01*
X-7172D01*
Y7203D01*
X-7332D01*
X-4182Y13503D02*
Y13663D01*
X-4022D01*
Y13503D01*
X-4182D01*
Y14684D02*
Y14844D01*
X-4022D01*
Y14684D01*
X-4182D01*
X-11300Y14715D02*
Y14875D01*
X-11140D01*
Y14715D01*
X-11300D01*
X-9529D02*
Y14875D01*
X-9369D01*
Y14715D01*
X-9529D01*
X-7332Y9566D02*
Y9726D01*
X-7172D01*
Y9566D01*
X-7332D01*
X-4182Y10725D02*
Y10885D01*
X-4022D01*
Y10725D01*
X-4182D01*
X-19371Y13731D02*
Y13891D01*
X-19211D01*
Y13731D01*
X-19371D01*
Y9731D02*
Y9891D01*
X-19211D01*
Y9731D01*
X-19371D01*
X-20749Y13731D02*
Y13891D01*
X-20589D01*
Y13731D01*
X-20749D01*
Y9731D02*
Y9891D01*
X-20589D01*
Y9731D01*
X-20749D01*
X4644Y15109D02*
Y15269D01*
X4804D01*
Y15109D01*
X4644D01*
X3061Y2306D02*
Y2466D01*
X3221D01*
Y2306D01*
X3061D01*
Y-1694D02*
Y-1534D01*
X3221D01*
Y-1694D01*
X3061D01*
X3022Y4704D02*
Y4864D01*
X3182D01*
Y4704D01*
X3022D01*
Y8704D02*
Y8864D01*
X3182D01*
Y8704D01*
X3022D01*
X1692Y4710D02*
Y4870D01*
X1852D01*
Y4710D01*
X1692D01*
Y8710D02*
Y8870D01*
X1852D01*
Y8710D01*
X1692D01*
Y2306D02*
Y2466D01*
X1852D01*
Y2306D01*
X1692D01*
Y-1694D02*
Y-1534D01*
X1852D01*
Y-1694D01*
X1692D01*
X3266Y15109D02*
Y15269D01*
X3426D01*
Y15109D01*
X3266D01*
X-7332Y8385D02*
Y8545D01*
X-7172D01*
Y8385D01*
X-7332D01*
X-16096Y5185D02*
Y5345D01*
X-15936D01*
Y5185D01*
X-16096D01*
X-20096D02*
Y5345D01*
X-19936D01*
Y5185D01*
X-20096D01*
X-16096Y2823D02*
Y2983D01*
X-15936D01*
Y2823D01*
X-16096D01*
X-20096D02*
Y2983D01*
X-19936D01*
Y2823D01*
X-20096D01*
X-16096Y4004D02*
Y4164D01*
X-15936D01*
Y4004D01*
X-16096D01*
X-20096D02*
Y4164D01*
X-19936D01*
Y4004D01*
X-20096D01*
D23*
X1261Y13992D02*
G03*
X1261Y13992I-80J0D01*
G01*
Y12992D02*
G03*
X1261Y12992I-80J0D01*
G01*
X-15577Y7480D02*
G03*
X-15577Y7480I-80J0D01*
G01*
X-14577D02*
G03*
X-14577Y7480I-80J0D01*
G01*
X5592Y5921D02*
G03*
X5592Y5921I-80J0D01*
G01*
Y3453D02*
G03*
X5592Y3453I-80J0D01*
G01*
X-117Y3362D02*
G03*
X-117Y3362I-80J0D01*
G01*
Y5815D02*
G03*
X-117Y5815I-80J0D01*
G01*
X1261Y15945D02*
G03*
X1261Y15945I-80J0D01*
G01*
Y16945D02*
G03*
X1261Y16945I-80J0D01*
G01*
X-10747Y3362D02*
G03*
X-10747Y3362I-80J0D01*
G01*
Y2362D02*
G03*
X-10747Y2362I-80J0D01*
G01*
Y5815D02*
G03*
X-10747Y5815I-80J0D01*
G01*
Y4815D02*
G03*
X-10747Y4815I-80J0D01*
G01*
X-5886Y3362D02*
G03*
X-5886Y3362I-80J0D01*
G01*
Y2362D02*
G03*
X-5886Y2362I-80J0D01*
G01*
Y5815D02*
G03*
X-5886Y5815I-80J0D01*
G01*
Y4815D02*
G03*
X-5886Y4815I-80J0D01*
G01*
X-17137Y7480D02*
G03*
X-17137Y7480I-80J0D01*
G01*
X-18137D02*
G03*
X-18137Y7480I-80J0D01*
G01*
X-19605D02*
G03*
X-19605Y7480I-80J0D01*
G01*
X-20605D02*
G03*
X-20605Y7480I-80J0D01*
G01*
X-14920Y147D02*
G03*
X-14920Y147I-80J0D01*
G01*
X-13920D02*
G03*
X-13920Y147I-80J0D01*
G01*
X-17417Y147D02*
G03*
X-17417Y147I-80J0D01*
G01*
X-16417D02*
G03*
X-16417Y147I-80J0D01*
G01*
X-19920Y147D02*
G03*
X-19920Y147I-80J0D01*
G01*
X-18920D02*
G03*
X-18920Y147I-80J0D01*
G01*
X-117Y2362D02*
G03*
X-117Y2362I-80J0D01*
G01*
Y4815D02*
G03*
X-117Y4815I-80J0D01*
G01*
X5592Y4921D02*
G03*
X5592Y4921I-80J0D01*
G01*
Y2453D02*
G03*
X5592Y2453I-80J0D01*
G01*
X-17720Y10500D02*
G03*
X-17720Y10500I-80J0D01*
G01*
Y11500D02*
G03*
X-17720Y11500I-80J0D01*
G01*
Y12500D02*
G03*
X-17720Y12500I-80J0D01*
G01*
X-14620Y10500D02*
G03*
X-14620Y10500I-80J0D01*
G01*
Y11500D02*
G03*
X-14620Y11500I-80J0D01*
G01*
Y12500D02*
G03*
X-14620Y12500I-80J0D01*
G01*
X-8920Y-2000D02*
G03*
X-8920Y-2000I-80J0D01*
G01*
X-9920D02*
G03*
X-9920Y-2000I-80J0D01*
G01*
X-10920D02*
G03*
X-10920Y-2000I-80J0D01*
G01*
X-14920D02*
G03*
X-14920Y-2000I-80J0D01*
G01*
X-12920D02*
G03*
X-12920Y-2000I-80J0D01*
G01*
X-11920D02*
G03*
X-11920Y-2000I-80J0D01*
G01*
X-7920D02*
G03*
X-7920Y-2000I-80J0D01*
G01*
X-13920D02*
G03*
X-13920Y-2000I-80J0D01*
G01*
X-5920D02*
G03*
X-5920Y-2000I-80J0D01*
G01*
X-3920D02*
G03*
X-3920Y-2000I-80J0D01*
G01*
X-2920D02*
G03*
X-2920Y-2000I-80J0D01*
G01*
X-920D02*
G03*
X-920Y-2000I-80J0D01*
G01*
X-4920D02*
G03*
X-4920Y-2000I-80J0D01*
G01*
X-1920D02*
G03*
X-1920Y-2000I-80J0D01*
G01*
Y17000D02*
G03*
X-1920Y17000I-80J0D01*
G01*
X-2920D02*
G03*
X-2920Y17000I-80J0D01*
G01*
X-3920D02*
G03*
X-3920Y17000I-80J0D01*
G01*
X-7920D02*
G03*
X-7920Y17000I-80J0D01*
G01*
X-5920D02*
G03*
X-5920Y17000I-80J0D01*
G01*
X-4920D02*
G03*
X-4920Y17000I-80J0D01*
G01*
X-920D02*
G03*
X-920Y17000I-80J0D01*
G01*
X-6920D02*
G03*
X-6920Y17000I-80J0D01*
G01*
X-15518D02*
G03*
X-15518Y17000I-80J0D01*
G01*
X-14420D02*
G03*
X-14420Y17000I-80J0D01*
G01*
X-13420D02*
G03*
X-13420Y17000I-80J0D01*
G01*
X-9420D02*
G03*
X-9420Y17000I-80J0D01*
G01*
X-11420D02*
G03*
X-11420Y17000I-80J0D01*
G01*
X-12420D02*
G03*
X-12420Y17000I-80J0D01*
G01*
X-18520D02*
G03*
X-18520Y17000I-80J0D01*
G01*
X-10420D02*
G03*
X-10420Y17000I-80J0D01*
G01*
X-16520D02*
G03*
X-16520Y17000I-80J0D01*
G01*
X-17520D02*
G03*
X-17520Y17000I-80J0D01*
G01*
M02*
