M48
;Layer_Color=9474304
;FILE_FORMAT=2:4
INCH,LZ
;TYPE=PLATED
T1F00S00C0.0354
T2F00S00C0.0512
%
T01
X001772Y-001614
X003141
Y002386
X001772
Y00479
X003102Y004784
Y008784
X001772Y00879
X001772Y009803
Y010827
Y01185
X003346Y011189
X004724
X005709Y009685
Y008661
Y007638
X004724Y015189
X003346
X-001181Y014795
X-002559
X-004102Y014764
Y013583
Y010805
X-002559Y010795
X-001181
X-008102Y010805
X-009449Y010795
X-01122
X-011252Y009646
Y008465
Y007283
X-012795Y008425
Y009449
Y010472
X-012786Y011503
Y012526
Y01355
X-01122Y014795
X-009449
X-008102Y014764
Y013583
X-007252Y009646
Y008465
Y007283
X-016016Y005265
Y004084
Y002903
X-020016
Y004084
Y005265
X-019291Y009811
Y013811
X-020669
Y009811
T02
X-02Y000147
X-019
X-017497Y000147
X-016497
X-015Y000147
X-014
X-014Y-002
X-015
X-013
X-012
X-011
X-01
X-009
X-008
X-006
X-005
X-005966Y002362
X-010827
X-000197Y002362
X-001Y-002
X-002
X-003
X-004
X005512Y002453
Y003453
Y004921
Y005921
X-000197Y005815
Y004815
Y003362
X001181Y012992
Y013992
Y015945
Y016945
X-001Y017
X-002
X-003
X-004
X-005
X-006
X-007
X-008
X-0095
X-0105
X-0115
X-0125
X-0135
X-0145
X-015598
X-0166
X-0176
X-0186
X-0178Y0125
Y0115
Y0105
X-0147
Y0115
Y0125
X-014657Y00748
X-015657
X-017217
X-018217
X-019685
X-010827Y005815
Y004815
Y003362
X-005966
Y004815
Y005815
X-020685Y00748
M30
