M48
;Layer_Color=9474304
;FILE_FORMAT=2:4
INCH,LZ
T3F00S00C0.0040
%
G90
G05
T03
G00X-020324Y-002582
M15
G01X-020213Y-002536
G01X-020114Y-00247
G01X-02003Y-002386
G01X-019964Y-002287
G01X-019918Y-002176
G01X-019895Y-00206
G01X-019895Y-00194
G01X-019918Y-001824
G01X-019964Y-001713
G01X-02003Y-001614
G01X-020114Y-00153
G01X-020213Y-001464
G01X-020324Y-001418
G01X-02044Y-001395
G01X-02056Y-001395
G01X-020676Y-001418
G01X-020787Y-001464
G01X-020886Y-00153
G01X-02097Y-001614
G01X-021036Y-001713
G01X-021082Y-001824
G01X-021105Y-00194
G01X-021105Y-00206
G01X-021082Y-002176
G01X-021036Y-002287
G01X-02097Y-002386
G01X-020886Y-00247
G01X-020787Y-002536
G01X-020676Y-002582
G01X-02056Y-002605
G01X-02044Y-002605
G01X-020324Y-002582
M16
G00X-019824Y016418
M15
G01X-019713Y016464
G01X-019614Y01653
G01X-01953Y016614
G01X-019464Y016713
G01X-019418Y016824
G01X-019395Y01694
G01X-019395Y01706
G01X-019418Y017176
G01X-019464Y017287
G01X-01953Y017386
G01X-019614Y01747
G01X-019713Y017536
G01X-019824Y017582
G01X-01994Y017605
G01X-02006Y017605
G01X-020176Y017582
G01X-020287Y017536
G01X-020386Y01747
G01X-02047Y017386
G01X-020536Y017287
G01X-020582Y017176
G01X-020605Y01706
G01X-020605Y01694
G01X-020582Y016824
G01X-020536Y016713
G01X-02047Y016614
G01X-020386Y01653
G01X-020287Y016464
G01X-020176Y016418
G01X-02006Y016395
G01X-01994Y016395
G01X-019824Y016418
M16
G00X000176Y010418
M15
G01X000287Y010464
G01X000386Y01053
G01X00047Y010614
G01X000536Y010713
G01X000582Y010824
G01X000605Y01094
G01X000605Y01106
G01X000582Y011176
G01X000536Y011287
G01X00047Y011386
G01X000386Y01147
G01X000287Y011536
G01X000176Y011582
G01X00006Y011605
G01X-00006Y011605
G01X-000176Y011582
G01X-000287Y011536
G01X-000386Y01147
G01X-00047Y011386
G01X-000536Y011287
G01X-000582Y011176
G01X-000605Y01106
G01X-000605Y01094
G01X-000582Y010824
G01X-000536Y010713
G01X-00047Y010614
G01X-000386Y01053
G01X-000287Y010464
G01X-000176Y010418
G01X-00006Y010395
G01X00006Y010395
G01X000176Y010418
M16
G00X000176Y-000582
M15
G01X000287Y-000536
G01X000386Y-00047
G01X00047Y-000386
G01X000536Y-000287
G01X000582Y-000176
G01X000605Y-00006
G01X000605Y00006
G01X000582Y000176
G01X000536Y000287
G01X00047Y000386
G01X000386Y00047
G01X000287Y000536
G01X000176Y000582
G01X00006Y000605
G01X-00006Y000605
G01X-000176Y000582
G01X-000287Y000536
G01X-000386Y00047
G01X-00047Y000386
G01X-000536Y000287
G01X-000582Y000176
G01X-000605Y00006
G01X-000605Y-00006
G01X-000582Y-000176
G01X-000536Y-000287
G01X-00047Y-000386
G01X-000386Y-00047
G01X-000287Y-000536
G01X-000176Y-000582
G01X-00006Y-000605
G01X00006Y-000605
G01X000176Y-000582
M16
G00X005926Y-003
M15
G01X005926Y-001977
G01X006904Y-000998
G01X00691Y-000984
G01X00691Y011417
G01X006904Y011431
G01X005926Y01241
G01X005926Y01752
G01X00592Y017534
G01X005439Y018014
G01X005425Y01802
G01X-021Y01802
G01X-021014Y018014
G01X-021514Y017514
G01X-02152Y0175
G01X-02152Y-0025
G01X-021514Y-002514
G01X-021014Y-003014
G01X-021Y-00302
G01X005906Y-00302
G01X005926Y-003
M16
M17
M30
