M48
;Layer_Color=9474304
;FILE_FORMAT=2:4
INCH,LZ
;TYPE=PLATED
T1F00S00C0.0280
T2F00S00C0.0512
%
T01
X-012572Y008163
X-012598Y013976
X-011811
X-00725Y0075
T02
X-0205Y002
X-0195
X-018
X-017
X-0155
X-0145
X-015Y-002
X-014
X-013
X-012
X-011
X-01
X-009
X-008
X-006
X-005
X-01Y00225
X-0045
X-004Y-002
X-003
X-002
X-001
X-0003Y0039
Y0049
X-0045Y005667
Y006667
Y00325
Y011
X-003
X-002
X-001968Y01447
X-002968
X-003Y017
X-002
X-001
X-004
X-005
X-006
X-007
X-008
X-0095
X-0105
X-0115
X-0125
X-0135
X-0145
X-015598
X-0166
X-0176
X-0186
X-0178Y0125
Y0115
Y0105
X-0147
Y0115
Y0125
X-011Y011
X-01
X-0085
X-0075
X-0055
X-007891Y01447
X-008891
X-00985Y006667
Y005667
X-01Y00325
X-016Y006
X-017
X-019
X-02
M30
